{
.formatVersion = 3;
axes = (
{
name = Weight;
tag = wght;
}
);
classes = (
{
code = "comma one two six nine A O g o agrave aacute acircumflex atilde adieresis aring ae amacron abreve aogonek gbreve gdotaccent gcommaaccent Scedilla scedilla Tcedilla tcedilla aeacute quoteleft quoteright quotesinglbase quotedblleft quotedblright quotedblbase";
name = aalt;
},
{
code = "comma.ss01 onesuperior twosuperior ordfeminine ordmasculine g.ss03 ordmasculine agrave.ss02 aacute.ss02 acircumflex.ss02 atilde.ss02 adieresis.ss02 aring.ss02 ae.ss02 amacron.ss02 abreve.ss02 aogonek.ss02 gbreve.ss03 gdotaccent.ss03 gcommaaccent.ss03 Scommaaccent scommaaccent Tcommaaccent tcommaaccent aeacute.ss02 quoteleft.ss01 quoteright.ss01 quotesinglbase.ss01 quotedblleft.ss01 quotedblright.ss01 quotedblbase.ss01";
name = aalt2;
},
{
code = "zero one two three four five six seven eight nine";
name = ordn_tnum;
},
{
code = "comma quoteleft quoteright quotesinglbase quotedblleft quotedblright quotedblbase";
name = salt_ss01;
},
{
code = "comma.ss01 quoteleft.ss01 quoteright.ss01 quotesinglbase.ss01 quotedblleft.ss01 quotedblright.ss01 quotedblbase.ss01";
name = salt_ss012;
},
{
code = "a agrave aacute acircumflex atilde adieresis aring ae amacron abreve aogonek aeacute aringacute acyr";
name = ss02;
},
{
code = "a.ss02 agrave.ss02 aacute.ss02 acircumflex.ss02 atilde.ss02 adieresis.ss02 aring.ss02 ae.ss02 amacron.ss02 abreve.ss02 aogonek.ss02 aeacute.ss02 aringacute.ss02 acyr.ss02";
name = ss022;
},
{
code = "shacyr shchacyr icyr ishortcyr igravecyr vecyr zecyr decyr elcyr Elcyr Decyr gecyr Kacyr kacyr Zhecyr zhecyr pecyr tecyr.loclBGR tsecyr yucyr";
name = loclBGR;
},
{
code = "shacyr.loclBGR shchacyr.loclBGR icyr.loclBGR ishortcyr.loclBGR igravecyr.loclBGR vecyr.loclBGR zecyr.loclBGR decyr.loclBGR elcyr.loclBGR Elcyr.loclBGR Decyr.loclBGR gecyr.loclBGR Kacyr.loclBGR kacyr.loclBGR Zhecyr.loclBGR zhecyr.loclBGR pecyr.loclBGR tecyr.loclBGR tsecyr.loclBGR yucyr.loclBGR";
name = loclBGR2;
},
{

glyphs = (
{
glyphname = exclam;
layers = (
{
layerId = "E8646C30-3FF3-473D-8246-41AB9B20E065";
shapes = (
{
closed = 1;
nodes = (
(97,248,l),
(78,700,l),
(261,700,l),
(242,248,l)
);
},
{
closed = 1;
nodes = (
(111,-8,o),
(70,33,o),
(70,84,cs),
(70,137,o),
(111,178,o),
(172,178,cs),
(232,178,o),
(273,137,o),
(273,84,cs),
(273,33,o),
(232,-8,o),
(172,-8,cs)
);
}
);
width = 343;
},
{
layerId = "D9A7C259-C59A-4E8E-902E-93D91DDC07B0";
shapes = (
{
closed = 1;
nodes = (
(87,197,l),
(77,700,l),
(172,700,l),
(161,197,l)
);
},
{
closed = 1;
nodes = (
(92,-6,o),
(66,20,o),
(66,54,cs),
(66,87,o),
(92,112,o),
(126,112,cs),
(161,112,o),
(186,87,o),
(186,54,cs),
(186,20,o),
(161,-6,o),
(126,-6,cs)
);
}
);
width = 253;
},
{
layerId = "0D412B41-94F2-47FA-B804-36C251FF5B2C";
shapes = (
{
closed = 1;
nodes = (
(83,176,l),
(77,700,l),
(137,700,l),
(129,176,l)
);
},
{
closed = 1;
nodes = (
(84,-5,o),
(65,15,o),
(65,42,cs),
(65,67,o),
(84,86,o),
(108,86,cs),
(132,86,o),
(151,67,o),
(151,42,cs),
(151,15,o),
(132,-5,o),
(108,-5,cs)
);
}
);
width = 217;
}
);
unicode = 33;
},
{
glyphname = quotedbl;
layers = (
{
layerId = "E8646C30-3FF3-473D-8246-41AB9B20E065";
shapes = (
{
closed = 1;
nodes = (
(243,534,l),
(358,534,l),
(371,755,l),
(230,755,l)
);
},
{
closed = 1;
nodes = (
(53,534,l),
(168,534,l),
(181,755,l),
(40,755,l)
);
}
);
width = 411;
},
{
layerId = "D9A7C259-C59A-4E8E-902E-93D91DDC07B0";
shapes = (
{
closed = 1;
nodes = (
(182,557,l),
(242,557,l),
(252,755,l),
(170,755,l)
);
},
{
closed = 1;
nodes = (
(48,557,l),
(109,557,l),
(120,755,l),
(38,755,l)
);
}
);
width = 290;
},
{
layerId = "0D412B41-94F2-47FA-B804-36C251FF5B2C";
shapes = (
{
closed = 1;
nodes = (
(157,566,l),
(196,566,l),
(205,755,l),
(146,755,l)
);
},
{
closed = 1;
nodes = (
(46,566,l),
(85,566,l),
(95,755,l),
(37,755,l)
);
}
);
width = 241;
}
);
leftKerningGroup = quotedbl2;
rightKerningGroup = quotedbl;
unicode = 34;
},
{
glyphname = numbersign;
layers = (
{
layerId = "E8646C30-3FF3-473D-8246-41AB9B20E065";
shapes = (
{
closed = 1;
nodes = (
(461,0,l),
(621,0,l),
(654,153,l),
(807,153,l),
(807,307,l),
(687,307,l),
(715,438,l),
(871,438,l),
(871,592,l),
(747,592,l),
(779,740,l),
(619,740,l),
(587,592,l),
(421,592,l),
(453,740,l),
(293,740,l),
(261,592,l),
(84,592,l),
(84,438,l),
(229,438,l),
(201,307,l),
(20,307,l),
(20,153,l),
(168,153,l),
(135,0,l),
(295,0,l),
(328,153,l),
(494,153,l)
);
},
{
closed = 1;
nodes = (
(527,307,l),
(361,307,l),
(389,438,l),
(555,438,l)
);
}
);
width = 904;
},
{
layerId = "D9A7C259-C59A-4E8E-902E-93D91DDC07B0";
shapes = (
{
closed = 1;
nodes = (
(440,0,l),
(525,0,l),
(566,195,l),
(728,195,l),
(728,273,l),
(583,273,l),
(617,434,l),
(772,434,l),
(772,513,l),
(634,513,l),
(675,707,l),
(592,707,l),
(551,513,l),
(338,513,l),
(380,707,l),
(297,707,l),
(255,513,l),
(88,513,l),
(88,434,l),
(238,434,l),
(204,273,l),
(45,273,l),
(45,195,l),
(187,195,l),
(145,0,l),
(229,0,l),
(270,195,l),
(483,195,l)
);
},
{
closed = 1;
nodes = (
(499,273,l),
(287,273,l),
(322,434,l),
(534,434,l)
);
}
);
width = 819;
},
{
layerId = "0D412B41-94F2-47FA-B804-36C251FF5B2C";
shapes = (
{
closed = 1;
nodes = (
(432,0,l),
(486,0,l),
(531,212,l),
(696,212,l),
(696,260,l),
(541,260,l),
(578,433,l),
(732,433,l),
(732,482,l),
(589,482,l),
(634,694,l),
(581,694,l),
(536,482,l),
(305,482,l),
(351,694,l),
(298,694,l),
(252,482,l),
(90,482,l),
(90,433,l),
(242,433,l),
(205,260,l),
(55,260,l),
(55,212,l),
(194,212,l),
(149,0,l),
(202,0,l),
(247,212,l),
(478,212,l)
);
},
{
closed = 1;
nodes = (
(488,260,l),
(258,260,l),
(295,433,l),
(525,433,l)
);
}
);
width = 785;
}
);
unicode = 35;
},
{
glyphname = dollar;
layers = (
{
layerId = "E8646C30-3FF3-473D-8246-41AB9B20E065";
shapes = (
{
closed = 1;
nodes = (
(273,-87,l),
(337,-87,l),
(337,792,l),
(273,792,l)
);
},
{
alignment = -1;
ref = S;
}
);
width = 616;
},
{
layerId = "D9A7C259-C59A-4E8E-902E-93D91DDC07B0";
shapes = (
{
closed = 1;
nodes = (
(264,-87,l),
(318,-87,l),
(318,791,l),
(264,791,l)
);
},
{
alignment = -1;
ref = S;
}
);
width = 580;
},
{
layerId = "0D412B41-94F2-47FA-B804-36C251FF5B2C";
shapes = (
{
closed = 1;
nodes = (
(260,-87,l),
(311,-87,l),
(311,791,l),
(260,791,l)
);
},
{
alignment = -1;
ref = S;
}
);
width = 565;
}
);
leftKerningGroup = S2;
rightKerningGroup = S;
unicode = 36;
},
{
glyphname = percent;
layers = (
{
layerId = "E8646C30-3FF3-473D-8246-41AB9B20E065";
shapes = (
{
closed = 1;
nodes = (
(327,338,o),
(407,409,o),
(407,525,cs),
(407,641,o),
(327,712,o),
(224,712,cs),
(121,712,o),
(40,641,o),
(40,525,cs),
(40,409,o),
(121,338,o),
(224,338,cs)
);
},
{
closed = 1;
nodes = (
(209,0,l),
(374,0,l),
(757,700,l),
(592,700,l)
);
},
{
closed = 1;
nodes = (
(190,450,o),
(170,477,o),
(170,525,cs),
(170,574,o),
(190,601,o),
(223,601,cs),
(256,601,o),
(277,574,o),
(277,525,cs),
(277,477,o),
(256,450,o),
(223,450,cs)
);
},
{
closed = 1;
nodes = (
(848,-12,o),
(928,59,o),
(928,175,cs),
(928,291,o),
(848,362,o),
(745,362,cs),
(642,362,o),
(561,291,o),
(561,175,cs),
(561,59,o),
(642,-12,o),
(745,-12,cs)
);
},
{
closed = 1;
nodes = (
(711,100,o),
(691,127,o),
(691,175,cs),
(691,224,o),
(711,251,o),
(744,251,cs),
(777,251,o),
(798,224,o),
(798,175,cs),
(798,127,o),
(777,100,o),
(744,100,cs)
);
}
);
width = 968;
},
{
layerId = "D9A7C259-C59A-4E8E-902E-93D91DDC07B0";
shapes = (
{
closed = 1;
nodes = (
(292,373,o),
(362,438,o),
(362,542,cs),
(362,646,o),
(293,711,o),
(202,711,cs),
(112,711,o),
(40,646,o),
(40,542,cs),
(40,438,o),
(110,373,o),
(201,373,cs)
);
},
{
closed = 1;
nodes = (
(142,0,l),
(230,0,l),
(635,700,l),
(548,700,l)
);
},
{
closed = 1;
nodes = (
(155,440,o),
(114,475,o),
(114,542,cs),
(114,611,o),
(156,645,o),
(202,645,cs),
(248,645,o),
(288,611,o),
(288,542,cs),
(288,475,o),
(247,440,o),
(201,440,cs)
);
},
{
closed = 1;
nodes = (
(672,-12,o),
(742,53,o),
(742,157,cs),
(742,261,o),
(673,326,o),
(583,326,cs),
(493,326,o),
(421,261,o),
(421,157,cs),
(421,53,o),
(491,-12,o),
(581,-12,cs)
);
},
{
closed = 1;
nodes = (
(535,55,o),
(495,89,o),
(495,157,cs),
(495,225,o),
(536,260,o),
(583,260,cs),
(629,260,o),
(669,225,o),
(669,157,cs),
(669,89,o),
(628,55,o),
(582,55,cs)
);
}
);
width = 782;
},
{
layerId = "0D412B41-94F2-47FA-B804-36C251FF5B2C";
shapes = (
{
closed = 1;
nodes = (
(278,387,o),
(344,450,o),
(344,549,cs),
(344,648,o),
(279,711,o),
(193,711,cs),
(108,711,o),
(40,648,o),
(40,549,cs),
(40,450,o),
(106,387,o),
(192,387,cs)
);
},
{
closed = 1;
nodes = (
(115,0,l),
(172,0,l),
(586,700,l),
(530,700,l)
);
},
{
closed = 1;
nodes = (
(141,436,o),
(92,474,o),
(92,549,cs),
(92,626,o),
(142,663,o),
(193,663,cs),
(245,663,o),
(292,626,o),
(292,549,cs),
(292,474,o),
(243,436,o),
(192,436,cs)
);
},
{
closed = 1;
nodes = (
(602,-12,o),
(668,51,o),
(668,150,cs),
(668,249,o),
(603,312,o),
(518,312,cs),
(433,312,o),
(365,249,o),
(365,150,cs),
(365,51,o),
(431,-12,o),
(516,-12,cs)
);
},
{
closed = 1;
nodes = (
(465,37,o),
(417,74,o),
(417,150,cs),
(417,226,o),
(466,264,o),
(518,264,cs),
(570,264,o),
(617,226,o),
(617,150,cs),
(617,74,o),
(568,37,o),
(517,37,cs)
);
}
);
width = 708;
}
);
leftKerningGroup = percent;
unicode = 37;
},
{
glyphname = ampersand;
layers = (
{
layerId = "E8646C30-3FF3-473D-8246-41AB9B20E065";
shapes = (
{
closed = 1;
nodes = (
(599,0,l),
(798,0,l),
(628,167,l),
(655,206,o),
(680,252,o),
(704,307,cs),
(729,365,l),
(558,365,l),
(544,331,l),
(535,311,o),
(526,292,o),
(517,275,c),
(347,441,l),
(310,480,o),
(291,509,o),
(291,534,cs),
(291,565,o),
(315,584,o),
(347,584,cs),
(378,584,o),
(400,567,o),
(399,528,c),
(560,528,l),
(563,625,o),
(493,712,o),
(349,712,cs),
(209,712,o),
(130,632,o),
(130,533,cs),
(130,490,o),
(143,454,o),
(178,411,c),
(82,364,o),
(36,291,o),
(36,204,cs),
(36,74,o),
(138,-11,o),
(302,-11,cs),
(392,-11,o),
(469,14,o),
(533,64,c)
);
},
{
closed = 1;
nodes = (
(429,165,l),
(395,140,o),
(355,127,o),
(310,127,cs),
(242,127,o),
(201,167,o),
(201,216,cs),
(201,256,o),
(225,291,o),
(273,316,c)
);
}
);
width = 810;
},
{
layerId = "D9A7C259-C59A-4E8E-902E-93D91DDC07B0";
shapes = (
{
closed = 1;
nodes = (
(610,0,l),
(721,0,l),
(569,153,l),
(596,189,o),
(624,233,o),
(653,285,cs),
(695,363,l),
(603,363,l),
(573,309,ls),
(551,271,o),
(530,238,o),
(511,211,c),
(293,430,l),
(247,479,o),
(223,516,o),
(223,558,cs),
(223,607,o),
(259,641,o),
(317,641,cs),
(367,641,o),
(409,611,o),
(408,552,c),
(494,552,l),
(499,645,o),
(425,712,o),
(317,712,cs),
(205,712,o),
(136,648,o),
(136,557,cs),
(136,504,o),
(156,464,o),
(200,415,c),
(95,370,o),
(40,297,o),
(40,200,cs),
(40,73,o),
(137,-12,o),
(282,-12,cs),
(374,-12,o),
(446,18,o),
(518,93,c)
);
},
{
closed = 1;
nodes = (
(462,149,l),
(404,87,o),
(353,63,o),
(284,63,cs),
(191,63,o),
(127,124,o),
(127,205,cs),
(127,275,o),
(167,327,o),
(253,360,c)
);
}
);
width = 736;
},
{
layerId = "0D412B41-94F2-47FA-B804-36C251FF5B2C";
shapes = (
{
closed = 1;
nodes = (
(615,0,l),
(690,0,l),
(546,147,l),
(573,182,o),
(601,225,o),
(632,276,c),
(682,362,l),
(621,362,l),
(584,300,ls),
(557,255,o),
(531,216,o),
(508,185,c),
(271,426,l),
(222,479,o),
(196,519,o),
(196,567,cs),
(196,624,o),
(236,664,o),
(305,664,cs),
(362,664,o),
(412,629,o),
(412,561,c),
(468,561,l),
(473,653,o),
(398,712,o),
(304,712,cs),
(203,712,o),
(139,654,o),
(139,566,cs),
(139,510,o),
(161,468,o),
(209,416,c),
(100,373,o),
(41,299,o),
(41,199,cs),
(41,72,o),
(137,-12,o),
(274,-12,cs),
(367,-12,o),
(437,20,o),
(512,105,c)
);
},
{
closed = 1;
nodes = (
(475,143,l),
(408,66,o),
(352,37,o),
(273,37,cs),
(170,37,o),
(97,107,o),
(97,200,cs),
(97,283,o),
(144,341,o),
(245,378,c)
);
}
);
width = 707;
}
);
unicode = 38;
},
{
glyphname = quotesingle;
layers = (
{
layerId = "E8646C30-3FF3-473D-8246-41AB9B20E065";
shapes = (
{
closed = 1;
nodes = (
(53,534,l),
(168,534,l),
(181,755,l),
(40,755,l)
);
}
);
width = 221;
},
{
layerId = "D9A7C259-C59A-4E8E-902E-93D91DDC07B0";
shapes = (
{
closed = 1;
nodes = (
(49,557,l),
(111,557,l),
(123,755,l),
(38,755,l)
);
}
);
width = 160;
},
{
layerId = "0D412B41-94F2-47FA-B804-36C251FF5B2C";
shapes = (
{
closed = 1;
nodes = (
(48,566,l),
(88,566,l),
(100,755,l),
(37,755,l)
);
}
);
width = 136;
}
);
leftKerningGroup = quotedbl2;
rightKerningGroup = quotedbl;
unicode = 39;
},
{
glyphname = parenleft;
layers = (
{
layerId = "E8646C30-3FF3-473D-8246-41AB9B20E065";
shapes = (
{
closed = 1;
nodes = (
(230,-145,l),
(115,-25,o),
(43,145,o),
(43,333,cs),
(43,521,o),
(115,691,o),
(230,811,c),
(399,811,l),
(399,795,l),
(280,662,o),
(210,500,o),
(210,333,cs),
(210,166,o),
(280,4,o),
(399,-129,c),
(399,-145,l)
);
}
);
width = 425;
},
{
layerId = "D9A7C259-C59A-4E8E-902E-93D91DDC07B0";
shapes = (
{
closed = 1;
nodes = (
(247,-145,l),
(138,-40,o),
(47,125,o),
(47,333,cs),
(47,541,o),
(138,706,o),
(247,811,c),
(337,811,l),
(337,802,l),
(214,681,o),
(134,518,o),
(134,333,cs),
(134,149,o),
(216,-16,o),
(338,-136,c),
(338,-145,l)
);
}
);
width = 375;
},
{
layerId = "0D412B41-94F2-47FA-B804-36C251FF5B2C";
shapes = (
{
closed = 1;
nodes = (
(254,-145,l),
(147,-46,o),
(49,117,o),
(49,333,cs),
(49,549,o),
(147,712,o),
(254,811,c),
(312,811,l),
(312,805,l),
(188,689,o),
(104,525,o),
(104,333,cs),
(104,142,o),
(190,-24,o),
(313,-139,c),
(313,-145,l)
);
}
);
width = 355;
}
);
unicode = 40;
},
{
glyphname = parenright;
layers = (
{
layerId = "E8646C30-3FF3-473D-8246-41AB9B20E065";
shapes = (
{
closed = 1;
nodes = (
(195,-145,l),
(310,-25,o),
(382,145,o),
(382,333,cs),
(382,521,o),
(310,691,o),
(195,811,c),
(26,811,l),
(26,795,l),
(145,662,o),
(215,500,o),
(215,333,cs),
(215,166,o),
(145,4,o),
(26,-129,c),
(26,-145,l)
);
}
);
width = 425;
},
{
layerId = "D9A7C259-C59A-4E8E-902E-93D91DDC07B0";
shapes = (
{
closed = 1;
nodes = (
(128,-145,l),
(237,-40,o),
(328,125,o),
(328,333,cs),
(328,541,o),
(237,706,o),
(128,811,c),
(38,811,l),
(38,802,l),
(161,681,o),
(241,518,o),
(241,333,cs),
(241,149,o),
(159,-16,o),
(37,-136,c),
(37,-145,l)
);
}
);
width = 375;
},
{
layerId = "0D412B41-94F2-47FA-B804-36C251FF5B2C";
shapes = (
{
closed = 1;
nodes = (
(101,-145,l),
(208,-46,o),
(306,117,o),
(306,333,cs),
(306,549,o),
(208,712,o),
(101,811,c),
(43,811,l),
(43,805,l),
(167,689,o),
(251,525,o),
(251,333,cs),
(251,142,o),
(165,-24,o),
(42,-139,c),
(42,-145,l)
);
}
);
width = 355;
}
);
unicode = 41;
},
{
glyphname = asterisk;
layers = (
{
layerId = "E8646C30-3FF3-473D-8246-41AB9B20E065";
shapes = (
{
closed = 1;
nodes = (
(211,360,l),
(328,360,l),
(303,490,l),
(403,402,l),
(463,508,l),
(340,550,l),
(463,593,l),
(407,695,l),
(303,608,l),
(329,740,l),
(210,740,l),
(236,608,l),
(132,695,l),
(75,592,l),
(197,552,l),
(74,509,l),
(136,401,l),
(235,490,l)
);
}
);
width = 534;
},
{
layerId = "D9A7C259-C59A-4E8E-902E-93D91DDC07B0";
shapes = (
{
closed = 1;
nodes = (
(207,360,l),
(277,360,l),
(262,512,l),
(386,426,l),
(420,487,l),
(282,548,l),
(419,608,l),
(386,668,l),
(262,581,l),
(278,734,l),
(208,734,l),
(222,581,l),
(97,668,l),
(63,607,l),
(201,548,l),
(62,488,l),
(97,425,l),
(221,512,l)
);
}
);
width = 480;
},
{
layerId = "0D412B41-94F2-47FA-B804-36C251FF5B2C";
shapes = (
{
closed = 1;
nodes = (
(206,360,l),
(256,360,l),
(246,521,l),
(379,435,l),
(403,479,l),
(259,547,l),
(402,614,l),
(378,657,l),
(246,570,l),
(257,731,l),
(207,731,l),
(217,570,l),
(83,657,l),
(58,613,l),
(202,546,l),
(57,479,l),
(82,434,l),
(216,521,l)
);
}
);
width = 459;
}
);
unicode = 42;
},
{
glyphname = plus;
layers = (
{
layerId = "E8646C30-3FF3-473D-8246-41AB9B20E065";
shapes = (
{
closed = 1;
nodes = (
(234,54,l),
(376,54,l),
(376,218,l),
(560,218,l),
(560,360,l),
(376,360,l),
(376,524,l),
(234,524,l),
(234,360,l),
(50,360,l),
(50,218,l),
(234,218,l)
);
}
);
width = 610;
},
{
layerId = "D9A7C259-C59A-4E8E-902E-93D91DDC07B0";
shapes = (
{
closed = 1;
nodes = (
(253,71,l),
(332,71,l),
(332,253,l),
(522,253,l),
(522,328,l),
(332,328,l),
(332,508,l),
(253,508,l),
(253,328,l),
(62,328,l),
(62,253,l),
(253,253,l)
);
}
);
width = 584;
},
{
layerId = "0D412B41-94F2-47FA-B804-36C251FF5B2C";
shapes = (
{
closed = 1;
nodes = (
(260,78,l),
(314,78,l),
(314,267,l),
(507,267,l),
(507,315,l),
(314,315,l),
(314,502,l),
(260,502,l),
(260,315,l),
(67,315,l),
(67,267,l),
(260,267,l)
);
}
);
width = 574;
}
);
unicode = 43;
},
{
glyphname = comma;
layers = (
{
layerId = "E8646C30-3FF3-473D-8246-41AB9B20E065";
shapes = (
{
closed = 1;
nodes = (
(26,-113,l),
(135,-113,l),
(242,164,l),
(82,164,l)
);
}
);
width = 283;
},
{
layerId = "D9A7C259-C59A-4E8E-902E-93D91DDC07B0";
shapes = (
{
closed = 1;
nodes = (
(3,-119,l),
(64,-119,l),
(152,105,l),
(61,105,l)
);
}
);
width = 183;
},
{
layerId = "0D412B41-94F2-47FA-B804-36C251FF5B2C";
shapes = (
{
closed = 1;
nodes = (
(-6,-121,l),
(35,-121,l),
(116,81,l),
(53,81,l)
);
}
);
width = 143;
}
);
unicode = 44;
},
{
glyphname = hyphen;
layers = (
{
layerId = "E8646C30-3FF3-473D-8246-41AB9B20E065";
shapes = (
{
closed = 1;
nodes = (
(50,218,l),
(490,218,l),
(490,360,l),
(50,360,l)
);
}
);
width = 540;
},
{
layerId = "D9A7C259-C59A-4E8E-902E-93D91DDC07B0";
shapes = (
{
closed = 1;
nodes = (
(58,253,l),
(457,253,l),
(457,328,l),
(58,328,l)
);
}
);
width = 514;
},
{
layerId = "0D412B41-94F2-47FA-B804-36C251FF5B2C";
shapes = (
{
closed = 1;
nodes = (
(61,267,l),
(443,267,l),
(443,315,l),
(61,315,l)
);
}
);
width = 504;
}
);
leftKerningGroup = minus2;
rightKerningGroup = minus;
unicode = 45;
},
{
glyphname = period;
layers = (
{
layerId = "E8646C30-3FF3-473D-8246-41AB9B20E065";
shapes = (
{
closed = 1;
nodes = (
(202,-8,o),
(243,33,o),
(243,84,cs),
(243,137,o),
(202,178,o),
(142,178,cs),
(81,178,o),
(40,137,o),
(40,84,cs),
(40,33,o),
(81,-8,o),
(142,-8,cs)
);
}
);
width = 283;
},
{
layerId = "D9A7C259-C59A-4E8E-902E-93D91DDC07B0";
shapes = (
{
closed = 1;
nodes = (
(134,-6,o),
(159,20,o),
(159,54,cs),
(159,87,o),
(134,112,o),
(100,112,cs),
(65,112,o),
(40,87,o),
(40,54,cs),
(40,20,o),
(65,-6,o),
(100,-6,cs)
);
}
);
width = 199;
},
{
layerId = "0D412B41-94F2-47FA-B804-36C251FF5B2C";
shapes = (
{
closed = 1;
nodes = (
(107,-5,o),
(126,15,o),
(126,42,cs),
(126,67,o),
(107,86,o),
(83,86,cs),
(59,86,o),
(40,67,o),
(40,42,cs),
(40,15,o),
(59,-5,o),
(83,-5,cs)
);
}
);
width = 166;
}
);
leftKerningGroup = period2;
rightKerningGroup = period;
unicode = 46;
},
{
glyphname = slash;
layers = (
{
layerId = "E8646C30-3FF3-473D-8246-41AB9B20E065";
shapes = (
{
closed = 1;
nodes = (
(18,-127,l),
(183,-127,l),
(432,790,l),
(267,790,l)
);
}
);
width = 450;
},
{
layerId = "D9A7C259-C59A-4E8E-902E-93D91DDC07B0";
shapes = (
{
closed = 1;
nodes = (
(28,-97,l),
(114,-97,l),
(366,766,l),
(278,766,l)
);
}
);
width = 394;
},
{
layerId = "0D412B41-94F2-47FA-B804-36C251FF5B2C";
shapes = (
{
closed = 1;
nodes = (
(32,-85,l),
(87,-85,l),
(339,756,l),
(283,756,l)
);
}
);
width = 371;
}
);
unicode = 47;
},
{
glyphname = zero;
layers = (
{
layerId = "E8646C30-3FF3-473D-8246-41AB9B20E065";
shapes = (
{
closed = 1;
nodes = (
(505,-12,o),
(609,136,o),
(609,350,cs),
(609,564,o),
(505,712,o),
(331,712,cs),
(159,712,o),
(53,564,o),
(53,350,cs),
(53,136,o),
(159,-12,o),
(331,-12,cs)
);
},
{
closed = 1;
nodes = (
(266,143,o),
(227,223,o),
(227,350,cs),
(227,477,o),
(266,557,o),
(331,557,cs),
(398,557,o),
(437,477,o),
(437,350,cs),
(437,223,o),
(398,143,o),
(331,143,cs)
);
}
);
width = 662;
},
{
layerId = "D9A7C259-C59A-4E8E-902E-93D91DDC07B0";
shapes = (
{
closed = 1;
nodes = (
(472,-12,o),
(570,133,o),
(570,350,cs),
(570,566,o),
(472,712,o),
(312,712,cs),
(151,712,o),
(51,566,o),
(51,350,cs),
(51,133,o),
(151,-12,o),
(312,-12,cs)
);
},
{
closed = 1;
nodes = (
(214,67,o),
(142,171,o),
(142,350,cs),
(142,531,o),
(214,632,o),
(312,632,cs),
(406,632,o),
(479,531,o),
(479,350,cs),
(479,171,o),
(406,67,o),
(312,67,cs)
);
}
);
width = 621;
},
{
layerId = "0D412B41-94F2-47FA-B804-36C251FF5B2C";
shapes = (
{
closed = 1;
nodes = (
(460,-12,o),
(554,132,o),
(554,350,cs),
(554,566,o),
(460,712,o),
(304,712,cs),
(148,712,o),
(53,566,o),
(53,350,cs),
(53,132,o),
(148,-12,o),
(304,-12,cs)
);
},
{
closed = 1;
nodes = (
(191,38,o),
(110,153,o),
(110,350,cs),
(110,547,o),
(191,661,o),
(304,661,cs),
(416,661,o),
(497,547,o),
(497,350,cs),
(497,153,o),
(416,38,o),
(304,38,cs)
);
}
);
width = 607;
}
);
unicode = 48;
},
{
glyphname = one;
layers = (
{
layerId = "E8646C30-3FF3-473D-8246-41AB9B20E065";
shapes = (
{
closed = 1;
nodes = (
(416,0,l),
(416,700,l),
(316,700,l),
(57,584,l),
(57,418,l),
(240,502,l),
(240,0,l)
);
}
);
width = 498;
},
{
layerId = "D9A7C259-C59A-4E8E-902E-93D91DDC07B0";
shapes = (
{
closed = 1;
nodes = (
(309,0,l),
(309,700,l),
(249,700,l),
(43,611,l),
(43,532,l),
(218,600,l),
(218,0,l)
);
}
);
width = 389;
},
{
layerId = "0D412B41-94F2-47FA-B804-36C251FF5B2C";
shapes = (
{
closed = 1;
nodes = (
(275,0,l),
(275,700,l),
(239,700,l),
(47,620,l),
(47,565,l),
(219,635,l),
(219,0,l)
);
}
);
width = 362;
}
);
unicode = 49;
},
{
glyphname = two;
layers = (
{
layerId = "E8646C30-3FF3-473D-8246-41AB9B20E065";
shapes = (
{
closed = 1;
nodes = (
(581,0,l),
(581,139,l),
(289,139,l),
(423,237,o),
(570,354,o),
(570,501,cs),
(570,610,o),
(487,712,o),
(315,712,cs),
(174,712,o),
(61,639,o),
(55,471,c),
(220,471,l),
(220,528,o),
(252,568,o),
(309,568,cs),
(371,568,o),
(399,532,o),
(399,490,cs),
(399,380,o),
(224,255,o),
(57,127,c),
(57,0,l)
);
}
);
width = 629;
},
{
layerId = "D9A7C259-C59A-4E8E-902E-93D91DDC07B0";
shapes = (
{
closed = 1;
nodes = (
(555,0,l),
(555,74,l),
(197,74,l),
(338,177,o),
(531,340,o),
(531,503,cs),
(531,638,o),
(436,712,o),
(304,712,cs),
(170,712,o),
(72,631,o),
(71,491,c),
(157,491,l),
(157,569,o),
(206,636,o),
(302,636,cs),
(402,636,o),
(442,571,o),
(442,499,cs),
(442,367,o),
(271,212,o),
(66,63,c),
(66,0,l)
);
}
);
width = 607;
},
{
layerId = "0D412B41-94F2-47FA-B804-36C251FF5B2C";
shapes = (
{
closed = 1;
nodes = (
(550,0,l),
(550,47,l),
(155,47,l),
(304,160,o),
(522,340,o),
(522,522,cs),
(522,655,o),
(421,712,o),
(308,712,cs),
(176,712,o),
(84,628,o),
(85,499,c),
(140,499,l),
(138,585,o),
(192,663,o),
(306,663,cs),
(419,663,o),
(467,598,o),
(467,520,cs),
(467,365,o),
(284,203,o),
(78,42,c),
(78,0,l)
);
}
);
width = 610;
}
);
unicode = 50;
},
{
glyphname = three;
layers = (
{
layerId = "E8646C30-3FF3-473D-8246-41AB9B20E065";
shapes = (
{
closed = 1;
nodes = (
(459,-6,o),
(558,85,o),
(558,222,cs),
(558,356,o),
(462,433,o),
(312,433,cs),
(248,433,l),
(319,385,l),
(530,571,l),
(530,700,l),
(82,700,l),
(82,554,l),
(414,554,l),
(362,591,l),
(187,436,l),
(187,325,l),
(286,325,ls),
(353,325,o),
(396,286,o),
(396,229,cs),
(396,171,o),
(361,136,o),
(306,136,cs),
(243,136,o),
(214,174,o),
(213,231,c),
(46,231,l),
(50,66,o),
(160,-6,o),
(305,-6,cs)
);
}
);
width = 614;
},
{
layerId = "0D412B41-94F2-47FA-B804-36C251FF5B2C";
shapes = (
{
closed = 1;
nodes = (
(444,-5,o),
(531,86,o),
(531,218,cs),
(531,353,o),
(442,433,o),
(293,433,cs),
(220,433,l),
(246,413,l),
(498,656,l),
(498,700,l),
(101,700,l),
(101,653,l),
(473,653,l),
(449,673,l),
(201,432,l),
(201,392,l),
(290,392,ls),
(408,392,o),
(477,329,o),
(477,220,cs),
(477,103,o),
(404,42,o),
(293,42,cs),
(183,42,o),
(122,111,o),
(108,200,c),
(54,200,l),
(69,68,o),
(161,-5,o),
(293,-5,cs)
);
}
);
width = 592;
},
{
layerId = "D9A7C259-C59A-4E8E-902E-93D91DDC07B0";
shapes = (
{
closed = 1;
nodes = (
(446,-5,o),
(538,80,o),
(538,215,cs),
(538,353,o),
(450,433,o),
(304,433,cs),
(226,433,l),
(275,405,l),
(507,632,l),
(507,700,l),
(96,700,l),
(96,625,l),
(458,625,l),
(424,651,l),
(198,428,l),
(198,366,l),
(298,366,ls),
(394,366,o),
(452,311,o),
(452,217,cs),
(452,125,o),
(393,69,o),
(298,69,cs),
(202,69,o),
(150,130,o),
(139,209,c),
(52,209,l),
(64,68,o),
(163,-5,o),
(297,-5,cs)
);
}
);
width = 598;
}
);
unicode = 51;
},
{
glyphname = four;
layers = (
{
layerId = "E8646C30-3FF3-473D-8246-41AB9B20E065";
shapes = (
{
closed = 1;
nodes = (
(559,0,l),
(559,110,l),
(641,110,l),
(641,258,l),
(559,258,l),
(559,441,l),
(400,405,l),
(400,258,l),
(232,258,l),
(517,700,l),
(338,700,l),
(52,248,l),
(52,110,l),
(388,110,l),
(388,0,l)
);
}
);
width = 693;
},
{
layerId = "0D412B41-94F2-47FA-B804-36C251FF5B2C";
shapes = (
{
closed = 1;
nodes = (
(467,0,l),
(467,157,l),
(570,157,l),
(570,205,l),
(467,205,l),
(467,429,l),
(415,416,l),
(415,205,l),
(115,205,l),
(430,700,l),
(368,700,l),
(52,200,l),
(52,157,l),
(412,157,l),
(412,0,l)
);
}
);
width = 622;
},
{
layerId = "D9A7C259-C59A-4E8E-902E-93D91DDC07B0";
shapes = (
{
closed = 1;
nodes = (
(475,0,l),
(475,162,l),
(578,162,l),
(578,240,l),
(475,240,l),
(475,430,l),
(392,410,l),
(392,240,l),
(150,240,l),
(443,700,l),
(344,700,l),
(52,231,l),
(52,162,l),
(387,162,l),
(387,0,l)
);
}
);
width = 630;
}
);
unicode = 52;
},
{
glyphname = five;
layers = (
{
layerId = "E8646C30-3FF3-473D-8246-41AB9B20E065";
shapes = (
{
closed = 1;
nodes = (
(463,-12,o),
(577,82,o),
(577,233,cs),
(577,344,o),
(522,461,o),
(365,461,cs),
(314,461,o),
(269,447,o),
(244,424,c),
(255,550,l),
(557,550,l),
(557,700,l),
(130,700,l),
(86,300,l),
(255,300,l),
(273,306,o),
(296,324,o),
(331,324,cs),
(380,324,o),
(412,293,o),
(412,231,cs),
(412,170,o),
(382,133,o),
(327,133,cs),
(279,133,o),
(250,159,o),
(249,183,c),
(82,183,l),
(86,69,o),
(173,-12,o),
(327,-12,cs)
);
}
);
width = 642;
},
{
layerId = "D9A7C259-C59A-4E8E-902E-93D91DDC07B0";
shapes = (
{
closed = 1;
nodes = (
(447,-12,o),
(539,97,o),
(539,231,cs),
(539,357,o),
(459,461,o),
(324,461,cs),
(252,461,o),
(196,438,o),
(164,403,c),
(194,623,l),
(513,623,l),
(513,700,l),
(125,700,l),
(79,330,l),
(170,330,l),
(200,359,o),
(244,386,o),
(313,386,cs),
(401,386,o),
(453,320,o),
(453,230,cs),
(453,133,o),
(399,64,o),
(306,64,cs),
(222,64,o),
(175,107,o),
(161,168,c),
(74,168,l),
(85,64,o),
(167,-12,o),
(305,-12,cs)
);
}
);
width = 602;
},
{
layerId = "0D412B41-94F2-47FA-B804-36C251FF5B2C";
shapes = (
{
closed = 1;
nodes = (
(445,-12,o),
(527,104,o),
(527,230,cs),
(527,363,o),
(437,461,o),
(311,461,cs),
(230,461,o),
(170,430,o),
(136,392,c),
(169,652,l),
(499,652,l),
(499,700,l),
(127,700,l),
(81,342,l),
(139,342,l),
(173,380,o),
(223,413,o),
(304,413,cs),
(410,413,o),
(472,334,o),
(472,230,cs),
(472,119,o),
(407,37,o),
(302,37,cs),
(203,37,o),
(147,86,o),
(128,161,c),
(73,161,l),
(90,62,o),
(168,-12,o),
(302,-12,cs)
);
}
);
width = 594;
}
);
unicode = 53;
},
{
glyphname = six;
layers = (
{
layerId = "E8646C30-3FF3-473D-8246-41AB9B20E065";
shapes = (
{
closed = 1;
nodes = (
(466,-12,o),
(579,85,o),
(579,236,cs),
(579,381,o),
(486,465,o),
(360,465,cs),
(323,465,o),
(291,454,o),
(253,445,c),
(261,385,l),
(484,700,l),
(296,700,l),
(139,468,ls),
(81,383,o),
(58,312,o),
(58,238,cs),
(58,91,o),
(165,-12,o),
(320,-12,cs)
);
},
{
closed = 1;
nodes = (
(258,131,o),
(220,171,o),
(220,234,cs),
(220,297,o),
(258,337,o),
(320,337,cs),
(381,337,o),
(419,297,o),
(419,234,cs),
(419,171,o),
(381,131,o),
(320,131,cs)
);
}
);
width = 637;
},
{
layerId = "0D412B41-94F2-47FA-B804-36C251FF5B2C";
shapes = (
{
closed = 1;
nodes = (
(443,-12,o),
(535,90,o),
(535,230,cs),
(535,371,o),
(440,465,o),
(300,465,cs),
(249,465,o),
(193,443,o),
(160,420,c),
(158,398,l),
(362,700,l),
(300,700,l),
(119,433,ls),
(72,363,o),
(50,299,o),
(50,230,cs),
(50,96,o),
(140,-12,o),
(292,-12,cs)
);
},
{
closed = 1;
nodes = (
(179,39,o),
(105,113,o),
(105,229,cs),
(105,341,o),
(179,419,o),
(292,419,cs),
(407,419,o),
(478,343,o),
(478,229,cs),
(478,111,o),
(407,39,o),
(292,39,cs)
);
}
);
width = 585;
},
{
layerId = "D9A7C259-C59A-4E8E-902E-93D91DDC07B0";
shapes = (
{
closed = 1;
nodes = (
(446,-12,o),
(549,88,o),
(549,232,cs),
(549,373,o),
(454,468,o),
(314,468,cs),
(275,468,o),
(240,458,o),
(207,444,c),
(209,417,l),
(403,700,l),
(299,700,l),
(126,443,l),
(74,368,o),
(52,304,o),
(52,232,cs),
(52,94,o),
(150,-12,o),
(301,-12,cs)
);
},
{
closed = 1;
nodes = (
(204,69,o),
(142,133,o),
(142,232,cs),
(142,329,o),
(204,394,o),
(301,394,cs),
(399,394,o),
(460,329,o),
(460,231,cs),
(460,133,o),
(399,69,o),
(301,69,cs)
);
}
);
width = 603;
}
);
unicode = 54;
},
{
glyphname = seven;
layers = (
{
layerId = "E8646C30-3FF3-473D-8246-41AB9B20E065";
shapes = (
{
closed = 1;
nodes = (
(318,0,l),
(527,582,l),
(527,700,l),
(44,700,l),
(44,554,l),
(351,554,l),
(143,0,l)
);
}
);
width = 563;
},
{
layerId = "D9A7C259-C59A-4E8E-902E-93D91DDC07B0";
shapes = (
{
closed = 1;
nodes = (
(272,0,l),
(503,634,l),
(503,700,l),
(33,700,l),
(33,624,l),
(412,624,l),
(178,0,l)
);
}
);
width = 544;
},
{
layerId = "0D412B41-94F2-47FA-B804-36C251FF5B2C";
shapes = (
{
closed = 1;
nodes = (
(255,0,l),
(498,658,l),
(498,700,l),
(32,700,l),
(32,653,l),
(441,653,l),
(197,0,l)
);
}
);
width = 544;
}
);
unicode = 55;
},
{
glyphname = eight;
layers = (
{
layerId = "E8646C30-3FF3-473D-8246-41AB9B20E065";
shapes = (
{
closed = 1;
nodes = (
(471,-12,o),
(586,70,o),
(586,201,cs),
(586,284,o),
(551,345,o),
(492,379,c),
(535,408,o),
(568,461,o),
(568,524,cs),
(568,620,o),
(494,712,o),
(330,712,cs),
(166,712,o),
(91,620,o),
(91,524,cs),
(91,459,o),
(123,409,o),
(167,379,c),
(109,346,o),
(74,284,o),
(74,201,cs),
(74,70,o),
(189,-12,o),
(330,-12,cs)
);
},
{
closed = 1;
nodes = (
(273,128,o),
(239,168,o),
(239,216,cs),
(239,268,o),
(271,305,o),
(330,305,cs),
(389,305,o),
(419,268,o),
(419,216,cs),
(419,168,o),
(387,128,o),
(330,128,cs)
);
},
{
closed = 1;
nodes = (
(282,425,o),
(258,456,o),
(258,499,cs),
(258,545,o),
(282,576,o),
(330,576,cs),
(378,576,o),
(402,545,o),
(402,500,cs),
(402,457,o),
(378,425,o),
(330,425,cs)
);
}
);
width = 660;
},
{
layerId = "D9A7C259-C59A-4E8E-902E-93D91DDC07B0";
shapes = (
{
closed = 1;
nodes = (
(428,-12,o),
(530,70,o),
(530,191,cs),
(530,276,o),
(479,350,o),
(409,373,c),
(474,400,o),
(512,460,o),
(512,526,cs),
(512,628,o),
(433,712,o),
(301,712,cs),
(169,712,o),
(87,628,o),
(87,526,cs),
(87,460,o),
(128,400,o),
(192,373,c),
(120,350,o),
(71,276,o),
(71,191,cs),
(71,70,o),
(172,-12,o),
(301,-12,cs)
);
},
{
closed = 1;
nodes = (
(207,66,o),
(160,118,o),
(160,196,cs),
(160,285,o),
(216,331,o),
(301,331,cs),
(383,331,o),
(442,285,o),
(442,196,cs),
(442,118,o),
(393,66,o),
(301,66,cs)
);
},
{
closed = 1;
nodes = (
(227,404,o),
(178,451,o),
(178,520,cs),
(178,596,o),
(226,636,o),
(301,636,cs),
(375,636,o),
(423,596,o),
(423,520,cs),
(423,451,o),
(374,404,o),
(301,404,cs)
);
}
);
width = 602;
},
{
layerId = "0D412B41-94F2-47FA-B804-36C251FF5B2C";
shapes = (
{
closed = 1;
nodes = (
(429,-12,o),
(514,70,o),
(514,186,cs),
(514,279,o),
(463,352,o),
(378,371,c),
(454,395,o),
(497,454,o),
(497,532,cs),
(497,626,o),
(432,712,o),
(295,712,cs),
(159,712,o),
(94,626,o),
(94,532,cs),
(94,454,o),
(135,395,o),
(212,371,c),
(127,352,o),
(75,279,o),
(75,186,cs),
(75,70,o),
(160,-12,o),
(295,-12,cs)
);
},
{
closed = 1;
nodes = (
(187,37,o),
(132,98,o),
(132,189,cs),
(132,292,o),
(197,344,o),
(295,344,cs),
(393,344,o),
(458,292,o),
(458,189,cs),
(458,98,o),
(402,37,o),
(295,37,cs)
);
},
{
closed = 1;
nodes = (
(210,393,o),
(151,440,o),
(151,528,cs),
(151,617,o),
(209,664,o),
(295,664,cs),
(380,664,o),
(440,617,o),
(440,528,cs),
(440,440,o),
(379,393,o),
(295,393,cs)
);
}
);
width = 589;
}
);
unicode = 56;
},
{
glyphname = nine;
layers = (
{
layerId = "E8646C30-3FF3-473D-8246-41AB9B20E065";
shapes = (
{
closed = 1;
nodes = (
(341,0,l),
(498,232,ls),
(556,317,o),
(579,388,o),
(579,462,cs),
(579,609,o),
(472,712,o),
(317,712,cs),
(171,712,o),
(58,615,o),
(58,464,cs),
(58,319,o),
(151,235,o),
(277,235,cs),
(314,235,o),
(346,246,o),
(384,255,c),
(376,315,l),
(153,0,l)
);
},
{
closed = 1;
nodes = (
(256,363,o),
(218,403,o),
(218,466,cs),
(218,529,o),
(256,569,o),
(317,569,cs),
(379,569,o),
(417,529,o),
(417,466,cs),
(417,403,o),
(379,363,o),
(317,363,cs)
);
}
);
width = 637;
},
{
layerId = "0D412B41-94F2-47FA-B804-36C251FF5B2C";
shapes = (
{
closed = 1;
nodes = (
(284,0,l),
(464,268,ls),
(511,337,o),
(535,401,o),
(535,470,cs),
(535,604,o),
(444,712,o),
(290,712,cs),
(140,712,o),
(50,610,o),
(50,470,cs),
(50,329,o),
(145,235,o),
(283,235,cs),
(334,235,o),
(391,256,o),
(425,280,c),
(428,302,l),
(222,0,l)
);
},
{
closed = 1;
nodes = (
(176,282,o),
(105,357,o),
(105,471,cs),
(105,589,o),
(176,661,o),
(290,661,cs),
(405,661,o),
(479,587,o),
(479,471,cs),
(479,359,o),
(405,282,o),
(290,282,cs)
);
}
);
width = 585;
},
{
layerId = "D9A7C259-C59A-4E8E-902E-93D91DDC07B0";
shapes = (
{
closed = 1;
nodes = (
(302,0,l),
(475,257,ls),
(526,332,o),
(549,396,o),
(549,468,cs),
(549,606,o),
(451,712,o),
(299,712,cs),
(155,712,o),
(52,612,o),
(52,468,cs),
(52,327,o),
(147,232,o),
(287,232,cs),
(326,232,o),
(361,242,o),
(394,256,c),
(392,283,l),
(198,0,l)
);
},
{
closed = 1;
nodes = (
(202,306,o),
(141,371,o),
(141,469,cs),
(141,567,o),
(202,631,o),
(299,631,cs),
(397,631,o),
(459,567,o),
(459,468,cs),
(459,371,o),
(397,306,o),
(299,306,cs)
);
}
);
width = 603;
}
);
unicode = 57;
},
{
glyphname = colon;
layers = (
{
layerId = "E8646C30-3FF3-473D-8246-41AB9B20E065";
shapes = (
{
closed = 1;
nodes = (
(202,-8,o),
(243,33,o),
(243,84,cs),
(243,137,o),
(202,178,o),
(142,178,cs),
(81,178,o),
(40,137,o),
(40,84,cs),
(40,33,o),
(81,-8,o),
(142,-8,cs)
);
},
{
closed = 1;
nodes = (
(202,322,o),
(243,363,o),
(243,414,cs),
(243,467,o),
(202,508,o),
(142,508,cs),
(81,508,o),
(40,467,o),
(40,414,cs),
(40,363,o),
(81,322,o),
(142,322,cs)
);
}
);
width = 284;
},
{
layerId = "D9A7C259-C59A-4E8E-902E-93D91DDC07B0";
shapes = (
{
closed = 1;
nodes = (
(134,-6,o),
(159,20,o),
(159,54,cs),
(159,87,o),
(134,112,o),
(100,112,cs),
(65,112,o),
(40,87,o),
(40,54,cs),
(40,20,o),
(65,-6,o),
(100,-6,cs)
);
},
{
closed = 1;
nodes = (
(134,390,o),
(159,416,o),
(159,450,cs),
(159,483,o),
(134,508,o),
(100,508,cs),
(65,508,o),
(40,483,o),
(40,450,cs),
(40,416,o),
(65,390,o),
(100,390,cs)
);
}
);
width = 203;
},
{
layerId = "0D412B41-94F2-47FA-B804-36C251FF5B2C";
shapes = (
{
closed = 1;
nodes = (
(107,-5,o),
(126,15,o),
(126,42,cs),
(126,67,o),
(107,86,o),
(83,86,cs),
(59,86,o),
(40,67,o),
(40,42,cs),
(40,15,o),
(59,-5,o),
(83,-5,cs)
);
},
{
closed = 1;
nodes = (
(107,417,o),
(126,437,o),
(126,464,cs),
(126,489,o),
(107,508,o),
(83,508,cs),
(59,508,o),
(40,489,o),
(40,464,cs),
(40,437,o),
(59,417,o),
(83,417,cs)
);
}
);
width = 170;
}
);
unicode = 58;
},
{
glyphname = semicolon;
layers = (
{
layerId = "E8646C30-3FF3-473D-8246-41AB9B20E065";
shapes = (
{
closed = 1;
nodes = (
(225,322,o),
(266,363,o),
(266,414,cs),
(266,467,o),
(225,508,o),
(165,508,cs),
(104,508,o),
(63,467,o),
(63,414,cs),
(63,363,o),
(104,322,o),
(165,322,cs)
);
},
{
closed = 1;
nodes = (
(26,-113,l),
(135,-113,l),
(242,164,l),
(82,164,l)
);
}
);
width = 307;
},
{
layerId = "D9A7C259-C59A-4E8E-902E-93D91DDC07B0";
shapes = (
{
closed = 1;
nodes = (
(158,390,o),
(183,416,o),
(183,450,cs),
(183,483,o),
(158,508,o),
(124,508,cs),
(89,508,o),
(64,483,o),
(64,450,cs),
(64,416,o),
(89,390,o),
(124,390,cs)
);
},
{
closed = 1;
nodes = (
(23,-119,l),
(84,-119,l),
(172,105,l),
(81,105,l)
);
}
);
width = 228;
},
{
layerId = "0D412B41-94F2-47FA-B804-36C251FF5B2C";
shapes = (
{
closed = 1;
nodes = (
(132,417,o),
(151,437,o),
(151,464,cs),
(151,489,o),
(132,508,o),
(108,508,cs),
(84,508,o),
(65,489,o),
(65,464,cs),
(65,437,o),
(84,417,o),
(108,417,cs)
);
},
{
closed = 1;
nodes = (
(22,-121,l),
(63,-121,l),
(144,81,l),
(81,81,l)
);
}
);
width = 196;
}
);
unicode = 59;
},
{
glyphname = less;
layers = (
{
layerId = "E8646C30-3FF3-473D-8246-41AB9B20E065";
shapes = (
{
closed = 1;
nodes = (
(263,129,l),
(478,129,l),
(274,350,l),
(478,571,l),
(263,571,l),
(60,350,l)
);
}
);
width = 542;
},
{
layerId = "D9A7C259-C59A-4E8E-902E-93D91DDC07B0";
shapes = (
{
closed = 1;
nodes = (
(314,136,l),
(426,136,l),
(182,366,l),
(426,597,l),
(314,597,l),
(71,366,l)
);
}
);
width = 501;
},
{
layerId = "0D412B41-94F2-47FA-B804-36C251FF5B2C";
shapes = (
{
closed = 1;
nodes = (
(334,139,l),
(405,139,l),
(145,373,l),
(405,607,l),
(334,607,l),
(76,373,l)
);
}
);
width = 485;
}
);
unicode = 60;
},
{
glyphname = equal;
layers = (
{
layerId = "E8646C30-3FF3-473D-8246-41AB9B20E065";
shapes = (
{
closed = 1;
nodes = (
(54,331,l),
(504,331,l),
(504,482,l),
(54,482,l)
);
},
{
closed = 1;
nodes = (
(54,96,l),
(504,96,l),
(504,247,l),
(54,247,l)
);
}
);
width = 558;
},
{
layerId = "D9A7C259-C59A-4E8E-902E-93D91DDC07B0";
shapes = (
{
closed = 1;
nodes = (
(63,357,l),
(464,357,l),
(464,433,l),
(63,433,l)
);
},
{
closed = 1;
nodes = (
(63,149,l),
(464,149,l),
(464,224,l),
(63,224,l)
);
}
);
width = 527;
},
{
layerId = "0D412B41-94F2-47FA-B804-36C251FF5B2C";
shapes = (
{
closed = 1;
nodes = (
(67,368,l),
(448,368,l),
(448,414,l),
(67,414,l)
);
},
{
closed = 1;
nodes = (
(67,170,l),
(448,170,l),
(448,215,l),
(67,215,l)
);
}
);
width = 514;
}
);
unicode = 61;
},
{
glyphname = greater;
layers = (
{
layerId = "E8646C30-3FF3-473D-8246-41AB9B20E065";
shapes = (
{
closed = 1;
nodes = (
(64,129,l),
(279,129,l),
(482,350,l),
(279,571,l),
(64,571,l),
(268,350,l)
);
}
);
width = 542;
},
{
layerId = "D9A7C259-C59A-4E8E-902E-93D91DDC07B0";
shapes = (
{
closed = 1;
nodes = (
(75,136,l),
(187,136,l),
(430,366,l),
(187,597,l),
(75,597,l),
(319,366,l)
);
}
);
width = 501;
},
{
layerId = "0D412B41-94F2-47FA-B804-36C251FF5B2C";
shapes = (
{
closed = 1;
nodes = (
(80,139,l),
(150,139,l),
(409,373,l),
(150,607,l),
(80,607,l),
(339,373,l)
);
}
);
width = 485;
}
);
unicode = 62;
},
{
glyphname = question;
layers = (
{
layerId = "0D412B41-94F2-47FA-B804-36C251FF5B2C";
shapes = (
{
closed = 1;
nodes = (
(254,166,l),
(254,240,ls),
(254,275,o),
(256,286,o),
(286,299,cs),
(314,311,ls),
(403,349,o),
(462,410,o),
(462,509,cs),
(462,631,o),
(373,712,o),
(247,712,cs),
(126,712,o),
(36,638,o),
(35,517,c),
(88,517,l),
(88,608,o),
(150,664,o),
(247,664,cs),
(344,664,o),
(410,605,o),
(410,509,cs),
(410,436,o),
(376,394,o),
(280,355,cs),
(255,345,ls),
(195,322,o),
(194,300,o),
(194,235,cs),
(194,166,l)
);
},
{
closed = 1;
nodes = (
(248,-5,o),
(267,15,o),
(267,42,cs),
(267,67,o),
(248,86,o),
(224,86,cs),
(200,86,o),
(181,67,o),
(181,42,cs),
(181,15,o),
(200,-5,o),
(224,-5,cs)
);
}
);
width = 500;
},
{
layerId = "D9A7C259-C59A-4E8E-902E-93D91DDC07B0";
shapes = (
{
closed = 1;
nodes = (
(254,187,l),
(254,238,ls),
(254,268,o),
(258,275,o),
(284,287,cs),
(330,309,ls),
(412,347,o),
(469,412,o),
(469,507,cs),
(469,633,o),
(377,712,o),
(247,712,cs),
(115,712,o),
(27,631,o),
(28,511,c),
(113,511,l),
(113,588,o),
(164,637,o),
(247,637,cs),
(328,637,o),
(383,587,o),
(383,507,cs),
(383,434,o),
(337,396,o),
(269,367,cs),
(234,351,l),
(176,327,o),
(172,306,o),
(172,244,cs),
(172,187,l)
);
},
{
closed = 1;
nodes = (
(250,-6,o),
(275,20,o),
(275,54,cs),
(275,87,o),
(250,112,o),
(216,112,cs),
(181,112,o),
(156,87,o),
(156,54,cs),
(156,20,o),
(181,-6,o),
(216,-6,cs)
);
}
);
width = 500;
},
{
layerId = "E8646C30-3FF3-473D-8246-41AB9B20E065";
shapes = (
{
closed = 1;
nodes = (
(253,239,l),
(253,253,l),
(253,269,o),
(263,277,o),
(279,285,cs),
(368,330,ls),
(436,365,o),
(485,417,o),
(485,501,cs),
(485,636,o),
(388,712,o),
(248,712,cs),
(90,712,o),
(7,616,o),
(10,497,c),
(172,497,l),
(172,541,o),
(198,572,o),
(247,572,cs),
(290,572,o),
(318,543,o),
(318,502,cs),
(318,474,o),
(279,440,o),
(243,422,cs),
(182,391,ls),
(130,365,o),
(118,340,o),
(118,285,cs),
(118,239,l)
);
},
{
closed = 1;
nodes = (
(244,-8,o),
(285,33,o),
(285,84,cs),
(285,137,o),
(244,178,o),
(184,178,cs),
(123,178,o),
(82,137,o),
(82,84,cs),
(82,33,o),
(123,-8,o),
(184,-8,cs)
);
}
);
width = 500;
}
);
unicode = 63;
},
{
glyphname = at;
layers = (
{
layerId = "E8646C30-3FF3-473D-8246-41AB9B20E065";
shapes = (
{
closed = 1;
nodes = (
(535,-225,o),
(609,-211,o),
(674,-182,c),
(647,-73,l),
(596,-96,o),
(534,-109,o),
(470,-109,cs),
(299,-109,o),
(202,-15,o),
(202,146,cs),
(202,374,o),
(372,553,o),
(601,553,cs),
(777,553,o),
(877,461,o),
(877,308,cs),
(877,215,o),
(846,105,o),
(778,105,cs),
(739,105,o),
(734,134,o),
(742,181,cs),
(786,432,l),
(648,432,l),
(639,379,l),
(620,418,o),
(582,439,o),
(525,439,cs),
(388,439,o),
(293,306,o),
(293,159,cs),
(293,55,o),
(352,-7,o),
(452,-7,cs),
(523,-7,o),
(583,23,o),
(620,75,c),
(636,24,o),
(682,-5,o),
(754,-5,cs),
(918,-5,o),
(1007,145,o),
(1007,313,cs),
(1007,523,o),
(858,668,o),
(618,668,cs),
(306,668,o),
(73,440,o),
(73,133,cs),
(73,-85,o),
(224,-225,o),
(454,-225,cs)
);
},
{
closed = 1;
nodes = (
(463,116,o),
(441,146,o),
(441,189,cs),
(441,257,o),
(483,317,o),
(543,317,cs),
(588,317,o),
(614,285,o),
(614,240,cs),
(614,172,o),
(565,116,o),
(508,116,cs)
);
}
);
width = 1080;
},
{
layerId = "D9A7C259-C59A-4E8E-902E-93D91DDC07B0";
shapes = (
{
closed = 1;
nodes = (
(503,-201,o),
(568,-188,o),
(629,-163,c),
(615,-104,l),
(564,-127,o),
(506,-138,o),
(448,-138,cs),
(261,-138,o),
(146,-36,o),
(146,144,cs),
(146,386,o),
(323,579,o),
(566,579,cs),
(756,579,o),
(871,475,o),
(871,301,cs),
(871,191,o),
(825,54,o),
(739,54,cs),
(690,54,o),
(677,93,o),
(687,150,cs),
(737,433,l),
(662,433,l),
(650,363,l),
(629,417,o),
(586,445,o),
(519,445,cs),
(377,445,o),
(279,312,o),
(279,164,cs),
(279,60,o),
(337,-6,o),
(440,-6,cs),
(512,-6,o),
(579,29,o),
(619,91,c),
(624,33,o),
(658,-6,o),
(726,-6,cs),
(864,-6,o),
(941,150,o),
(941,305,cs),
(941,504,o),
(800,642,o),
(576,642,cs),
(285,642,o),
(74,421,o),
(74,135,cs),
(74,-70,o),
(218,-201,o),
(433,-201,cs)
);
},
{
closed = 1;
nodes = (
(396,61,o),
(359,107,o),
(359,178,cs),
(359,279,o),
(422,378,o),
(522,378,cs),
(602,378,o),
(638,316,o),
(630,239,cs),
(620,134,o),
(550,61,o),
(466,61,cs)
);
}
);
width = 1016;
},
{
layerId = "0D412B41-94F2-47FA-B804-36C251FF5B2C";
shapes = (
{
closed = 1;
nodes = (
(490,-191,o),
(552,-179,o),
(611,-156,c),
(602,-116,l),
(551,-139,o),
(495,-149,o),
(439,-149,cs),
(246,-149,o),
(124,-44,o),
(124,143,cs),
(124,391,o),
(304,590,o),
(552,590,cs),
(748,590,o),
(868,480,o),
(868,298,cs),
(868,182,o),
(816,34,o),
(723,34,cs),
(670,34,o),
(654,76,o),
(665,137,cs),
(717,434,l),
(668,434,l),
(654,357,l),
(633,417,o),
(588,447,o),
(517,447,cs),
(372,447,o),
(274,314,o),
(274,166,cs),
(274,62,o),
(331,-6,o),
(435,-6,cs),
(507,-6,o),
(577,32,o),
(618,97,c),
(619,36,o),
(648,-6,o),
(715,-6,cs),
(842,-6,o),
(915,152,o),
(915,302,cs),
(915,497,o),
(777,631,o),
(559,631,cs),
(277,631,o),
(75,414,o),
(75,136,cs),
(75,-64,o),
(216,-191,o),
(424,-191,cs)
);
},
{
closed = 1;
nodes = (
(369,39,o),
(326,92,o),
(326,173,cs),
(326,288,o),
(397,402,o),
(514,402,cs),
(607,402,o),
(647,328,o),
(636,238,cs),
(623,119,o),
(544,39,o),
(449,39,cs)
);
}
);
width = 990;
}
);
unicode = 64;
},
{
glyphname = A;
layers = (
{
layerId = "E8646C30-3FF3-473D-8246-41AB9B20E065";
shapes = (
{
closed = 1;
nodes = (
(16,0,l),
(195,0,l),
(244,144,l),
(492,144,l),
(541,0,l),
(722,0,l),
(468,700,l),
(270,700,l)
);
},
{
closed = 1;
nodes = (
(448,276,l),
(289,276,l),
(368,511,l)
);
}
);
width = 738;
},
{
layerId = "D9A7C259-C59A-4E8E-902E-93D91DDC07B0";
shapes = (
{
closed = 1;
nodes = (
(29,0,l),
(122,0,l),
(186,178,l),
(481,178,l),
(545,0,l),
(638,0,l),
(381,700,l),
(287,700,l)
);
},
{
closed = 1;
nodes = (
(456,250,l),
(211,250,l),
(334,590,l)
);
}
);
width = 667;
},
{
layerId = "0D412B41-94F2-47FA-B804-36C251FF5B2C";
shapes = (
{
closed = 1;
nodes = (
(34,0,l),
(93,0,l),
(163,192,l),
(476,192,l),
(547,0,l),
(605,0,l),
(346,700,l),
(294,700,l)
);
},
{
closed = 1;
nodes = (
(459,239,l),
(180,239,l),
(320,621,l)
);
}
);
width = 639;
}
);
leftKerningGroup = A2;
rightKerningGroup = A;
unicode = 65;
},
{
glyphname = B;
layers = (
{
layerId = "E8646C30-3FF3-473D-8246-41AB9B20E065";
shapes = (
{
closed = 1;
nodes = (
(62,0,l),
(389,0,ls),
(538,0,o),
(622,74,o),
(622,191,cs),
(622,271,o),
(570,344,o),
(487,360,c),
(556,380,o),
(606,433,o),
(606,518,cs),
(606,630,o),
(522,700,o),
(378,700,cs),
(62,700,l)
);
},
{
closed = 1;
nodes = (
(233,418,l),
(233,565,l),
(345,565,ls),
(401,565,o),
(432,539,o),
(432,491,cs),
(432,443,o),
(401,418,o),
(345,418,cs)
);
},
{
closed = 1;
nodes = (
(233,138,l),
(233,293,l),
(357,293,ls),
(414,293,o),
(449,265,o),
(449,214,cs),
(449,163,o),
(416,138,o),
(359,138,cs)
);
}
);
width = 659;
},
{
layerId = "D9A7C259-C59A-4E8E-902E-93D91DDC07B0";
shapes = (
{
closed = 1;
nodes = (
(73,0,l),
(331,0,ls),
(478,0,o),
(558,84,o),
(558,191,cs),
(558,277,o),
(497,348,o),
(418,361,c),
(486,381,o),
(542,432,o),
(542,522,cs),
(542,623,o),
(470,700,o),
(323,700,cs),
(73,700,l)
);
},
{
closed = 1;
nodes = (
(162,395,l),
(162,627,l),
(313,627,ls),
(406,627,o),
(452,583,o),
(452,512,cs),
(452,438,o),
(403,395,o),
(316,395,cs)
);
},
{
closed = 1;
nodes = (
(162,73,l),
(162,325,l),
(318,325,ls),
(411,325,o),
(468,276,o),
(468,198,cs),
(468,119,o),
(415,73,o),
(321,73,cs)
);
}
);
width = 605;
},
{
layerId = "0D412B41-94F2-47FA-B804-36C251FF5B2C";
shapes = (
{
closed = 1;
nodes = (
(78,0,l),
(308,0,ls),
(454,0,o),
(532,88,o),
(532,191,cs),
(532,279,o),
(468,349,o),
(391,362,c),
(458,381,o),
(516,431,o),
(516,524,cs),
(516,620,o),
(449,700,o),
(301,700,cs),
(78,700,l)
);
},
{
closed = 1;
nodes = (
(133,386,l),
(133,652,l),
(300,652,ls),
(408,652,o),
(460,600,o),
(460,520,cs),
(460,436,o),
(404,386,o),
(304,386,cs)
);
},
{
closed = 1;
nodes = (
(133,47,l),
(133,338,l),
(303,338,ls),
(410,338,o),
(475,280,o),
(475,191,cs),
(475,102,o),
(414,47,o),
(306,47,cs)
);
}
);
width = 583;
}
);
unicode = 66;
},
{
glyphname = C;
layers = (
{
anchors = (
{
name = bottom;
position = "{388, 2}";
}
);
layerId = "E8646C30-3FF3-473D-8246-41AB9B20E065";
shapes = (
{
closed = 1;
nodes = (
(564,-12,o),
(684,81,o),
(711,233,c),
(523,233,l),
(508,173,o),
(461,143,o),
(386,143,cs),
(275,143,o),
(217,220,o),
(217,348,cs),
(217,477,o),
(275,556,o),
(386,556,cs),
(461,556,o),
(508,521,o),
(523,454,c),
(711,454,l),
(684,619,o),
(565,712,o),
(388,712,cs),
(172,712,o),
(43,561,o),
(43,348,cs),
(43,136,o),
(172,-12,o),
(388,-12,cs)
);
}
);
width = 754;
},
{
anchors = (
{
name = bottom;
position = "{388, 2}";
}
);
layerId = "D9A7C259-C59A-4E8E-902E-93D91DDC07B0";
shapes = (
{
closed = 1;
nodes = (
(543,-12,o),
(645,69,o),
(675,204,c),
(577,204,l),
(557,121,o),
(493,66,o),
(381,66,cs),
(232,66,o),
(138,172,o),
(138,349,cs),
(138,527,o),
(232,634,o),
(381,634,cs),
(493,634,o),
(557,580,o),
(577,492,c),
(675,492,l),
(645,631,o),
(544,712,o),
(382,712,cs),
(175,712,o),
(47,564,o),
(47,349,cs),
(47,135,o),
(175,-12,o),
(382,-12,cs)
);
}
);
width = 722;
},
{
anchors = (
{
name = bottom;
position = "{388, 2}";
}
);
layerId = "0D412B41-94F2-47FA-B804-36C251FF5B2C";
shapes = (
{
closed = 1;
nodes = (
(535,-12,o),
(630,64,o),
(661,193,c),
(599,193,l),
(576,100,o),
(506,35,o),
(379,35,cs),
(215,35,o),
(106,153,o),
(106,350,cs),
(106,547,o),
(215,665,o),
(379,665,cs),
(506,665,o),
(576,603,o),
(599,507,c),
(661,507,l),
(630,636,o),
(535,712,o),
(379,712,cs),
(176,712,o),
(49,565,o),
(49,350,cs),
(49,134,o),
(176,-12,o),
(379,-12,cs)
);
}
);
width = 709;
}
);
leftKerningGroup = C2;
rightKerningGroup = C;
unicode = 67;
},
{
glyphname = D;
layers = (
{
layerId = "E8646C30-3FF3-473D-8246-41AB9B20E065";
shapes = (
{
closed = 1;
nodes = (
(62,0,l),
(325,0,ls),
(569,0,o),
(683,143,o),
(683,351,cs),
(683,558,o),
(569,700,o),
(325,700,cs),
(62,700,l)
);
},
{
closed = 1;
nodes = (
(233,148,l),
(233,554,l),
(314,554,ls),
(463,554,o),
(509,478,o),
(509,351,cs),
(509,222,o),
(463,148,o),
(314,148,cs)
);
}
);
width = 726;
},
{
layerId = "D9A7C259-C59A-4E8E-902E-93D91DDC07B0";
shapes = (
{
closed = 1;
nodes = (
(73,0,l),
(291,0,ls),
(537,0,o),
(650,133,o),
(650,349,cs),
(650,567,o),
(537,700,o),
(291,700,cs),
(73,700,l)
);
},
{
closed = 1;
nodes = (
(162,74,l),
(162,626,l),
(288,626,ls),
(489,626,o),
(560,521,o),
(560,349,cs),
(560,178,o),
(489,74,o),
(288,74,cs)
);
}
);
width = 697;
},
{
layerId = "0D412B41-94F2-47FA-B804-36C251FF5B2C";
shapes = (
{
closed = 1;
nodes = (
(78,0,l),
(277,0,ls),
(524,0,o),
(637,129,o),
(637,348,cs),
(637,571,o),
(524,700,o),
(277,700,cs),
(78,700,l)
);
},
{
closed = 1;
nodes = (
(133,45,l),
(133,655,l),
(278,655,ls),
(499,655,o),
(580,538,o),
(580,348,cs),
(580,160,o),
(499,45,o),
(278,45,cs)
);
}
);
width = 686;
}
);
rightKerningGroup = D;
unicode = 68;
},
{
glyphname = E;
layers = (
{
layerId = "E8646C30-3FF3-473D-8246-41AB9B20E065";
shapes = (
{
closed = 1;
nodes = (
(62,0,l),
(542,0,l),
(542,137,l),
(233,137,l),
(233,291,l),
(512,291,l),
(512,423,l),
(233,423,l),
(233,563,l),
(542,563,l),
(542,700,l),
(62,700,l)
);
}
);
width = 592;
},
{
layerId = "D9A7C259-C59A-4E8E-902E-93D91DDC07B0";
shapes = (
{
closed = 1;
nodes = (
(73,0,l),
(508,0,l),
(508,72,l),
(162,72,l),
(162,317,l),
(478,317,l),
(478,389,l),
(162,389,l),
(162,628,l),
(508,628,l),
(508,700,l),
(73,700,l)
);
}
);
width = 565;
},
{
layerId = "0D412B41-94F2-47FA-B804-36C251FF5B2C";
shapes = (
{
closed = 1;
nodes = (
(78,0,l),
(495,0,l),
(495,46,l),
(133,46,l),
(133,328,l),
(465,328,l),
(465,375,l),
(133,375,l),
(133,654,l),
(495,654,l),
(495,700,l),
(78,700,l)
);
}
);
width = 554;
}
);
unicode = 69;
},
{
glyphname = F;
layers = (
{
layerId = "E8646C30-3FF3-473D-8246-41AB9B20E065";
shapes = (
{
closed = 1;
nodes = (
(62,0,l),
(233,0,l),
(233,284,l),
(467,284,l),
(467,417,l),
(233,417,l),
(233,563,l),
(539,563,l),
(539,700,l),
(62,700,l)
);
}
);
width = 567;
},
{
layerId = "D9A7C259-C59A-4E8E-902E-93D91DDC07B0";
shapes = (
{
closed = 1;
nodes = (
(73,0,l),
(162,0,l),
(162,315,l),
(450,315,l),
(450,387,l),
(162,387,l),
(162,628,l),
(502,628,l),
(502,700,l),
(73,700,l)
);
}
);
width = 536;
},
{
layerId = "0D412B41-94F2-47FA-B804-36C251FF5B2C";
shapes = (
{
closed = 1;
nodes = (
(78,0,l),
(133,0,l),
(133,328,l),
(443,328,l),
(443,375,l),
(133,375,l),
(133,654,l),
(487,654,l),
(487,700,l),
(78,700,l)
);
}
);
width = 523;
}
);
unicode = 70;
},
{
glyphname = G;
layers = (
{
layerId = "E8646C30-3FF3-473D-8246-41AB9B20E065";
shapes = (
{
closed = 1;
nodes = (
(465,-12,o),
(524,17,o),
(564,70,c),
(577,0,l),
(735,0,l),
(735,396,l),
(413,396,l),
(413,270,l),
(564,270,l),
(551,198,o),
(499,139,o),
(395,139,cs),
(280,139,o),
(217,209,o),
(217,342,cs),
(217,473,o),
(278,554,o),
(402,554,cs),
(470,554,o),
(511,529,o),
(534,482,c),
(723,482,l),
(690,627,o),
(574,712,o),
(403,712,cs),
(177,712,o),
(43,559,o),
(43,343,cs),
(43,130,o),
(174,-12,o),
(374,-12,cs)
);
}
);
width = 788;
},
{
layerId = "D9A7C259-C59A-4E8E-902E-93D91DDC07B0";
shapes = (
{
closed = 1;
nodes = (
(495,-12,o),
(563,33,o),
(612,113,c),
(619,0,l),
(700,0,l),
(700,375,l),
(409,375,l),
(409,306,l),
(610,306,l),
(600,159,o),
(526,67,o),
(379,67,cs),
(235,67,o),
(138,171,o),
(138,348,cs),
(138,526,o),
(235,631,o),
(388,631,cs),
(496,631,o),
(565,579,o),
(585,497,c),
(687,497,l),
(656,633,o),
(546,712,o),
(388,712,cs),
(178,712,o),
(47,563,o),
(47,349,cs),
(47,134,o),
(178,-12,o),
(375,-12,cs)
);
}
);
width = 759;
},
{
layerId = "0D412B41-94F2-47FA-B804-36C251FF5B2C";
shapes = (
{
closed = 1;
nodes = (
(507,-12,o),
(578,39,o),
(631,130,c),
(636,0,l),
(686,0,l),
(686,367,l),
(408,367,l),
(408,321,l),
(628,321,l),
(619,144,o),
(537,38,o),
(372,38,cs),
(217,38,o),
(106,156,o),
(106,351,cs),
(106,547,o),
(218,662,o),
(383,662,cs),
(507,662,o),
(587,599,o),
(606,503,c),
(673,503,l),
(642,635,o),
(535,712,o),
(382,712,cs),
(179,712,o),
(49,564,o),
(49,351,cs),
(49,136,o),
(180,-12,o),
(375,-12,cs)
);
}
);
width = 747;
}
);
leftKerningGroup = C2;
rightKerningGroup = G;
unicode = 71;
},
{
glyphname = H;
layers = (
{
layerId = "E8646C30-3FF3-473D-8246-41AB9B20E065";
shapes = (
{
closed = 1;
nodes = (
(499,0,l),
(670,0,l),
(670,700,l),
(499,700,l),
(499,427,l),
(233,427,l),
(233,700,l),
(62,700,l),
(62,0,l),
(233,0,l),
(233,289,l),
(499,289,l)
);
}
);
width = 732;
},
{
layerId = "D9A7C259-C59A-4E8E-902E-93D91DDC07B0";
shapes = (
{
closed = 1;
nodes = (
(520,0,l),
(609,0,l),
(609,700,l),
(520,700,l),
(520,393,l),
(162,393,l),
(162,700,l),
(73,700,l),
(73,0,l),
(162,0,l),
(162,320,l),
(520,320,l)
);
}
);
width = 682;
},
{
layerId = "0D412B41-94F2-47FA-B804-36C251FF5B2C";
shapes = (
{
closed = 1;
nodes = (
(529,0,l),
(584,0,l),
(584,700,l),
(529,700,l),
(529,379,l),
(133,379,l),
(133,700,l),
(78,700,l),
(78,0,l),
(133,0,l),
(133,333,l),
(529,333,l)
);
}
);
width = 662;
}
);
unicode = 72;
},
{
glyphname = I;
layers = (
{
layerId = "E8646C30-3FF3-473D-8246-41AB9B20E065";
shapes = (
{
closed = 1;
nodes = (
(62,0,l),
(233,0,l),
(233,700,l),
(62,700,l)
);
}
);
width = 295;
},
{
layerId = "D9A7C259-C59A-4E8E-902E-93D91DDC07B0";
shapes = (
{
closed = 1;
nodes = (
(73,0,l),
(162,0,l),
(162,700,l),
(73,700,l)
);
}
);
width = 235;
},
{
layerId = "0D412B41-94F2-47FA-B804-36C251FF5B2C";
shapes = (
{
closed = 1;
nodes = (
(78,0,l),
(133,0,l),
(133,700,l),
(78,700,l)
);
}
);
width = 211;
}
);
unicode = 73;
},
{
glyphname = J;
layers = (
{
layerId = "E8646C30-3FF3-473D-8246-41AB9B20E065";
shapes = (
{
closed = 1;
nodes = (
(410,-12,o),
(502,68,o),
(502,219,cs),
(502,700,l),
(331,700,l),
(331,219,ls),
(331,167,o),
(307,141,o),
(266,141,cs),
(222,141,o),
(196,170,o),
(196,230,c),
(26,230,l),
(26,72,o),
(127,-12,o),
(271,-12,cs)
);
}
);
width = 564;
},
{
layerId = "D9A7C259-C59A-4E8E-902E-93D91DDC07B0";
shapes = (
{
closed = 1;
nodes = (
(355,-12,o),
(429,60,o),
(429,187,cs),
(429,700,l),
(341,700,l),
(341,187,ls),
(341,118,o),
(313,67,o),
(231,67,cs),
(146,67,o),
(117,120,o),
(115,190,c),
(27,190,l),
(27,62,o),
(104,-12,o),
(232,-12,cs)
);
}
);
width = 503;
},
{
layerId = "0D412B41-94F2-47FA-B804-36C251FF5B2C";
shapes = (
{
closed = 1;
nodes = (
(333,-12,o),
(400,57,o),
(400,174,cs),
(400,700,l),
(345,700,l),
(345,174,ls),
(345,98,o),
(316,37,o),
(217,37,cs),
(115,37,o),
(86,100,o),
(83,174,c),
(27,174,l),
(27,58,o),
(95,-12,o),
(216,-12,cs)
);
}
);
width = 478;
}
);
unicode = 74;
},
{
glyphname = K;
layers = (
{
layerId = "E8646C30-3FF3-473D-8246-41AB9B20E065";
shapes = (
{
closed = 1;
nodes = (
(62,0,l),
(233,0,l),
(233,230,l),
(290,292,l),
(469,0,l),
(678,0,l),
(412,424,l),
(668,700,l),
(459,700,l),
(233,451,l),
(233,700,l),
(62,700,l)
);
}
);
width = 697;
},
{
layerId = "D9A7C259-C59A-4E8E-902E-93D91DDC07B0";
shapes = (
{
closed = 1;
nodes = (
(73,0,l),
(162,0,l),
(162,271,l),
(239,353,l),
(458,0,l),
(566,0,l),
(301,420,l),
(562,700,l),
(451,700,l),
(162,386,l),
(162,700,l),
(73,700,l)
);
}
);
width = 588;
},
{
layerId = "0D412B41-94F2-47FA-B804-36C251FF5B2C";
shapes = (
{
closed = 1;
nodes = (
(78,0,l),
(133,0,l),
(133,287,l),
(218,377,l),
(454,0,l),
(521,0,l),
(257,419,l),
(519,700,l),
(448,700,l),
(133,360,l),
(133,700,l),
(78,700,l)
);
}
);
width = 544;
}
);
rightKerningGroup = K;
unicode = 75;
},
{
glyphname = L;
layers = (
{
layerId = "E8646C30-3FF3-473D-8246-41AB9B20E065";
shapes = (
{
closed = 1;
nodes = (
(62,0,l),
(527,0,l),
(527,132,l),
(233,132,l),
(233,700,l),
(62,700,l)
);
}
);
width = 577;
},
{
layerId = "D9A7C259-C59A-4E8E-902E-93D91DDC07B0";
shapes = (
{
closed = 1;
nodes = (
(73,0,l),
(486,0,l),
(486,71,l),
(162,71,l),
(162,700,l),
(73,700,l)
);
}
);
width = 528;
},
{
layerId = "0D412B41-94F2-47FA-B804-36C251FF5B2C";
shapes = (
{
closed = 1;
nodes = (
(78,0,l),
(470,0,l),
(470,46,l),
(133,46,l),
(133,700,l),
(78,700,l)
);
}
);
width = 508;
}
);
rightKerningGroup = L;
unicode = 76;
},
{
glyphname = M;
layers = (
{
layerId = "E8646C30-3FF3-473D-8246-41AB9B20E065";
shapes = (
{
closed = 1;
nodes = (
(62,0,l),
(233,0,l),
(233,417,l),
(391,100,l),
(529,100,l),
(686,416,l),
(686,0,l),
(857,0,l),
(857,700,l),
(652,700,l),
(462,301,l),
(268,700,l),
(62,700,l)
);
}
);
width = 919;
},
{
layerId = "D9A7C259-C59A-4E8E-902E-93D91DDC07B0";
shapes = (
{
closed = 1;
nodes = (
(73,0,l),
(162,0,l),
(162,542,l),
(392,100,l),
(458,100,l),
(688,543,l),
(688,0,l),
(776,0,l),
(776,700,l),
(673,700,l),
(426,217,l),
(176,700,l),
(73,700,l)
);
}
);
width = 850;
},
{
layerId = "0D412B41-94F2-47FA-B804-36C251FF5B2C";
shapes = (
{
closed = 1;
nodes = (
(78,0,l),
(133,0,l),
(133,592,l),
(392,100,l),
(430,100,l),
(689,594,l),
(689,0,l),
(744,0,l),
(744,700,l),
(682,700,l),
(411,183,l),
(139,700,l),
(78,700,l)
);
}
);
width = 823;
}
);
unicode = 77;
},
{
glyphname = N;
layers = (
{
layerId = "E8646C30-3FF3-473D-8246-41AB9B20E065";
shapes = (
{
closed = 1;
nodes = (
(62,0,l),
(233,0,l),
(233,425,l),
(519,0,l),
(690,0,l),
(690,700,l),
(519,700,l),
(519,273,l),
(233,700,l),
(62,700,l)
);
}
);
width = 752;
},
{
layerId = "D9A7C259-C59A-4E8E-902E-93D91DDC07B0";
shapes = (
{
closed = 1;
nodes = (
(73,0,l),
(162,0,l),
(162,555,l),
(530,0,l),
(619,0,l),
(619,700,l),
(530,700,l),
(530,146,l),
(162,700,l),
(73,700,l)
);
}
);
width = 692;
},
{
layerId = "0D412B41-94F2-47FA-B804-36C251FF5B2C";
shapes = (
{
closed = 1;
nodes = (
(78,0,l),
(133,0,l),
(133,607,l),
(535,0,l),
(590,0,l),
(590,700,l),
(535,700,l),
(535,95,l),
(133,700,l),
(78,700,l)
);
}
);
width = 668;
}
);
unicode = 78;
},
{
glyphname = O;
layers = (
{
layerId = "E8646C30-3FF3-473D-8246-41AB9B20E065";
shapes = (
{
closed = 1;
nodes = (
(616,-12,o),
(765,137,o),
(765,350,cs),
(765,563,o),
(616,712,o),
(399,712,cs),
(182,712,o),
(33,563,o),
(33,350,cs),
(33,137,o),
(182,-12,o),
(399,-12,cs)
);
},
{
closed = 1;
nodes = (
(292,143,o),
(227,222,o),
(227,350,cs),
(227,478,o),
(292,557,o),
(399,557,cs),
(506,557,o),
(571,478,o),
(571,350,cs),
(571,222,o),
(506,143,o),
(399,143,cs)
);
}
);
width = 798;
},
{
layerId = "D9A7C259-C59A-4E8E-902E-93D91DDC07B0";
shapes = (
{
closed = 1;
nodes = (
(601,-12,o),
(742,136,o),
(742,350,cs),
(742,563,o),
(601,712,o),
(393,712,cs),
(184,712,o),
(43,563,o),
(43,350,cs),
(43,136,o),
(184,-12,o),
(393,-12,cs)
);
},
{
closed = 1;
nodes = (
(243,66,o),
(142,173,o),
(142,350,cs),
(142,527,o),
(243,633,o),
(393,633,cs),
(544,633,o),
(643,527,o),
(643,350,cs),
(643,173,o),
(544,66,o),
(393,66,cs)
);
}
);
width = 785;
},
{
layerId = "0D412B41-94F2-47FA-B804-36C251FF5B2C";
shapes = (
{
closed = 1;
nodes = (
(595,-12,o),
(731,135,o),
(731,350,cs),
(731,563,o),
(595,712,o),
(390,712,cs),
(185,712,o),
(49,563,o),
(49,350,cs),
(49,135,o),
(185,-12,o),
(390,-12,cs)
);
},
{
closed = 1;
nodes = (
(223,35,o),
(106,153,o),
(106,350,cs),
(106,546,o),
(223,664,o),
(390,664,cs),
(559,664,o),
(674,546,o),
(674,350,cs),
(674,153,o),
(559,35,o),
(390,35,cs)
);
}
);
width = 780;
}
);
leftKerningGroup = C2;
rightKerningGroup = D;
unicode = 79;
},
{
glyphname = P;
layers = (
{
layerId = "E8646C30-3FF3-473D-8246-41AB9B20E065";
shapes = (
{
closed = 1;
nodes = (
(62,0,l),
(233,0,l),
(233,250,l),
(349,250,ls),
(529,250,o),
(607,358,o),
(607,474,cs),
(607,603,o),
(521,700,o),
(349,700,cs),
(62,700,l)
);
},
{
closed = 1;
nodes = (
(233,386,l),
(233,562,l),
(336,562,ls),
(404,562,o),
(433,529,o),
(433,474,cs),
(433,419,o),
(404,386,o),
(336,386,cs)
);
}
);
width = 634;
},
{
layerId = "D9A7C259-C59A-4E8E-902E-93D91DDC07B0";
shapes = (
{
closed = 1;
nodes = (
(73,0,l),
(162,0,l),
(162,290,l),
(306,290,ls),
(474,290,o),
(546,381,o),
(546,495,cs),
(546,612,o),
(470,700,o),
(306,700,cs),
(73,700,l)
);
},
{
closed = 1;
nodes = (
(162,364,l),
(162,627,l),
(304,627,ls),
(414,627,o),
(456,578,o),
(456,495,cs),
(456,414,o),
(413,364,o),
(304,364,cs)
);
}
);
width = 581;
},
{
layerId = "0D412B41-94F2-47FA-B804-36C251FF5B2C";
shapes = (
{
closed = 1;
nodes = (
(78,0,l),
(133,0,l),
(133,306,l),
(289,306,ls),
(452,306,o),
(522,390,o),
(522,503,cs),
(522,616,o),
(449,700,o),
(289,700,cs),
(78,700,l)
);
},
{
closed = 1;
nodes = (
(133,355,l),
(133,653,l),
(291,653,ls),
(418,653,o),
(465,598,o),
(465,503,cs),
(465,412,o),
(416,355,o),
(291,355,cs)
);
}
);
width = 560;
}
);
unicode = 80;
},
{
glyphname = Q;
layers = (
{
layerId = "E8646C30-3FF3-473D-8246-41AB9B20E065";
shapes = (
{
closed = 1;
nodes = (
(476,384,l),
(369,271,l),
(662,-13,l),
(771,99,l)
);
},
{
closed = 1;
nodes = (
(616,-12,o),
(765,137,o),
(765,350,cs),
(765,563,o),
(616,712,o),
(399,712,cs),
(182,712,o),
(33,563,o),
(33,350,cs),
(33,137,o),
(182,-12,o),
(399,-12,cs)
);
},
{
closed = 1;
nodes = (
(292,143,o),
(227,222,o),
(227,350,cs),
(227,478,o),
(292,557,o),
(399,557,cs),
(506,557,o),
(571,478,o),
(571,350,cs),
(571,222,o),
(506,143,o),
(399,143,cs)
);
}
);
width = 781;
},
{
layerId = "D9A7C259-C59A-4E8E-902E-93D91DDC07B0";
shapes = (
{
closed = 1;
nodes = (
(494,267,l),
(443,215,l),
(677,-11,l),
(727,41,l)
);
},
{
closed = 1;
nodes = (
(601,-12,o),
(742,136,o),
(742,350,cs),
(742,563,o),
(601,712,o),
(393,712,cs),
(184,712,o),
(43,563,o),
(43,350,cs),
(43,136,o),
(184,-12,o),
(393,-12,cs)
);
},
{
closed = 1;
nodes = (
(243,66,o),
(142,173,o),
(142,350,cs),
(142,527,o),
(243,633,o),
(393,633,cs),
(544,633,o),
(643,527,o),
(643,350,cs),
(643,173,o),
(544,66,o),
(393,66,cs)
);
}
);
width = 773;
},
{
layerId = "0D412B41-94F2-47FA-B804-36C251FF5B2C";
shapes = (
{
closed = 1;
nodes = (
(493,229,l),
(459,196,l),
(673,-10,l),
(706,23,l)
);
},
{
closed = 1;
nodes = (
(595,-12,o),
(731,135,o),
(731,350,cs),
(731,563,o),
(595,712,o),
(390,712,cs),
(185,712,o),
(49,563,o),
(49,350,cs),
(49,135,o),
(185,-12,o),
(390,-12,cs)
);
},
{
closed = 1;
nodes = (
(223,35,o),
(106,153,o),
(106,350,cs),
(106,546,o),
(223,664,o),
(390,664,cs),
(559,664,o),
(674,546,o),
(674,350,cs),
(674,153,o),
(559,35,o),
(390,35,cs)
);
}
);
width = 770;
}
);
leftKerningGroup = C2;
unicode = 81;
},
{
glyphname = R;
layers = (
{
layerId = "E8646C30-3FF3-473D-8246-41AB9B20E065";
shapes = (
{
closed = 1;
nodes = (
(62,0,l),
(233,0,l),
(233,263,l),
(301,263,l),
(420,0,l),
(613,0,l),
(475,285,l),
(566,321,o),
(607,398,o),
(607,479,cs),
(607,601,o),
(521,700,o),
(349,700,cs),
(62,700,l)
);
},
{
closed = 1;
nodes = (
(233,384,l),
(233,558,l),
(339,558,ls),
(403,558,o),
(433,524,o),
(433,472,cs),
(433,416,o),
(403,384,o),
(339,384,cs)
);
}
);
width = 652;
},
{
layerId = "D9A7C259-C59A-4E8E-902E-93D91DDC07B0";
shapes = (
{
closed = 1;
nodes = (
(73,0,l),
(162,0,l),
(162,288,l),
(302,288,l),
(443,0,l),
(547,0,l),
(394,301,l),
(495,330,o),
(539,405,o),
(539,494,cs),
(539,611,o),
(466,700,o),
(303,700,cs),
(73,700,l)
);
},
{
closed = 1;
nodes = (
(162,356,l),
(162,626,l),
(295,626,ls),
(404,626,o),
(449,574,o),
(449,493,cs),
(449,412,o),
(402,356,o),
(296,356,cs)
);
}
);
width = 596;
},
{
layerId = "0D412B41-94F2-47FA-B804-36C251FF5B2C";
shapes = (
{
closed = 1;
nodes = (
(78,0,l),
(133,0,l),
(133,298,l),
(302,298,l),
(452,0,l),
(520,0,l),
(362,307,l),
(466,334,o),
(512,408,o),
(512,500,cs),
(512,615,o),
(444,700,o),
(284,700,cs),
(78,700,l)
);
},
{
closed = 1;
nodes = (
(133,345,l),
(133,653,l),
(278,653,ls),
(405,653,o),
(455,594,o),
(455,501,cs),
(455,410,o),
(401,345,o),
(279,345,cs)
);
}
);
width = 573;
}
);
rightKerningGroup = R;
unicode = 82;
},
{
glyphname = S;
layers = (
{
layerId = "E8646C30-3FF3-473D-8246-41AB9B20E065";
shapes = (
{
closed = 1;
nodes = (
(480,-12,o),
(572,86,o),
(572,204,cs),
(572,336,o),
(475,383,o),
(368,418,cs),
(293,442,o),
(233,463,o),
(233,515,cs),
(233,552,o),
(264,570,o),
(301,569,cs),
(340,568,o),
(371,542,o),
(374,502,c),
(559,502,l),
(551,635,o),
(450,712,o),
(302,712,cs),
(161,712,o),
(52,638,o),
(52,505,cs),
(52,398,o),
(117,341,o),
(225,305,cs),
(312,276,o),
(389,253,o),
(389,192,cs),
(389,149,o),
(356,131,o),
(315,131,cs),
(264,131,o),
(228,161,o),
(224,212,c),
(42,212,l),
(47,63,o),
(165,-12,o),
(316,-12,cs)
);
}
);
width = 616;
},
{
layerId = "D9A7C259-C59A-4E8E-902E-93D91DDC07B0";
shapes = (
{
closed = 1;
nodes = (
(457,-12,o),
(538,82,o),
(538,187,cs),
(538,304,o),
(461,352,o),
(364,386,cs),
(254,425,o),
(163,439,o),
(163,529,cs),
(163,593,o),
(211,634,o),
(287,634,cs),
(369,634,o),
(417,582,o),
(418,516,c),
(515,516,l),
(513,636,o),
(422,712,o),
(290,712,cs),
(153,712,o),
(66,634,o),
(67,522,cs),
(67,430,o),
(121,378,o),
(226,343,cs),
(334,305,o),
(441,287,o),
(441,181,cs),
(441,114,o),
(390,65,o),
(299,65,cs),
(195,65,o),
(142,130,o),
(141,211,c),
(44,211,l),
(46,76,o),
(144,-12,o),
(300,-12,cs)
);
}
);
width = 583;
},
{
layerId = "0D412B41-94F2-47FA-B804-36C251FF5B2C";
shapes = (
{
closed = 1;
nodes = (
(448,-12,o),
(524,80,o),
(524,180,cs),
(524,291,o),
(456,339,o),
(363,373,cs),
(239,418,o),
(135,430,o),
(135,535,cs),
(135,609,o),
(190,660,o),
(282,660,c),
(381,660,o),
(435,598,o),
(435,522,c),
(498,522,l),
(498,637,o),
(411,712,o),
(285,712,cs),
(150,712,o),
(72,633,o),
(73,529,cs),
(73,443,o),
(123,393,o),
(226,358,cs),
(343,316,o),
(462,301,o),
(462,177,cs),
(462,100,o),
(403,39,o),
(293,39,cs),
(167,39,o),
(108,118,o),
(108,210,c),
(45,210,l),
(45,81,o),
(135,-12,o),
(293,-12,cs)
);
}
);
width = 570;
}
);
leftKerningGroup = S2;
rightKerningGroup = S;
unicode = 83;
},
{
glyphname = T;
layers = (
{
layerId = "E8646C30-3FF3-473D-8246-41AB9B20E065";
shapes = (
{
closed = 1;
nodes = (
(225,0,l),
(396,0,l),
(396,563,l),
(597,563,l),
(597,700,l),
(24,700,l),
(24,563,l),
(225,563,l)
);
}
);
width = 621;
},
{
layerId = "D9A7C259-C59A-4E8E-902E-93D91DDC07B0";
shapes = (
{
closed = 1;
nodes = (
(237,0,l),
(325,0,l),
(325,628,l),
(534,628,l),
(534,700,l),
(29,700,l),
(29,628,l),
(237,628,l)
);
}
);
width = 562;
},
{
layerId = "0D412B41-94F2-47FA-B804-36C251FF5B2C";
shapes = (
{
closed = 1;
nodes = (
(242,0,l),
(297,0,l),
(297,654,l),
(509,654,l),
(509,700,l),
(31,700,l),
(31,654,l),
(242,654,l)
);
}
);
width = 539;
}
);
leftKerningGroup = T2;
rightKerningGroup = T;
unicode = 84;
},
{
glyphname = U;
layers = (
{
layerId = "E8646C30-3FF3-473D-8246-41AB9B20E065";
shapes = (
{
closed = 1;
nodes = (
(511,-12,o),
(647,83,o),
(647,278,cs),
(647,700,l),
(476,700,l),
(476,277,ls),
(476,193,o),
(433,146,o),
(352,146,cs),
(271,146,o),
(230,193,o),
(230,277,cs),
(230,700,l),
(59,700,l),
(59,278,ls),
(59,83,o),
(186,-12,o),
(349,-12,cs)
);
}
);
width = 705;
},
{
layerId = "D9A7C259-C59A-4E8E-902E-93D91DDC07B0";
shapes = (
{
closed = 1;
nodes = (
(475,-12,o),
(591,72,o),
(591,259,cs),
(591,700,l),
(502,700,l),
(502,258,ls),
(502,124,o),
(434,67,o),
(330,67,cs),
(226,67,o),
(156,124,o),
(156,258,cs),
(156,700,l),
(68,700,l),
(68,259,ls),
(68,72,o),
(182,-12,o),
(328,-12,cs)
);
}
);
width = 659;
},
{
layerId = "0D412B41-94F2-47FA-B804-36C251FF5B2C";
shapes = (
{
closed = 1;
nodes = (
(460,-12,o),
(568,68,o),
(568,252,cs),
(568,700,l),
(513,700,l),
(513,251,ls),
(513,96,o),
(434,36,o),
(321,36,cs),
(208,36,o),
(127,96,o),
(127,251,cs),
(127,700,l),
(72,700,l),
(72,252,ls),
(72,68,o),
(180,-12,o),
(320,-12,cs)
);
}
);
width = 640;
}
);
leftKerningGroup = U2;
rightKerningGroup = U;
unicode = 85;
},
{
glyphname = V;
layers = (
{
layerId = "E8646C30-3FF3-473D-8246-41AB9B20E065";
shapes = (
{
closed = 1;
nodes = (
(258,0,l),
(472,0,l),
(721,700,l),
(540,700,l),
(365,172,l),
(191,700,l),
(9,700,l)
);
}
);
width = 730;
},
{
layerId = "D9A7C259-C59A-4E8E-902E-93D91DDC07B0";
shapes = (
{
closed = 1;
nodes = (
(284,0,l),
(388,0,l),
(650,700,l),
(556,700,l),
(336,93,l),
(117,700,l),
(21,700,l)
);
}
);
width = 671;
},
{
layerId = "0D412B41-94F2-47FA-B804-36C251FF5B2C";
shapes = (
{
closed = 1;
nodes = (
(294,0,l),
(354,0,l),
(621,700,l),
(563,700,l),
(324,62,l),
(87,700,l),
(26,700,l)
);
}
);
width = 647;
}
);
unicode = 86;
},
{
glyphname = W;
layers = (
{
layerId = "E8646C30-3FF3-473D-8246-41AB9B20E065";
shapes = (
{
closed = 1;
nodes = (
(202,0,l),
(409,0,l),
(525,461,l),
(637,0,l),
(844,0,l),
(1027,700,l),
(843,700,l),
(741,191,l),
(621,700,l),
(433,700,l),
(308,190,l),
(207,700,l),
(24,700,l)
);
}
);
width = 1051;
},
{
layerId = "D9A7C259-C59A-4E8E-902E-93D91DDC07B0";
shapes = (
{
closed = 1;
nodes = (
(217,-1,l),
(316,0,l),
(485,572,l),
(649,0,l),
(750,0,l),
(946,700,l),
(852,700,l),
(701,106,l),
(537,700,l),
(439,700,l),
(269,106,l),
(120,700,l),
(25,700,l)
);
}
);
width = 972;
},
{
layerId = "0D412B41-94F2-47FA-B804-36C251FF5B2C";
shapes = (
{
closed = 1;
nodes = (
(223,-1,l),
(279,0,l),
(469,616,l),
(654,0,l),
(713,0,l),
(913,700,l),
(855,700,l),
(685,72,l),
(503,700,l),
(441,700,l),
(254,73,l),
(85,700,l),
(26,700,l)
);
}
);
width = 940;
}
);
leftKerningGroup = W2;
rightKerningGroup = W;
unicode = 87;
},
{
glyphname = X;
layers = (
{
layerId = "E8646C30-3FF3-473D-8246-41AB9B20E065";
shapes = (
{
closed = 1;
nodes = (
(492,0,l),
(691,0,l),
(459,348,l),
(682,700,l),
(488,700,l),
(364,489,l),
(223,700,l),
(24,700,l),
(254,356,l),
(29,0,l),
(223,0,l),
(349,215,l)
);
}
);
width = 715;
},
{
layerId = "D9A7C259-C59A-4E8E-902E-93D91DDC07B0";
shapes = (
{
closed = 1;
nodes = (
(470,0,l),
(570,0,l),
(354,349,l),
(569,700,l),
(470,700,l),
(307,423,l),
(137,700,l),
(37,700,l),
(252,352,l),
(38,0,l),
(137,0,l),
(299,279,l)
);
}
);
width = 608;
},
{
layerId = "0D412B41-94F2-47FA-B804-36C251FF5B2C";
shapes = (
{
closed = 1;
nodes = (
(461,0,l),
(521,0,l),
(312,349,l),
(524,700,l),
(463,700,l),
(284,396,l),
(102,700,l),
(42,700,l),
(251,351,l),
(42,0,l),
(102,0,l),
(279,305,l)
);
}
);
width = 565;
}
);
unicode = 88;
},
{
glyphname = Y;
layers = (
{
layerId = "E8646C30-3FF3-473D-8246-41AB9B20E065";
shapes = (
{
closed = 1;
nodes = (
(250,0,l),
(421,0,l),
(421,232,l),
(663,700,l),
(471,700,l),
(337,408,l),
(202,700,l),
(8,700,l),
(250,232,l)
);
}
);
width = 671;
},
{
layerId = "D9A7C259-C59A-4E8E-902E-93D91DDC07B0";
shapes = (
{
closed = 1;
nodes = (
(249,0,l),
(337,0,l),
(337,265,l),
(564,700,l),
(465,700,l),
(293,349,l),
(119,700,l),
(19,700,l),
(249,265,l)
);
}
);
width = 583;
},
{
layerId = "0D412B41-94F2-47FA-B804-36C251FF5B2C";
shapes = (
{
closed = 1;
nodes = (
(248,0,l),
(303,0,l),
(303,278,l),
(524,700,l),
(463,700,l),
(275,325,l),
(86,700,l),
(24,700,l),
(248,278,l)
);
}
);
width = 548;
}
);
leftKerningGroup = Y2;
rightKerningGroup = Y;
unicode = 89;
},
{
glyphname = Z;
layers = (
{
layerId = "E8646C30-3FF3-473D-8246-41AB9B20E065";
shapes = (
{
closed = 1;
nodes = (
(50,0,l),
(546,0,l),
(546,140,l),
(244,140,l),
(546,570,l),
(546,700,l),
(50,700,l),
(50,560,l),
(350,560,l),
(50,130,l)
);
}
);
width = 596;
},
{
layerId = "D9A7C259-C59A-4E8E-902E-93D91DDC07B0";
shapes = (
{
closed = 1;
nodes = (
(44,0,l),
(494,0,l),
(494,76,l),
(146,76,l),
(490,631,l),
(490,700,l),
(49,700,l),
(49,624,l),
(387,624,l),
(44,69,l)
);
}
);
width = 537;
},
{
layerId = "0D412B41-94F2-47FA-B804-36C251FF5B2C";
shapes = (
{
closed = 1;
nodes = (
(42,0,l),
(473,0,l),
(473,50,l),
(107,50,l),
(467,655,l),
(467,700,l),
(49,700,l),
(49,650,l),
(402,650,l),
(42,45,l)
);
}
);
width = 514;
}
);
rightKerningGroup = Z;
unicode = 90;
},
{
glyphname = bracketleft;
layers = (
{
layerId = "E8646C30-3FF3-473D-8246-41AB9B20E065";
shapes = (
{
closed = 1;
nodes = (
(62,-189,l),
(62,811,l),
(362,811,l),
(362,673,l),
(222,673,l),
(222,-50,l),
(362,-50,l),
(362,-189,l)
);
}
);
width = 412;
},
{
layerId = "D9A7C259-C59A-4E8E-902E-93D91DDC07B0";
shapes = (
{
closed = 1;
nodes = (
(73,-153,l),
(73,811,l),
(253,811,l),
(253,739,l),
(156,739,l),
(156,-79,l),
(253,-79,l),
(253,-153,l)
);
}
);
width = 312;
},
{
layerId = "0D412B41-94F2-47FA-B804-36C251FF5B2C";
shapes = (
{
closed = 1;
nodes = (
(78,-139,l),
(78,811,l),
(210,811,l),
(210,765,l),
(130,765,l),
(130,-91,l),
(210,-91,l),
(210,-139,l)
);
}
);
width = 272;
}
);
unicode = 91;
},
{
glyphname = backslash;
layers = (
{
layerId = "E8646C30-3FF3-473D-8246-41AB9B20E065";
shapes = (
{
closed = 1;
nodes = (
(267,-127,l),
(432,-127,l),
(183,790,l),
(18,790,l)
);
}
);
width = 450;
},
{
layerId = "D9A7C259-C59A-4E8E-902E-93D91DDC07B0";
shapes = (
{
closed = 1;
nodes = (
(279,-97,l),
(366,-97,l),
(115,766,l),
(28,766,l)
);
}
);
width = 394;
},
{
layerId = "0D412B41-94F2-47FA-B804-36C251FF5B2C";
shapes = (
{
closed = 1;
nodes = (
(284,-85,l),
(339,-85,l),
(88,756,l),
(32,756,l)
);
}
);
width = 371;
}
);
unicode = 92;
},
{
glyphname = bracketright;
layers = (
{
layerId = "E8646C30-3FF3-473D-8246-41AB9B20E065";
shapes = (
{
closed = 1;
nodes = (
(350,-189,l),
(350,811,l),
(50,811,l),
(50,673,l),
(190,673,l),
(190,-50,l),
(50,-50,l),
(50,-189,l)
);
}
);
width = 412;
},
{
layerId = "D9A7C259-C59A-4E8E-902E-93D91DDC07B0";
shapes = (
{
closed = 1;
nodes = (
(239,-153,l),
(239,811,l),
(59,811,l),
(59,739,l),
(156,739,l),
(156,-79,l),
(59,-79,l),
(59,-153,l)
);
}
);
width = 312;
},
{
layerId = "0D412B41-94F2-47FA-B804-36C251FF5B2C";
shapes = (
{
closed = 1;
nodes = (
(194,-139,l),
(194,811,l),
(62,811,l),
(62,765,l),
(142,765,l),
(142,-91,l),
(62,-91,l),
(62,-139,l)
);
}
);
width = 272;
}
);
unicode = 93;
},
{
glyphname = asciicircum;
layers = (
{
layerId = "E8646C30-3FF3-473D-8246-41AB9B20E065";
shapes = (
{
closed = 1;
nodes = (
(30,161,l),
(202,161,l),
(355,502,l),
(507,161,l),
(679,161,l),
(438,700,l),
(272,700,l)
);
}
);
width = 709;
},
{
layerId = "D9A7C259-C59A-4E8E-902E-93D91DDC07B0";
shapes = (
{
closed = 1;
nodes = (
(36,177,l),
(126,177,l),
(313,592,l),
(498,177,l),
(589,177,l),
(354,700,l),
(272,700,l)
);
}
);
width = 625;
},
{
layerId = "0D412B41-94F2-47FA-B804-36C251FF5B2C";
shapes = (
{
closed = 1;
nodes = (
(39,184,l),
(96,184,l),
(296,628,l),
(494,184,l),
(553,184,l),
(320,700,l),
(272,700,l)
);
}
);
width = 591;
}
);
unicode = 94;
},
{
glyphname = underscore;
layers = (
{
layerId = "E8646C30-3FF3-473D-8246-41AB9B20E065";
shapes = (
{
closed = 1;
nodes = (
(50,-205,l),
(670,-205,l),
(670,-41,l),
(50,-41,l)
);
}
);
width = 720;
},
{
layerId = "D9A7C259-C59A-4E8E-902E-93D91DDC07B0";
shapes = (
{
closed = 1;
nodes = (
(59,-119,l),
(587,-119,l),
(587,-36,l),
(59,-36,l)
);
}
);
width = 645;
},
{
layerId = "0D412B41-94F2-47FA-B804-36C251FF5B2C";
shapes = (
{
closed = 1;
nodes = (
(62,-84,l),
(554,-84,l),
(554,-34,l),
(62,-34,l)
);
}
);
width = 615;
}
);
unicode = 95;
},
{
glyphname = grave;
layers = (
{
layerId = "E8646C30-3FF3-473D-8246-41AB9B20E065";
shapes = (
{
closed = 1;
nodes = (
(276,654,l),
(70,802,l),
(70,802,l),
(0,701,l),
(218,569,l)
);
}
);
width = 276;
},
{
layerId = "D9A7C259-C59A-4E8E-902E-93D91DDC07B0";
shapes = (
{
closed = 1;
nodes = (
(226,625,l),
(49,754,l),
(49,754,l),
(0,684,l),
(189,569,l)
);
}
);
width = 226;
},
{
layerId = "0D412B41-94F2-47FA-B804-36C251FF5B2C";
shapes = (
{
closed = 1;
nodes = (
(199,602,l),
(32,723,l),
(32,723,l),
(0,678,l),
(177,569,l)
);
}
);
width = 199;
}
);
unicode = 96;
},
{
glyphname = a;
leftMetricsKey = ae;
layers = (
{
anchors = (
{
name = m.uni0328;
position = "{544, 0}";
},
{
name = t.uni0308;
position = "{272, 496}";
}
);
layerId = "0D412B41-94F2-47FA-B804-36C251FF5B2C";
shapes = (
{
closed = 1;
nodes = (
(317,-12,o),
(367,34,o),
(396,90,c),
(404,18,o),
(443,0,o),
(502,0,cs),
(514,0,l),
(514,51,l),
(505,51,ls),
(450,51,o),
(451,77,o),
(451,124,cs),
(451,305,ls),
(451,430,o),
(387,508,o),
(258,508,cs),
(159,508,o),
(62,464,o),
(50,357,c),
(111,357,l),
(123,430,o),
(182,459,o),
(258,459,cs),
(343,459,o),
(396,405,o),
(396,305,cs),
(396,285,l),
(364,296,o),
(311,306,o),
(258,306,cs),
(149,306,o),
(38,263,o),
(38,137,cs),
(38,31,o),
(133,-12,o),
(224,-12,cs)
);
},
{
closed = 1;
nodes = (
(140,38,o),
(94,81,o),
(94,137,cs),
(94,232,o),
(182,254,o),
(260,254,cs),
(311,254,o),
(363,244,o),
(396,235,c),
(396,166,l),
(374,94,o),
(305,38,o),
(225,38,cs)
);
}
);
width = 555;
},
{
anchors = (
{
name = m.uni0328;
position = "{544, 0}";
},
{
name = t.uni0308;
position = "{272, 496}";
}
);
layerId = "D9A7C259-C59A-4E8E-902E-93D91DDC07B0";
shapes = (
{
closed = 1;
nodes = (
(302,-12,o),
(355,29,o),
(386,86,c),
(400,17,o),
(442,0,o),
(506,0,cs),
(526,0,l),
(526,77,l),
(519,77,ls),
(467,77,o),
(468,112,o),
(468,155,cs),
(468,305,ls),
(468,438,o),
(387,508,o),
(257,508,cs),
(154,508,o),
(57,461,o),
(45,351,c),
(134,351,l),
(145,412,o),
(195,435,o),
(257,435,cs),
(331,435,o),
(380,391,o),
(380,305,cs),
(380,284,l),
(350,293,o),
(302,303,o),
(248,303,cs),
(141,303,o),
(35,259,o),
(35,137,cs),
(35,34,o),
(128,-12,o),
(218,-12,cs)
);
},
{
closed = 1;
nodes = (
(163,60,o),
(125,95,o),
(125,142,cs),
(125,216,o),
(193,236,o),
(255,236,cs),
(302,236,o),
(349,228,o),
(380,218,c),
(380,167,l),
(358,104,o),
(300,60,o),
(232,60,cs)
);
}
);
width = 555;
},
{
anchors = (
{
name = m.uni0328;
position = "{544, 0}";
},
{
name = t.uni0308;
position = "{272, 496}";
}
);
layerId = "E8646C30-3FF3-473D-8246-41AB9B20E065";
shapes = (
{
closed = 1;
nodes = (
(265,-12,o),
(324,16,o),
(360,77,c),
(389,13,o),
(440,0,o),
(517,0,cs),
(555,0,l),
(555,142,l),
(553,142,ls),
(508,142,o),
(511,198,o),
(511,231,cs),
(511,305,ls),
(511,457,o),
(386,508,o),
(253,508,cs),
(143,508,o),
(46,452,o),
(33,337,c),
(191,337,l),
(199,368,o),
(226,375,o),
(253,375,cs),
(301,375,o),
(339,357,o),
(339,305,cs),
(339,280,l),
(316,287,o),
(281,296,o),
(222,296,cs),
(122,296,o),
(28,249,o),
(28,137,cs),
(28,40,o),
(117,-12,o),
(204,-12,cs)
);
},
{
closed = 1;
nodes = (
(221,115,o),
(201,130,o),
(201,154,cs),
(201,175,o),
(221,192,o),
(242,192,cs),
(281,192,o),
(314,187,o),
(339,176,c),
(339,169,l),
(317,129,o),
(287,115,o),
(248,115,cs)
);
}
);
width = 555;
}
);
leftKerningGroup = a2;
rightKerningGroup = a;
unicode = 97;
},
{
glyphname = b;
layers = (
{
layerId = "E8646C30-3FF3-473D-8246-41AB9B20E065";
shapes = (
{
closed = 1;
nodes = (
(521,-12,o),
(630,99,o),
(630,249,cs),
(630,398,o),
(521,512,o),
(386,512,cs),
(310,512,o),
(266,480,o),
(235,440,c),
(235,726,l),
(63,726,l),
(63,0,l),
(215,0,l),
(235,53,l),
(270,12,o),
(318,-12,o),
(386,-12,cs)
);
},
{
closed = 1;
nodes = (
(273,138,o),
(227,186,o),
(227,250,cs),
(227,311,o),
(274,362,o),
(341,362,cs),
(406,362,o),
(455,311,o),
(455,249,cs),
(455,187,o),
(406,138,o),
(341,138,cs)
);
}
);
width = 680;
},
{
layerId = "D9A7C259-C59A-4E8E-902E-93D91DDC07B0";
shapes = (
{
closed = 1;
nodes = (
(487,-12,o),
(587,99,o),
(587,249,cs),
(587,399,o),
(487,512,o),
(340,512,cs),
(248,512,o),
(190,467,o),
(158,418,c),
(158,726,l),
(69,726,l),
(69,0,l),
(149,0,l),
(158,82,l),
(193,22,o),
(257,-12,o),
(340,-12,cs)
);
},
{
closed = 1;
nodes = (
(229,65,o),
(160,140,o),
(160,250,cs),
(160,360,o),
(229,435,o),
(329,435,cs),
(427,435,o),
(497,360,o),
(497,250,cs),
(497,141,o),
(427,65,o),
(329,65,cs)
);
}
);
width = 636;
},
{
layerId = "0D412B41-94F2-47FA-B804-36C251FF5B2C";
shapes = (
{
closed = 1;
nodes = (
(474,-12,o),
(570,99,o),
(570,249,cs),
(570,400,o),
(474,512,o),
(322,512,cs),
(223,512,o),
(159,462,o),
(127,409,c),
(127,726,l),
(72,726,l),
(72,0,l),
(123,0,l),
(127,94,l),
(162,26,o),
(232,-12,o),
(321,-12,cs)
);
},
{
closed = 1;
nodes = (
(211,36,o),
(133,122,o),
(133,250,cs),
(133,379,o),
(211,464,o),
(324,464,cs),
(435,464,o),
(514,379,o),
(514,250,cs),
(514,122,o),
(435,36,o),
(324,36,cs)
);
}
);
width = 618;
}
);
rightKerningGroup = b;
unicode = 98;
},
{
glyphname = c;
layers = (
{
anchors = (
{
name = bottom;
position = "{322, 4}";
}
);
layerId = "E8646C30-3FF3-473D-8246-41AB9B20E065";
shapes = (
{
closed = 1;
nodes = (
(458,-12,o),
(556,67,o),
(584,192,c),
(399,192,l),
(388,155,o),
(360,135,o),
(321,135,cs),
(261,135,o),
(226,182,o),
(226,250,cs),
(226,318,o),
(261,365,o),
(321,365,cs),
(360,365,o),
(388,344,o),
(399,308,c),
(584,308,l),
(556,439,o),
(458,512,o),
(322,512,cs),
(160,512,o),
(50,400,o),
(50,250,cs),
(50,99,o),
(160,-12,o),
(322,-12,cs)
);
}
);
width = 634;
},
{
anchors = (
{
name = bottom;
position = "{300, 4}";
}
);
layerId = "D9A7C259-C59A-4E8E-902E-93D91DDC07B0";
shapes = (
{
closed = 1;
nodes = (
(421,-12,o),
(507,58,o),
(529,160,c),
(438,160,l),
(424,98,o),
(369,63,o),
(300,63,cs),
(216,63,o),
(140,128,o),
(140,250,cs),
(140,373,o),
(216,436,o),
(300,436,cs),
(369,436,o),
(424,401,o),
(438,340,c),
(529,340,l),
(507,446,o),
(422,512,o),
(300,512,cs),
(156,512,o),
(49,406,o),
(49,250,cs),
(49,94,o),
(156,-12,o),
(300,-12,cs)
);
}
);
width = 578;
},
{
anchors = (
{
name = bottom;
position = "{290, 4}";
}
);
layerId = "0D412B41-94F2-47FA-B804-36C251FF5B2C";
shapes = (
{
closed = 1;
nodes = (
(406,-12,o),
(488,55,o),
(507,147,c),
(454,147,l),
(438,75,o),
(372,34,o),
(291,34,cs),
(198,34,o),
(106,106,o),
(106,250,cs),
(106,395,o),
(198,465,o),
(291,465,cs),
(372,465,o),
(438,424,o),
(454,353,c),
(507,353,l),
(487,449,o),
(407,512,o),
(291,512,cs),
(154,512,o),
(48,408,o),
(48,250,cs),
(48,92,o),
(154,-12,o),
(291,-12,cs)
);
}
);
width = 555;
}
);
leftKerningGroup = c2;
rightKerningGroup = c;
unicode = 99;
},
{
glyphname = d;
layers = (
{
layerId = "E8646C30-3FF3-473D-8246-41AB9B20E065";
shapes = (
{
closed = 1;
nodes = (
(371,-12,o),
(414,20,o),
(446,60,c),
(466,0,l),
(618,0,l),
(618,726,l),
(446,726,l),
(446,447,l),
(410,488,o),
(363,512,o),
(294,512,cs),
(161,512,o),
(50,401,o),
(50,251,cs),
(50,102,o),
(161,-12,o),
(294,-12,cs)
);
},
{
closed = 1;
nodes = (
(274,138,o),
(226,189,o),
(226,251,cs),
(226,313,o),
(274,362,o),
(340,362,cs),
(407,362,o),
(454,314,o),
(454,250,cs),
(454,189,o),
(406,138,o),
(340,138,cs)
);
}
);
width = 680;
},
{
layerId = "D9A7C259-C59A-4E8E-902E-93D91DDC07B0";
shapes = (
{
closed = 1;
nodes = (
(388,-12,o),
(445,34,o),
(478,82,c),
(487,0,l),
(567,0,l),
(567,726,l),
(478,726,l),
(478,418,l),
(443,478,o),
(379,512,o),
(296,512,cs),
(149,512,o),
(49,401,o),
(49,251,cs),
(49,101,o),
(149,-12,o),
(295,-12,cs)
);
},
{
closed = 1;
nodes = (
(208,65,o),
(139,140,o),
(139,250,cs),
(139,360,o),
(208,435,o),
(307,435,cs),
(407,435,o),
(476,360,o),
(476,250,cs),
(476,140,o),
(407,65,o),
(307,65,cs)
);
}
);
width = 636;
},
{
layerId = "0D412B41-94F2-47FA-B804-36C251FF5B2C";
shapes = (
{
closed = 1;
nodes = (
(395,-12,o),
(458,39,o),
(491,91,c),
(495,0,l),
(546,0,l),
(546,726,l),
(491,726,l),
(491,406,l),
(456,474,o),
(386,512,o),
(297,512,cs),
(144,512,o),
(48,401,o),
(48,251,cs),
(48,100,o),
(144,-12,o),
(296,-12,cs)
);
},
{
closed = 1;
nodes = (
(182,36,o),
(104,121,o),
(104,250,cs),
(104,379,o),
(182,464,o),
(294,464,cs),
(407,464,o),
(485,379,o),
(485,250,cs),
(485,121,o),
(407,36,o),
(294,36,cs)
);
}
);
width = 618;
}
);
leftKerningGroup = c2;
unicode = 100;
},
{
glyphname = e;
layers = (
{
anchors = (
{
name = bottom;
position = "{313, -2}";
},
{
name = ogonek;
position = "{420, 11}";
},
{
name = top;
position = "{314, 511}";
}
);
layerId = "E8646C30-3FF3-473D-8246-41AB9B20E065";
shapes = (
{
closed = 1;
nodes = (
(436,-12,o),
(529,62,o),
(560,158,c),
(390,158,l),
(375,137,o),
(355,121,o),
(315,121,cs),
(248,121,o),
(215,169,o),
(215,229,cs),
(215,259,ls),
(215,349,o),
(258,391,o),
(318,391,cs),
(368,391,o),
(404,357,o),
(407,307,c),
(168,307,l),
(168,214,l),
(571,214,l),
(573,231,o),
(574,249,o),
(574,263,cs),
(574,416,o),
(469,523,o),
(316,523,cs),
(156,523,o),
(52,406,o),
(52,248,cs),
(52,95,o),
(159,-12,o),
(317,-12,cs)
);
}
);
width = 622;
},
{
anchors = (
{
name = bottom;
position = "{289, -1}";
},
{
name = ogonek;
position = "{396, 11}";
},
{
name = top;
position = "{290, 506}";
}
);
layerId = "D9A7C259-C59A-4E8E-902E-93D91DDC07B0";
shapes = (
{
closed = 1;
nodes = (
(410,-12,o),
(488,56,o),
(515,147,c),
(424,147,l),
(403,95,o),
(361,63,o),
(292,63,cs),
(208,63,o),
(138,125,o),
(138,244,cs),
(138,269,ls),
(138,386,o),
(209,443,o),
(293,443,cs),
(377,443,o),
(436,390,o),
(439,294,c),
(114,294,l),
(114,232,l),
(527,232,l),
(528,249,o),
(528,263,o),
(528,276,cs),
(528,409,o),
(443,518,o),
(294,518,cs),
(148,518,o),
(49,412,o),
(49,252,cs),
(49,94,o),
(148,-12,o),
(293,-12,cs)
);
}
);
width = 573;
},
{
anchors = (
{
name = bottom;
position = "{279, -1}";
},
{
name = ogonek;
position = "{387, 11}";
},
{
name = top;
position = "{281, 504}";
}
);
layerId = "0D412B41-94F2-47FA-B804-36C251FF5B2C";
shapes = (
{
closed = 1;
nodes = (
(399,-12,o),
(471,53,o),
(497,143,c),
(437,143,l),
(414,78,o),
(363,40,o),
(283,40,cs),
(192,40,o),
(107,107,o),
(107,250,cs),
(107,273,ls),
(107,401,o),
(190,464,o),
(283,464,cs),
(380,464,o),
(449,403,o),
(452,289,c),
(93,289,l),
(93,239,l),
(509,239,l),
(510,256,o),
(510,268,o),
(510,281,cs),
(510,406,o),
(432,516,o),
(285,516,cs),
(145,516,o),
(48,415,o),
(48,253,cs),
(48,93,o),
(143,-12,o),
(283,-12,cs)
);
}
);
width = 553;
}
);
leftKerningGroup = c2;
rightKerningGroup = e;
unicode = 101;
},
{
glyphname = f;
layers = (
{
layerId = "E8646C30-3FF3-473D-8246-41AB9B20E065";
shapes = (
{
closed = 1;
nodes = (
(81,0,l),
(253,0,l),
(253,357,l),
(346,357,l),
(346,500,l),
(253,500,l),
(253,532,ls),
(253,566,o),
(266,580,o),
(305,580,cs),
(339,580,l),
(339,726,l),
(279,726,ls),
(162,726,o),
(81,676,o),
(81,530,cs),
(81,500,l),
(18,500,l),
(18,357,l),
(81,357,l)
);
}
);
width = 388;
},
{
layerId = "D9A7C259-C59A-4E8E-902E-93D91DDC07B0";
shapes = (
{
closed = 1;
nodes = (
(96,0,l),
(184,0,l),
(184,425,l),
(306,425,l),
(306,500,l),
(184,500,l),
(184,582,ls),
(184,632,o),
(203,650,o),
(254,650,cs),
(292,650,l),
(292,726,l),
(240,726,ls),
(146,726,o),
(96,684,o),
(96,584,cs),
(96,500,l),
(22,500,l),
(22,425,l),
(96,425,l)
);
}
);
width = 339;
},
{
layerId = "0D412B41-94F2-47FA-B804-36C251FF5B2C";
shapes = (
{
closed = 1;
nodes = (
(102,0,l),
(157,0,l),
(157,452,l),
(290,452,l),
(290,500,l),
(157,500,l),
(157,602,ls),
(157,658,o),
(178,678,o),
(234,678,cs),
(273,678,l),
(273,726,l),
(225,726,ls),
(140,726,o),
(102,687,o),
(102,606,cs),
(102,500,l),
(23,500,l),
(23,452,l),
(102,452,l)
);
}
);
width = 319;
}
);
unicode = 102;
},
{
glyphname = g;
layers = (
{
layerId = "E8646C30-3FF3-473D-8246-41AB9B20E065";
shapes = (
{
closed = 1;
nodes = (
(377,-232,o),
(475,-176,o),
(475,-51,cs),
(475,70,o),
(382,111,o),
(259,111,cs),
(184,111,ls),
(164,111,o),
(155,114,o),
(155,130,cs),
(155,144,o),
(162,148,o),
(184,148,cs),
(249,148,ls),
(363,148,o),
(452,219,o),
(452,328,cs),
(452,354,o),
(447,378,o),
(436,399,c),
(509,407,l),
(509,500,l),
(307,500,ls),
(296,500,o),
(286,502,o),
(274,504,cs),
(263,506,o),
(250,508,o),
(234,508,cs),
(131,508,o),
(47,438,o),
(47,328,cs),
(47,282,o),
(62,242,o),
(93,210,c),
(54,184,o),
(34,159,o),
(34,113,cs),
(34,74,o),
(48,47,o),
(71,30,c),
(39,12,o),
(13,-20,o),
(13,-72,cs),
(13,-163,o),
(93,-232,o),
(242,-232,cs)
);
},
{
closed = 1;
nodes = (
(202,-95,o),
(169,-80,o),
(169,-50,cs),
(169,-25,o),
(193,-10,o),
(231,-10,cs),
(257,-10,ls),
(297,-10,o),
(319,-25,o),
(319,-50,cs),
(319,-80,o),
(288,-95,o),
(245,-95,cs)
);
},
{
closed = 1;
nodes = (
(222,268,o),
(185,282,o),
(182,323,c),
(182,362,o),
(212,378,o),
(249,378,cs),
(285,378,o),
(315,362,o),
(315,328,cs),
(315,292,o),
(281,268,o),
(248,268,cs)
);
}
);
width = 534;
},
{
layerId = "D9A7C259-C59A-4E8E-902E-93D91DDC07B0";
shapes = (
{
closed = 1;
nodes = (
(379,-232,o),
(484,-176,o),
(484,-59,cs),
(484,51,o),
(392,90,o),
(281,90,cs),
(174,90,ls),
(148,90,o),
(132,107,o),
(132,123,cs),
(132,140,o),
(150,155,o),
(174,155,cs),
(263,155,ls),
(372,155,o),
(460,218,o),
(460,331,cs),
(460,374,o),
(447,409,o),
(426,437,c),
(513,441,l),
(513,500,l),
(317,500,ls),
(309,500,o),
(299,502,o),
(287,504,cs),
(276,506,o),
(263,508,o),
(247,508,cs),
(148,508,o),
(65,441,o),
(65,331,cs),
(65,278,o),
(84,235,o),
(121,203,c),
(84,186,o),
(57,158,o),
(57,119,cs),
(57,85,o),
(77,58,o),
(104,43,c),
(63,17,o),
(34,-19,o),
(34,-77,cs),
(34,-188,o),
(141,-232,o),
(253,-232,cs)
);
},
{
closed = 1;
nodes = (
(178,-160,o),
(119,-129,o),
(119,-64,cs),
(119,-8,o),
(164,20,o),
(239,20,cs),
(279,20,ls),
(353,20,o),
(398,-8,o),
(398,-64,cs),
(398,-129,o),
(339,-160,o),
(259,-160,cs)
);
},
{
closed = 1;
nodes = (
(193,227,o),
(148,264,o),
(148,331,cs),
(148,398,o),
(192,435,o),
(263,435,cs),
(333,435,o),
(377,398,o),
(377,331,cs),
(377,264,o),
(332,227,o),
(263,227,cs)
);
}
);
width = 545;
},
{
anchors = (
{
name = top;
position = "{266, 504}";
}
);
layerId = "0D412B41-94F2-47FA-B804-36C251FF5B2C";
shapes = (
{
closed = 1;
nodes = (
(377,-232,o),
(483,-176,o),
(483,-61,cs),
(483,47,o),
(391,86,o),
(283,86,cs),
(172,86,ls),
(142,86,o),
(125,107,o),
(125,124,cs),
(125,144,o),
(147,160,o),
(172,160,cs),
(264,160,ls),
(370,160,o),
(458,217,o),
(458,335,cs),
(458,385,o),
(442,425,o),
(415,453,c),
(504,455,l),
(504,500,l),
(312,500,ls),
(304,500,o),
(295,502,o),
(284,504,cs),
(274,506,o),
(262,508,o),
(247,508,cs),
(152,508,o),
(70,444,o),
(70,332,cs),
(70,277,o),
(90,232,o),
(129,200,c),
(92,185,o),
(64,164,o),
(64,126,cs),
(64,90,o),
(89,65,o),
(118,51,c),
(71,20,o),
(40,-18,o),
(40,-80,cs),
(40,-206,o),
(166,-232,o),
(252,-232,cs)
);
},
{
closed = 1;
nodes = (
(170,-184,o),
(95,-142,o),
(95,-68,cs),
(95,0,o),
(157,39,o),
(241,39,cs),
(281,39,ls),
(365,39,o),
(426,0,o),
(426,-67,cs),
(426,-142,o),
(351,-184,o),
(261,-184,cs)
);
},
{
closed = 1;
nodes = (
(181,208,o),
(125,257,o),
(125,333,cs),
(125,410,o),
(183,459,o),
(264,459,cs),
(345,459,o),
(401,410,o),
(401,333,cs),
(401,255,o),
(345,208,o),
(264,208,cs)
);
}
);
width = 536;
}
);
leftKerningGroup = g2;
rightKerningGroup = g;
unicode = 103;
},
{
glyphname = h;
layers = (
{
layerId = "E8646C30-3FF3-473D-8246-41AB9B20E065";
shapes = (
{
closed = 1;
nodes = (
(420,0,l),
(592,0,l),
(592,272,ls),
(592,424,o),
(526,512,o),
(395,512,cs),
(319,512,o),
(267,480,o),
(235,432,c),
(235,726,l),
(63,726,l),
(63,0,l),
(235,0,l),
(235,257,ls),
(235,325,o),
(273,368,o),
(332,368,cs),
(397,368,o),
(420,325,o),
(420,257,cs)
);
}
);
width = 648;
},
{
layerId = "D9A7C259-C59A-4E8E-902E-93D91DDC07B0";
shapes = (
{
closed = 1;
nodes = (
(434,0,l),
(521,0,l),
(521,291,ls),
(521,441,o),
(446,512,o),
(329,512,cs),
(256,512,o),
(192,476,o),
(158,415,c),
(158,726,l),
(69,726,l),
(69,0,l),
(158,0,l),
(158,258,ls),
(158,373,o),
(224,436,o),
(309,436,cs),
(393,436,o),
(434,385,o),
(434,282,cs)
);
}
);
width = 579;
},
{
layerId = "0D412B41-94F2-47FA-B804-36C251FF5B2C";
shapes = (
{
closed = 1;
nodes = (
(439,0,l),
(493,0,l),
(493,298,ls),
(493,448,o),
(414,512,o),
(303,512,cs),
(231,512,o),
(162,475,o),
(127,408,c),
(127,726,l),
(72,726,l),
(72,0,l),
(127,0,l),
(127,259,ls),
(127,392,o),
(204,463,o),
(300,463,cs),
(391,463,o),
(439,409,o),
(439,292,cs)
);
}
);
width = 552;
}
);
rightKerningGroup = h;
unicode = 104;
},
{
glyphname = i;
layers = (
{
layerId = "E8646C30-3FF3-473D-8246-41AB9B20E065";
shapes = (
{
closed = 1;
nodes = (
(211,545,o),
(252,584,o),
(252,635,cs),
(252,688,o),
(211,726,o),
(149,726,cs),
(89,726,o),
(47,688,o),
(47,635,cs),
(47,584,o),
(89,545,o),
(149,545,cs)
);
},
{
closed = 1;
nodes = (
(63,0,l),
(235,0,l),
(235,500,l),
(63,500,l)
);
}
);
width = 297;
},
{
layerId = "D9A7C259-C59A-4E8E-902E-93D91DDC07B0";
shapes = (
{
closed = 1;
nodes = (
(156,608,o),
(183,633,o),
(183,667,cs),
(183,702,o),
(156,726,o),
(122,726,cs),
(88,726,o),
(62,702,o),
(62,667,cs),
(62,633,o),
(88,608,o),
(122,608,cs)
);
},
{
closed = 1;
nodes = (
(78,0,l),
(166,0,l),
(166,500,l),
(78,500,l)
);
}
);
width = 243;
},
{
layerId = "0D412B41-94F2-47FA-B804-36C251FF5B2C";
shapes = (
{
closed = 1;
nodes = (
(134,633,o),
(155,653,o),
(155,680,cs),
(155,708,o),
(134,726,o),
(111,726,cs),
(88,726,o),
(68,708,o),
(68,680,cs),
(68,653,o),
(88,633,o),
(111,633,cs)
);
},
{
closed = 1;
nodes = (
(84,0,l),
(139,0,l),
(139,500,l),
(84,500,l)
);
}
);
width = 222;
}
);
unicode = 105;
},
{
glyphname = j;
layers = (
{
layerId = "E8646C30-3FF3-473D-8246-41AB9B20E065";
shapes = (
{
closed = 1;
nodes = (
(212,545,o),
(252,584,o),
(252,635,cs),
(252,687,o),
(212,726,o),
(149,726,cs),
(89,726,o),
(47,687,o),
(47,635,cs),
(47,584,o),
(89,545,o),
(149,545,cs)
);
},
{
closed = 1;
nodes = (
(-31,-222,l),
(36,-222,ls),
(154,-222,o),
(235,-173,o),
(235,-26,cs),
(235,500,l),
(63,500,l),
(63,-28,ls),
(63,-61,o),
(49,-76,o),
(10,-76,cs),
(-31,-76,l)
);
}
);
width = 296;
},
{
layerId = "D9A7C259-C59A-4E8E-902E-93D91DDC07B0";
shapes = (
{
closed = 1;
nodes = (
(161,608,o),
(186,633,o),
(186,667,cs),
(186,702,o),
(161,726,o),
(126,726,cs),
(93,726,o),
(66,702,o),
(66,667,cs),
(66,633,o),
(93,608,o),
(126,608,cs)
);
},
{
closed = 1;
nodes = (
(-27,-222,l),
(25,-222,ls),
(119,-222,o),
(169,-179,o),
(169,-80,cs),
(169,500,l),
(81,500,l),
(81,-78,ls),
(81,-127,o),
(61,-146,o),
(11,-146,cs),
(-27,-146,l)
);
}
);
width = 247;
},
{
layerId = "0D412B41-94F2-47FA-B804-36C251FF5B2C";
shapes = (
{
closed = 1;
nodes = (
(140,633,o),
(159,653,o),
(159,680,cs),
(159,708,o),
(140,726,o),
(117,726,cs),
(94,726,o),
(73,708,o),
(73,680,cs),
(73,653,o),
(94,633,o),
(117,633,cs)
);
},
{
closed = 1;
nodes = (
(-26,-222,l),
(20,-222,ls),
(105,-222,o),
(143,-182,o),
(143,-102,cs),
(143,500,l),
(88,500,l),
(88,-98,ls),
(88,-154,o),
(66,-174,o),
(11,-174,cs),
(-26,-174,l)
);
}
);
width = 227;
}
);
unicode = 106;
},
{
glyphname = k;
leftMetricsKey = l;
rightMetricsKey = v;
layers = (
{
layerId = "0D412B41-94F2-47FA-B804-36C251FF5B2C";
shapes = (
{
closed = 1;
nodes = (
(127,0,l),
(127,726,l),
(72,726,l),
(72,0,l)
);
},
{
closed = 1;
nodes = (
(459,500,l),
(386,500,l),
(116,261,l),
(114,188,l)
);
},
{
closed = 1;
nodes = (
(480,0,l),
(227,321,l),
(189,279,l),
(406,0,l)
);
}
);
width = 508;
},
{
layerId = "D9A7C259-C59A-4E8E-902E-93D91DDC07B0";
shapes = (
{
closed = 1;
nodes = (
(158,0,l),
(158,726,l),
(69,726,l),
(69,0,l)
);
},
{
closed = 1;
nodes = (
(492,500,l),
(383,500,l),
(122,243,l),
(148,167,l)
);
},
{
closed = 1;
nodes = (
(517,0,l),
(256,323,l),
(199,265,l),
(405,0,l)
);
}
);
width = 540;
},
{
layerId = "E8646C30-3FF3-473D-8246-41AB9B20E065";
shapes = (
{
closed = 1;
nodes = (
(235,0,l),
(235,726,l),
(63,726,l),
(63,0,l)
);
},
{
closed = 1;
nodes = (
(567,496,l),
(370,496,l),
(135,198,l),
(230,115,l)
);
},
{
closed = 1;
nodes = (
(608,0,l),
(326,328,l),
(225,229,l),
(401,0,l)
);
}
);
width = 618;
}
);
rightKerningGroup = k;
unicode = 107;
},
{
glyphname = l;
layers = (
{
layerId = "E8646C30-3FF3-473D-8246-41AB9B20E065";
shapes = (
{
closed = 1;
nodes = (
(63,0,l),
(235,0,l),
(235,726,l),
(63,726,l)
);
}
);
width = 297;
},
{
layerId = "D9A7C259-C59A-4E8E-902E-93D91DDC07B0";
shapes = (
{
closed = 1;
nodes = (
(69,0,l),
(158,0,l),
(158,726,l),
(69,726,l)
);
}
);
width = 227;
},
{
layerId = "0D412B41-94F2-47FA-B804-36C251FF5B2C";
shapes = (
{
closed = 1;
nodes = (
(72,0,l),
(127,0,l),
(127,726,l),
(72,726,l)
);
}
);
width = 199;
}
);
unicode = 108;
},
{
glyphname = m;
layers = (
{
layerId = "E8646C30-3FF3-473D-8246-41AB9B20E065";
shapes = (
{
closed = 1;
nodes = (
(757,0,l),
(928,0,l),
(928,272,ls),
(928,424,o),
(864,512,o),
(721,512,cs),
(645,512,o),
(585,480,o),
(544,431,c),
(511,485,o),
(458,512,o),
(385,512,cs),
(313,512,o),
(260,482,o),
(228,437,c),
(213,500,l),
(63,500,l),
(63,0,l),
(235,0,l),
(235,257,ls),
(235,325,o),
(268,368,o),
(325,368,cs),
(388,368,o),
(410,325,o),
(410,257,cs),
(410,0,l),
(582,0,l),
(582,257,ls),
(582,325,o),
(615,368,o),
(674,368,cs),
(735,368,o),
(757,325,o),
(757,257,cs)
);
}
);
width = 985;
},
{
layerId = "D9A7C259-C59A-4E8E-902E-93D91DDC07B0";
shapes = (
{
closed = 1;
nodes = (
(759,0,l),
(849,0,l),
(849,291,ls),
(849,441,o),
(771,512,o),
(650,512,cs),
(580,512,o),
(514,476,o),
(479,415,c),
(447,481,o),
(389,512,o),
(311,512,cs),
(243,512,o),
(187,481,o),
(155,427,c),
(149,500,l),
(69,500,l),
(69,0,l),
(158,0,l),
(158,258,ls),
(158,373,o),
(217,436,o),
(295,436,cs),
(373,436,o),
(414,385,o),
(414,282,cs),
(414,0,l),
(503,0,l),
(503,258,ls),
(503,373,o),
(561,436,o),
(640,436,cs),
(719,436,o),
(759,385,o),
(759,282,cs)
);
}
);
width = 906;
},
{
layerId = "0D412B41-94F2-47FA-B804-36C251FF5B2C";
shapes = (
{
closed = 1;
nodes = (
(760,0,l),
(817,0,l),
(817,298,ls),
(817,448,o),
(734,512,o),
(622,512,cs),
(554,512,o),
(486,475,o),
(453,408,c),
(422,480,o),
(362,512,o),
(282,512,cs),
(215,512,o),
(158,480,o),
(126,423,c),
(124,500,l),
(72,500,l),
(72,0,l),
(127,0,l),
(127,259,ls),
(127,392,o),
(196,463,o),
(283,463,cs),
(367,463,o),
(416,409,o),
(416,292,cs),
(416,0,l),
(472,0,l),
(472,259,ls),
(472,392,o),
(539,463,o),
(627,463,cs),
(712,463,o),
(760,409,o),
(760,292,cs)
);
}
);
width = 875;
}
);
leftKerningGroup = m;
rightKerningGroup = h;
unicode = 109;
},
{
glyphname = n;
layers = (
{
layerId = "E8646C30-3FF3-473D-8246-41AB9B20E065";
shapes = (
{
closed = 1;
nodes = (
(420,0,l),
(592,0,l),
(592,272,ls),
(592,424,o),
(525,512,o),
(395,512,cs),
(314,512,o),
(258,474,o),
(227,420,c),
(213,500,l),
(63,500,l),
(63,0,l),
(235,0,l),
(235,257,ls),
(235,326,o),
(274,368,o),
(332,368,cs),
(397,368,o),
(420,326,o),
(420,257,cs)
);
}
);
width = 648;
},
{
layerId = "D9A7C259-C59A-4E8E-902E-93D91DDC07B0";
shapes = (
{
closed = 1;
nodes = (
(433,0,l),
(521,0,l),
(521,291,ls),
(521,441,o),
(446,512,o),
(327,512,cs),
(250,512,o),
(187,475,o),
(155,411,c),
(149,500,l),
(69,500,l),
(69,0,l),
(158,0,l),
(158,258,ls),
(158,373,o),
(220,436,o),
(306,436,cs),
(390,436,o),
(433,385,o),
(433,282,cs)
);
}
);
width = 579;
},
{
layerId = "0D412B41-94F2-47FA-B804-36C251FF5B2C";
shapes = (
{
closed = 1;
nodes = (
(438,0,l),
(493,0,l),
(493,298,ls),
(493,448,o),
(414,512,o),
(300,512,cs),
(225,512,o),
(158,475,o),
(126,407,c),
(124,500,l),
(72,500,l),
(72,0,l),
(127,0,l),
(127,259,ls),
(127,392,o),
(199,463,o),
(295,463,cs),
(387,463,o),
(438,409,o),
(438,292,cs)
);
}
);
width = 552;
}
);
leftKerningGroup = m;
rightKerningGroup = h;
unicode = 110;
},
{
glyphname = o;
layers = (
{
layerId = "E8646C30-3FF3-473D-8246-41AB9B20E065";
shapes = (
{
closed = 1;
nodes = (
(461,-12,o),
(575,99,o),
(575,250,cs),
(575,401,o),
(461,512,o),
(313,512,cs),
(164,512,o),
(50,401,o),
(50,250,cs),
(50,99,o),
(164,-12,o),
(313,-12,cs)
);
},
{
closed = 1;
nodes = (
(263,137,o),
(226,174,o),
(226,250,cs),
(226,326,o),
(263,363,o),
(313,363,cs),
(362,363,o),
(399,326,o),
(399,250,cs),
(399,174,o),
(362,137,o),
(313,137,cs)
);
}
);
width = 625;
},
{
layerId = "D9A7C259-C59A-4E8E-902E-93D91DDC07B0";
shapes = (
{
closed = 1;
nodes = (
(440,-12,o),
(550,92,o),
(550,250,cs),
(550,408,o),
(442,512,o),
(300,512,cs),
(158,512,o),
(49,408,o),
(49,250,cs),
(49,92,o),
(156,-12,o),
(299,-12,cs)
);
},
{
closed = 1;
nodes = (
(215,64,o),
(140,127,o),
(140,250,cs),
(140,373,o),
(217,436,o),
(300,436,cs),
(383,436,o),
(459,373,o),
(459,250,cs),
(459,127,o),
(383,64,o),
(299,64,cs)
);
}
);
width = 599;
},
{
layerId = "0D412B41-94F2-47FA-B804-36C251FF5B2C";
shapes = (
{
closed = 1;
nodes = (
(431,-12,o),
(540,89,o),
(540,250,cs),
(540,411,o),
(435,512,o),
(295,512,cs),
(156,512,o),
(48,411,o),
(48,250,cs),
(48,89,o),
(153,-12,o),
(293,-12,cs)
);
},
{
closed = 1;
nodes = (
(196,35,o),
(106,108,o),
(106,250,cs),
(106,392,o),
(198,465,o),
(295,465,cs),
(392,465,o),
(483,392,o),
(483,250,cs),
(483,108,o),
(391,35,o),
(293,35,cs)
);
}
);
width = 588;
}
);
leftKerningGroup = c2;
rightKerningGroup = b;
unicode = 111;
},
{
glyphname = p;
layers = (
{
layerId = "E8646C30-3FF3-473D-8246-41AB9B20E065";
shapes = (
{
closed = 1;
nodes = (
(63,-222,l),
(235,-222,l),
(235,53,l),
(270,12,o),
(318,-12,o),
(386,-12,cs),
(521,-12,o),
(630,99,o),
(630,249,cs),
(630,398,o),
(521,512,o),
(386,512,cs),
(310,512,o),
(266,480,o),
(235,440,c),
(215,500,l),
(63,500,l)
);
},
{
closed = 1;
nodes = (
(273,138,o),
(227,186,o),
(227,250,cs),
(227,311,o),
(274,362,o),
(341,362,cs),
(406,362,o),
(455,311,o),
(455,249,cs),
(455,187,o),
(406,138,o),
(341,138,cs)
);
}
);
width = 680;
},
{
layerId = "D9A7C259-C59A-4E8E-902E-93D91DDC07B0";
shapes = (
{
closed = 1;
nodes = (
(69,-222,l),
(158,-222,l),
(158,82,l),
(193,22,o),
(257,-12,o),
(340,-12,cs),
(487,-12,o),
(587,99,o),
(587,249,cs),
(587,399,o),
(487,512,o),
(340,512,cs),
(248,512,o),
(190,467,o),
(158,418,c),
(149,500,l),
(69,500,l)
);
},
{
closed = 1;
nodes = (
(229,65,o),
(160,140,o),
(160,250,cs),
(160,360,o),
(229,435,o),
(329,435,cs),
(427,435,o),
(497,360,o),
(497,250,cs),
(497,141,o),
(427,65,o),
(329,65,cs)
);
}
);
width = 636;
},
{
layerId = "0D412B41-94F2-47FA-B804-36C251FF5B2C";
shapes = (
{
closed = 1;
nodes = (
(72,-222,l),
(127,-222,l),
(127,94,l),
(162,26,o),
(232,-12,o),
(321,-12,cs),
(474,-12,o),
(570,99,o),
(570,249,cs),
(570,400,o),
(474,512,o),
(322,512,cs),
(223,512,o),
(159,462,o),
(127,409,c),
(123,500,l),
(72,500,l)
);
},
{
closed = 1;
nodes = (
(211,36,o),
(133,122,o),
(133,250,cs),
(133,379,o),
(211,464,o),
(324,464,cs),
(435,464,o),
(514,379,o),
(514,250,cs),
(514,122,o),
(435,36,o),
(324,36,cs)
);
}
);
width = 618;
}
);
rightKerningGroup = b;
unicode = 112;
},
{
glyphname = q;
layers = (
{
layerId = "E8646C30-3FF3-473D-8246-41AB9B20E065";
shapes = (
{
closed = 1;
nodes = (
(446,-222,l),
(618,-222,l),
(618,500,l),
(466,500,l),
(446,447,l),
(410,488,o),
(363,512,o),
(294,512,cs),
(161,512,o),
(50,401,o),
(50,251,cs),
(50,102,o),
(161,-12,o),
(294,-12,cs),
(371,-12,o),
(414,20,o),
(446,60,c)
);
},
{
closed = 1;
nodes = (
(274,138,o),
(226,189,o),
(226,251,cs),
(226,313,o),
(274,362,o),
(340,362,cs),
(407,362,o),
(454,314,o),
(454,250,cs),
(454,189,o),
(406,138,o),
(340,138,cs)
);
}
);
width = 680;
},
{
layerId = "D9A7C259-C59A-4E8E-902E-93D91DDC07B0";
shapes = (
{
closed = 1;
nodes = (
(478,-222,l),
(567,-222,l),
(567,500,l),
(487,500,l),
(478,418,l),
(443,478,o),
(379,512,o),
(296,512,cs),
(149,512,o),
(49,401,o),
(49,251,cs),
(49,101,o),
(149,-12,o),
(295,-12,cs),
(388,-12,o),
(445,34,o),
(478,82,c)
);
},
{
closed = 1;
nodes = (
(208,65,o),
(139,140,o),
(139,250,cs),
(139,360,o),
(208,435,o),
(307,435,cs),
(407,435,o),
(476,360,o),
(476,250,cs),
(476,140,o),
(407,65,o),
(307,65,cs)
);
}
);
width = 636;
},
{
layerId = "0D412B41-94F2-47FA-B804-36C251FF5B2C";
shapes = (
{
closed = 1;
nodes = (
(491,-222,l),
(546,-222,l),
(546,500,l),
(495,500,l),
(491,406,l),
(456,474,o),
(386,512,o),
(297,512,cs),
(144,512,o),
(48,401,o),
(48,251,cs),
(48,100,o),
(144,-12,o),
(296,-12,cs),
(395,-12,o),
(458,39,o),
(491,91,c)
);
},
{
closed = 1;
nodes = (
(182,36,o),
(104,121,o),
(104,250,cs),
(104,379,o),
(182,464,o),
(294,464,cs),
(407,464,o),
(485,379,o),
(485,250,cs),
(485,121,o),
(407,36,o),
(294,36,cs)
);
}
);
width = 618;
}
);
leftKerningGroup = c2;
unicode = 113;
},
{
glyphname = r;
layers = (
{
layerId = "E8646C30-3FF3-473D-8246-41AB9B20E065";
shapes = (
{
closed = 1;
nodes = (
(63,0,l),
(235,0,l),
(235,205,ls),
(235,301,o),
(282,330,o),
(364,330,cs),
(411,330,l),
(411,512,l),
(334,512,o),
(271,470,o),
(232,408,c),
(215,500,l),
(63,500,l)
);
}
);
width = 431;
},
{
layerId = "D9A7C259-C59A-4E8E-902E-93D91DDC07B0";
shapes = (
{
closed = 1;
nodes = (
(69,0,l),
(158,0,l),
(158,249,ls),
(158,380,o),
(231,419,o),
(320,419,cs),
(345,419,l),
(345,512,l),
(250,512,o),
(188,471,o),
(157,402,c),
(149,500,l),
(69,500,l)
);
}
);
width = 370;
},
{
layerId = "0D412B41-94F2-47FA-B804-36C251FF5B2C";
shapes = (
{
closed = 1;
nodes = (
(72,0,l),
(127,0,l),
(127,267,ls),
(127,411,o),
(211,455,o),
(302,455,cs),
(318,455,l),
(318,512,l),
(217,512,o),
(155,472,o),
(127,400,c),
(123,500,l),
(72,500,l)
);
}
);
width = 345;
}
);
leftKerningGroup = m;
rightKerningGroup = r;
unicode = 114;
},
{
glyphname = s;
layers = (
{
layerId = "E8646C30-3FF3-473D-8246-41AB9B20E065";
shapes = (
{
closed = 1;
nodes = (
(424,-12,o),
(509,61,o),
(509,159,cs),
(509,264,o),
(423,286,o),
(306,313,cs),
(251,326,o),
(212,335,o),
(212,356,cs),
(212,371,o),
(232,384,o),
(268,384,cs),
(300,384,o),
(321,374,o),
(329,355,c),
(488,355,l),
(473,451,o),
(398,512,o),
(268,512,cs),
(127,512,o),
(47,438,o),
(47,347,cs),
(47,244,o),
(156,222,o),
(249,198,c),
(304,182,o),
(338,178,o),
(338,151,cs),
(338,135,o),
(322,115,o),
(278,115,cs),
(242,115,o),
(213,134,o),
(206,161,c),
(35,161,l),
(43,64,o),
(139,-12,o),
(282,-12,cs)
);
}
);
width = 553;
},
{
layerId = "D9A7C259-C59A-4E8E-902E-93D91DDC07B0";
shapes = (
{
closed = 1;
nodes = (
(382,-12,o),
(455,53,o),
(455,144,cs),
(455,252,o),
(365,275,o),
(271,295,cs),
(198,310,o),
(154,331,o),
(154,370,cs),
(154,411,o),
(187,438,o),
(247,438,cs),
(309,438,o),
(346,408,o),
(352,359,c),
(439,359,l),
(427,458,o),
(355,512,o),
(248,512,cs),
(135,512,o),
(65,449,o),
(65,363,cs),
(65,270,o),
(160,239,o),
(242,223,cs),
(320,207,o),
(365,195,o),
(365,137,cs),
(365,96,o),
(333,62,o),
(263,62,cs),
(188,62,o),
(144,105,o),
(133,156,c),
(41,156,l),
(54,53,o),
(140,-12,o),
(262,-12,cs)
);
}
);
width = 507;
},
{
layerId = "0D412B41-94F2-47FA-B804-36C251FF5B2C";
shapes = (
{
closed = 1;
nodes = (
(365,-12,o),
(433,50,o),
(433,138,cs),
(433,247,o),
(342,270,o),
(257,288,cs),
(177,304,o),
(131,329,o),
(131,376,cs),
(131,427,o),
(169,460,o),
(238,460,cs),
(312,460,o),
(356,421,o),
(361,361,c),
(419,361,l),
(408,461,o),
(338,512,o),
(240,512,cs),
(138,512,o),
(72,454,o),
(72,369,cs),
(72,281,o),
(161,246,o),
(239,233,cs),
(326,217,o),
(376,202,o),
(376,132,cs),
(376,81,o),
(338,41,o),
(257,41,cs),
(167,41,o),
(116,94,o),
(104,154,c),
(44,154,l),
(59,48,o),
(141,-12,o),
(254,-12,cs)
);
}
);
width = 488;
}
);
leftKerningGroup = s2;
rightKerningGroup = s;
unicode = 115;
},
{
glyphname = t;
layers = (
{
layerId = "E8646C30-3FF3-473D-8246-41AB9B20E065";
shapes = (
{
closed = 1;
nodes = (
(407,0,l),
(407,146,l),
(336,146,ls),
(296,146,o),
(283,159,o),
(283,194,cs),
(283,357,l),
(406,357,l),
(406,500,l),
(283,500,l),
(283,647,l),
(129,647,l),
(111,500,l),
(26,500,l),
(26,357,l),
(111,357,l),
(111,196,ls),
(111,49,o),
(193,0,o),
(309,0,cs)
);
}
);
width = 458;
},
{
layerId = "D9A7C259-C59A-4E8E-902E-93D91DDC07B0";
shapes = (
{
closed = 1;
nodes = (
(347,0,l),
(347,75,l),
(293,75,ls),
(230,75,o),
(208,93,o),
(208,155,cs),
(208,425,l),
(355,425,l),
(355,500,l),
(208,500,l),
(208,621,l),
(130,621,l),
(120,500,l),
(32,500,l),
(32,425,l),
(120,425,l),
(120,155,ls),
(120,38,o),
(176,0,o),
(269,0,cs)
);
}
);
width = 393;
},
{
layerId = "0D412B41-94F2-47FA-B804-36C251FF5B2C";
shapes = (
{
closed = 1;
nodes = (
(323,0,l),
(323,47,l),
(276,47,ls),
(204,47,o),
(178,67,o),
(178,139,cs),
(178,452,l),
(334,452,l),
(334,500,l),
(178,500,l),
(178,611,l),
(131,611,l),
(123,500,l),
(35,500,l),
(35,452,l),
(123,452,l),
(123,139,ls),
(123,34,o),
(169,0,o),
(253,0,cs)
);
}
);
width = 367;
}
);
leftKerningGroup = t2;
rightKerningGroup = t;
unicode = 116;
},
{
glyphname = u;
layers = (
{
layerId = "E8646C30-3FF3-473D-8246-41AB9B20E065";
shapes = (
{
closed = 1;
nodes = (
(228,500,l),
(56,500,l),
(56,228,ls),
(56,76,o),
(123,-12,o),
(253,-12,cs),
(334,-12,o),
(390,26,o),
(421,80,c),
(435,0,l),
(585,0,l),
(585,500,l),
(413,500,l),
(413,243,ls),
(413,174,o),
(374,132,o),
(316,132,cs),
(251,132,o),
(228,174,o),
(228,243,cs)
);
}
);
width = 648;
},
{
layerId = "D9A7C259-C59A-4E8E-902E-93D91DDC07B0";
shapes = (
{
closed = 1;
nodes = (
(147,500,l),
(58,500,l),
(58,209,ls),
(58,59,o),
(134,-12,o),
(252,-12,cs),
(329,-12,o),
(393,25,o),
(425,89,c),
(430,0,l),
(510,0,l),
(510,500,l),
(422,500,l),
(422,242,ls),
(422,127,o),
(359,64,o),
(274,64,cs),
(190,64,o),
(147,115,o),
(147,218,cs)
);
}
);
width = 579;
},
{
layerId = "0D412B41-94F2-47FA-B804-36C251FF5B2C";
shapes = (
{
closed = 1;
nodes = (
(114,500,l),
(59,500,l),
(59,202,ls),
(59,52,o),
(138,-12,o),
(252,-12,cs),
(327,-12,o),
(394,25,o),
(426,93,c),
(428,0,l),
(480,0,l),
(480,500,l),
(425,500,l),
(425,241,ls),
(425,108,o),
(353,37,o),
(257,37,cs),
(165,37,o),
(114,91,o),
(114,208,cs)
);
}
);
width = 552;
}
);
leftKerningGroup = u;
unicode = 117;
},
{
glyphname = v;
layers = (
{
layerId = "E8646C30-3FF3-473D-8246-41AB9B20E065";
shapes = (
{
closed = 1;
nodes = (
(189,0,l),
(401,0,l),
(580,500,l),
(399,500,l),
(295,161,l),
(192,500,l),
(10,500,l)
);
}
);
width = 590;
},
{
layerId = "D9A7C259-C59A-4E8E-902E-93D91DDC07B0";
shapes = (
{
closed = 1;
nodes = (
(213,0,l),
(316,0,l),
(506,500,l),
(413,500,l),
(265,85,l),
(117,500,l),
(23,500,l)
);
}
);
width = 529;
},
{
layerId = "0D412B41-94F2-47FA-B804-36C251FF5B2C";
shapes = (
{
closed = 1;
nodes = (
(222,0,l),
(282,0,l),
(476,500,l),
(419,500,l),
(253,54,l),
(87,500,l),
(28,500,l)
);
}
);
width = 504;
}
);
unicode = 118;
},
{
glyphname = w;
layers = (
{
layerId = "E8646C30-3FF3-473D-8246-41AB9B20E065";
shapes = (
{
closed = 1;
nodes = (
(157,0,l),
(337,0,l),
(428,334,l),
(520,0,l),
(700,0,l),
(847,500,l),
(677,500,l),
(607,175,l),
(523,500,l),
(334,500,l),
(250,175,l),
(179,500,l),
(10,500,l)
);
}
);
width = 857;
},
{
layerId = "D9A7C259-C59A-4E8E-902E-93D91DDC07B0";
shapes = (
{
closed = 1;
nodes = (
(169,0,l),
(261,0,l),
(382,408,l),
(504,0,l),
(594,0,l),
(741,500,l),
(651,500,l),
(548,114,l),
(432,500,l),
(333,500,l),
(217,114,l),
(113,500,l),
(23,500,l)
);
}
);
width = 764;
},
{
layerId = "0D412B41-94F2-47FA-B804-36C251FF5B2C";
shapes = (
{
closed = 1;
nodes = (
(174,0,l),
(230,0,l),
(364,438,l),
(497,0,l),
(552,0,l),
(699,500,l),
(641,500,l),
(524,89,l),
(396,500,l),
(332,500,l),
(204,89,l),
(86,500,l),
(28,500,l)
);
}
);
width = 727;
}
);
leftKerningGroup = w2;
rightKerningGroup = w;
unicode = 119;
},
{
glyphname = x;
layers = (
{
layerId = "E8646C30-3FF3-473D-8246-41AB9B20E065";
shapes = (
{
closed = 1;
nodes = (
(16,0,l),
(202,0,l),
(315,149,l),
(426,0,l),
(612,0,l),
(421,250,l),
(612,500,l),
(426,500,l),
(315,351,l),
(202,500,l),
(16,500,l),
(207,250,l)
);
}
);
width = 628;
},
{
layerId = "D9A7C259-C59A-4E8E-902E-93D91DDC07B0";
shapes = (
{
closed = 1;
nodes = (
(20,0,l),
(115,0,l),
(254,204,l),
(393,0,l),
(489,0,l),
(315,250,l),
(489,500,l),
(393,500,l),
(254,296,l),
(115,500,l),
(20,500,l),
(194,250,l)
);
}
);
width = 508;
},
{
layerId = "0D412B41-94F2-47FA-B804-36C251FF5B2C";
shapes = (
{
closed = 1;
nodes = (
(21,0,l),
(80,0,l),
(230,226,l),
(380,0,l),
(440,0,l),
(272,250,l),
(440,500,l),
(380,500,l),
(230,274,l),
(80,500,l),
(21,500,l),
(189,250,l)
);
}
);
width = 460;
}
);
unicode = 120;
},
{
glyphname = y;
layers = (
{
layerId = "E8646C30-3FF3-473D-8246-41AB9B20E065";
shapes = (
{
closed = 1;
nodes = (
(113,-222,l),
(196,-222,ls),
(293,-222,o),
(339,-170,o),
(400,-26,cs),
(624,500,l),
(439,500,l),
(322,185,l),
(206,500,l),
(18,500,l),
(209,19,l),
(240,19,l),
(219,-28,ls),
(201,-68,o),
(188,-76,o),
(154,-76,cs),
(113,-76,l)
);
}
);
width = 642;
},
{
layerId = "D9A7C259-C59A-4E8E-902E-93D91DDC07B0";
shapes = (
{
closed = 1;
nodes = (
(63,-222,l),
(115,-222,ls),
(209,-222,o),
(238,-177,o),
(282,-80,cs),
(545,500,l),
(452,500,l),
(279,114,l),
(117,500,l),
(19,500,l),
(219,47,l),
(247,47,l),
(189,-80,ls),
(167,-128,o),
(151,-146,o),
(101,-146,cs),
(63,-146,l)
);
}
);
width = 564;
},
{
layerId = "0D412B41-94F2-47FA-B804-36C251FF5B2C";
shapes = (
{
closed = 1;
nodes = (
(26,-222,l),
(72,-222,ls),
(150,-222,o),
(195,-189,o),
(235,-102,cs),
(513,500,l),
(457,500,l),
(262,86,l),
(81,500,l),
(20,500,l),
(223,58,l),
(250,58,l),
(180,-98,l),
(152,-153,o),
(119,-174,o),
(63,-174,cs),
(26,-174,l)
);
}
);
width = 533;
}
);
leftKerningGroup = y2;
rightKerningGroup = y;
unicode = 121;
},
{
glyphname = z;
layers = (
{
layerId = "E8646C30-3FF3-473D-8246-41AB9B20E065";
shapes = (
{
closed = 1;
nodes = (
(30,0,l),
(467,0,l),
(467,142,l),
(223,142,l),
(462,363,l),
(462,500,l),
(32,500,l),
(32,358,l),
(264,358,l),
(30,137,l)
);
}
);
width = 509;
},
{
layerId = "D9A7C259-C59A-4E8E-902E-93D91DDC07B0";
shapes = (
{
closed = 1;
nodes = (
(35,0,l),
(416,0,l),
(416,73,l),
(134,73,l),
(411,428,l),
(411,500,l),
(39,500,l),
(39,427,l),
(312,427,l),
(35,72,l)
);
}
);
width = 459;
},
{
layerId = "0D412B41-94F2-47FA-B804-36C251FF5B2C";
shapes = (
{
closed = 1;
nodes = (
(37,0,l),
(396,0,l),
(396,46,l),
(99,46,l),
(391,454,l),
(391,500,l),
(42,500,l),
(42,454,l),
(331,454,l),
(37,46,l)
);
}
);
width = 439;
}
);
leftKerningGroup = z;
unicode = 122;
},
{
glyphname = braceleft;
layers = (
{
layerId = "E8646C30-3FF3-473D-8246-41AB9B20E065";
shapes = (
{
closed = 1;
nodes = (
(356,-194,ls),
(241,-194,o),
(165,-130,o),
(165,-13,cs),
(165,53,o),
(186,102,o),
(186,164,cs),
(186,208,o),
(159,238,o),
(91,241,c),
(91,377,l),
(159,380,o),
(186,407,o),
(186,454,cs),
(186,516,o),
(165,565,o),
(165,631,cs),
(165,747,o),
(242,811,o),
(356,811,cs),
(428,811,l),
(428,671,l),
(389,671,ls),
(346,671,o),
(329,653,o),
(329,614,cs),
(329,570,o),
(346,518,o),
(346,447,cs),
(346,375,o),
(314,325,o),
(239,310,c),
(239,308,l),
(314,293,o),
(346,242,o),
(346,170,cs),
(346,99,o),
(329,48,o),
(329,4,cs),
(329,-35,o),
(346,-54,o),
(389,-54,cs),
(428,-54,l),
(428,-194,l)
);
}
);
width = 499;
},
{
layerId = "D9A7C259-C59A-4E8E-902E-93D91DDC07B0";
shapes = (
{
closed = 1;
nodes = (
(322,-154,ls),
(229,-154,o),
(169,-104,o),
(169,-2,cs),
(169,66,o),
(190,106,o),
(190,183,cs),
(190,231,o),
(168,276,o),
(87,294,c),
(87,365,l),
(168,381,o),
(190,426,o),
(190,475,cs),
(190,551,o),
(169,592,o),
(169,660,cs),
(169,761,o),
(229,811,o),
(322,811,cs),
(376,811,l),
(376,736,l),
(338,736,ls),
(282,736,o),
(253,712,o),
(253,653,cs),
(253,594,o),
(275,551,o),
(275,472,cs),
(275,401,o),
(242,348,o),
(163,330,c),
(163,328,l),
(242,310,o),
(275,257,o),
(275,186,cs),
(275,106,o),
(253,64,o),
(253,5,cs),
(253,-55,o),
(282,-79,o),
(338,-79,cs),
(376,-79,l),
(376,-154,l)
);
}
);
width = 428;
},
{
layerId = "0D412B41-94F2-47FA-B804-36C251FF5B2C";
shapes = (
{
closed = 1;
nodes = (
(308,-138,ls),
(224,-138,o),
(170,-94,o),
(170,2,cs),
(170,71,o),
(192,108,o),
(192,190,cs),
(192,240,o),
(172,291,o),
(85,315,c),
(85,360,l),
(172,381,o),
(192,433,o),
(192,483,cs),
(192,565,o),
(170,603,o),
(170,671,cs),
(170,767,o),
(224,811,o),
(308,811,cs),
(355,811,l),
(355,762,l),
(317,762,ls),
(257,762,o),
(223,736,o),
(223,668,cs),
(223,603,o),
(246,564,o),
(246,482,cs),
(246,411,o),
(213,357,o),
(133,338,c),
(133,336,l),
(213,317,o),
(246,263,o),
(246,192,cs),
(246,109,o),
(223,70,o),
(223,5,cs),
(223,-63,o),
(257,-89,o),
(317,-89,cs),
(355,-89,l),
(355,-138,l)
);
}
);
width = 400;
}
);
unicode = 123;
},
{
glyphname = bar;
layers = (
{
layerId = "E8646C30-3FF3-473D-8246-41AB9B20E065";
shapes = (
{
closed = 1;
nodes = (
(62,-100,l),
(233,-100,l),
(233,720,l),
(62,720,l)
);
}
);
width = 295;
},
{
layerId = "D9A7C259-C59A-4E8E-902E-93D91DDC07B0";
shapes = (
{
closed = 1;
nodes = (
(73,-100,l),
(162,-100,l),
(162,720,l),
(73,720,l)
);
}
);
width = 235;
},
{
layerId = "0D412B41-94F2-47FA-B804-36C251FF5B2C";
shapes = (
{
closed = 1;
nodes = (
(78,-100,l),
(133,-100,l),
(133,720,l),
(78,720,l)
);
}
);
width = 211;
}
);
unicode = 124;
},
{
glyphname = braceright;
layers = (
{
layerId = "E8646C30-3FF3-473D-8246-41AB9B20E065";
shapes = (
{
closed = 1;
nodes = (
(143,-194,ls),
(258,-194,o),
(334,-130,o),
(334,-13,cs),
(334,53,o),
(313,102,o),
(313,164,cs),
(313,208,o),
(340,238,o),
(408,241,c),
(408,377,l),
(340,380,o),
(313,407,o),
(313,454,cs),
(313,516,o),
(334,565,o),
(334,631,cs),
(334,747,o),
(257,811,o),
(143,811,cs),
(71,811,l),
(71,671,l),
(110,671,ls),
(153,671,o),
(170,653,o),
(170,614,cs),
(170,570,o),
(153,518,o),
(153,447,cs),
(153,375,o),
(185,325,o),
(260,310,c),
(260,308,l),
(185,293,o),
(153,242,o),
(153,170,cs),
(153,99,o),
(170,48,o),
(170,4,cs),
(170,-35,o),
(153,-54,o),
(110,-54,cs),
(71,-54,l),
(71,-194,l)
);
}
);
width = 499;
},
{
layerId = "D9A7C259-C59A-4E8E-902E-93D91DDC07B0";
shapes = (
{
closed = 1;
nodes = (
(106,-154,ls),
(199,-154,o),
(259,-104,o),
(259,-2,cs),
(259,66,o),
(238,106,o),
(238,183,cs),
(238,231,o),
(260,276,o),
(341,294,c),
(341,365,l),
(260,381,o),
(238,426,o),
(238,475,cs),
(238,551,o),
(259,592,o),
(259,660,cs),
(259,761,o),
(199,811,o),
(106,811,cs),
(52,811,l),
(52,736,l),
(90,736,ls),
(146,736,o),
(175,712,o),
(175,653,cs),
(175,594,o),
(153,551,o),
(153,472,cs),
(153,401,o),
(186,348,o),
(265,330,c),
(265,328,l),
(186,310,o),
(153,257,o),
(153,186,cs),
(153,106,o),
(175,64,o),
(175,5,cs),
(175,-55,o),
(146,-79,o),
(90,-79,cs),
(52,-79,l),
(52,-154,l)
);
}
);
width = 428;
},
{
layerId = "0D412B41-94F2-47FA-B804-36C251FF5B2C";
shapes = (
{
closed = 1;
nodes = (
(92,-138,ls),
(176,-138,o),
(230,-94,o),
(230,2,cs),
(230,71,o),
(208,108,o),
(208,190,cs),
(208,240,o),
(228,291,o),
(315,315,c),
(315,360,l),
(228,381,o),
(208,433,o),
(208,483,cs),
(208,565,o),
(230,603,o),
(230,671,cs),
(230,767,o),
(176,811,o),
(92,811,cs),
(45,811,l),
(45,762,l),
(83,762,ls),
(143,762,o),
(177,736,o),
(177,668,cs),
(177,603,o),
(154,564,o),
(154,482,cs),
(154,411,o),
(187,357,o),
(267,338,c),
(267,336,l),
(187,317,o),
(154,263,o),
(154,192,cs),
(154,109,o),
(177,70,o),
(177,5,cs),
(177,-63,o),
(143,-89,o),
(83,-89,cs),
(45,-89,l),
(45,-138,l)
);
}
);
width = 400;
}
);
unicode = 125;
},
{
glyphname = asciitilde;
layers = (
{
layerId = "E8646C30-3FF3-473D-8246-41AB9B20E065";
shapes = (
{
closed = 1;
nodes = (
(508,208,o),
(585,271,o),
(609,425,c),
(482,425,l),
(475,378,o),
(454,359,o),
(419,359,cs),
(361,359,o),
(315,425,o),
(227,425,cs),
(128,425,o),
(53,363,o),
(28,208,c),
(153,208,l),
(160,253,o),
(182,274,o),
(217,274,cs),
(276,274,o),
(321,208,o),
(409,208,cs)
);
}
);
width = 636;
},
{
layerId = "D9A7C259-C59A-4E8E-902E-93D91DDC07B0";
shapes = (
{
closed = 1;
nodes = (
(414,247,o),
(462,293,o),
(478,392,c),
(411,392,l),
(406,351,o),
(382,326,o),
(346,326,cs),
(289,326,o),
(251,393,o),
(173,393,cs),
(102,393,o),
(53,347,o),
(37,248,c),
(102,248,l),
(109,287,o),
(133,314,o),
(168,314,cs),
(227,314,o),
(265,247,o),
(340,247,cs)
);
}
);
width = 514;
},
{
layerId = "0D412B41-94F2-47FA-B804-36C251FF5B2C";
shapes = (
{
closed = 1;
nodes = (
(376,263,o),
(413,302,o),
(425,379,c),
(383,379,l),
(378,340,o),
(353,313,o),
(317,313,cs),
(260,313,o),
(225,380,o),
(152,380,cs),
(91,380,o),
(53,341,o),
(40,264,c),
(82,264,l),
(89,301,o),
(113,330,o),
(149,330,cs),
(208,330,o),
(242,263,o),
(313,263,cs)
);
}
);
width = 465;
}
);
unicode = 126;
},
{
glyphname = exclamdown;
layers = (
{
layerId = "E8646C30-3FF3-473D-8246-41AB9B20E065";
shapes = (
{
closed = 1;
nodes = (
(97,316,l),
(78,-136,l),
(261,-136,l),
(242,316,l)
);
},
{
closed = 1;
nodes = (
(111,572,o),
(70,531,o),
(70,480,cs),
(70,427,o),
(111,386,o),
(172,386,cs),
(232,386,o),
(273,427,o),
(273,480,cs),
(273,531,o),
(232,572,o),
(172,572,cs)
);
}
);
width = 343;
},
{
layerId = "D9A7C259-C59A-4E8E-902E-93D91DDC07B0";
shapes = (
{
closed = 1;
nodes = (
(87,361,l),
(77,-142,l),
(172,-142,l),
(161,361,l)
);
},
{
closed = 1;
nodes = (
(92,564,o),
(66,538,o),
(66,504,cs),
(66,471,o),
(92,446,o),
(126,446,cs),
(161,446,o),
(186,471,o),
(186,504,cs),
(186,538,o),
(161,564,o),
(126,564,cs)
);
}
);
width = 253;
},
{
layerId = "0D412B41-94F2-47FA-B804-36C251FF5B2C";
shapes = (
{
closed = 1;
nodes = (
(83,379,l),
(77,-145,l),
(137,-145,l),
(129,379,l)
);
},
{
closed = 1;
nodes = (
(84,560,o),
(65,540,o),
(65,513,cs),
(65,488,o),
(84,469,o),
(108,469,cs),
(132,469,o),
(151,488,o),
(151,513,cs),
(151,540,o),
(132,560,o),
(108,560,cs)
);
}
);
width = 217;
}
);
unicode = 161;
},
{
glyphname = cent;
layers = (
{
layerId = "E8646C30-3FF3-473D-8246-41AB9B20E065";
shapes = (
{
closed = 1;
nodes = (
(239,-104,l),
(393,-104,l),
(393,-3,l),
(489,20,o),
(558,90,o),
(579,190,c),
(396,190,l),
(385,154,o),
(357,134,o),
(318,134,cs),
(259,134,o),
(224,181,o),
(224,248,cs),
(224,315,o),
(259,362,o),
(318,362,cs),
(357,362,o),
(385,341,o),
(396,306,c),
(579,306,l),
(558,410,o),
(489,477,o),
(393,500,c),
(393,600,l),
(239,600,l),
(239,498,l),
(124,466,o),
(50,372,o),
(50,248,cs),
(50,126,o),
(124,27,o),
(239,-2,c)
);
}
);
width = 629;
},
{
layerId = "D9A7C259-C59A-4E8E-902E-93D91DDC07B0";
shapes = (
{
closed = 1;
nodes = (
(254,-104,l),
(339,-104,l),
(339,-9,l),
(438,6,o),
(507,70,o),
(525,159,c),
(435,159,l),
(420,97,o),
(366,63,o),
(297,63,cs),
(214,63,o),
(139,127,o),
(139,248,cs),
(139,370,o),
(214,433,o),
(297,433,cs),
(366,433,o),
(420,398,o),
(435,337,c),
(525,337,l),
(505,429,o),
(438,491,o),
(339,505,c),
(339,600,l),
(254,600,l),
(254,504,l),
(134,485,o),
(49,388,o),
(49,248,cs),
(49,109,o),
(134,10,o),
(254,-8,c)
);
}
);
width = 573;
},
{
layerId = "0D412B41-94F2-47FA-B804-36C251FF5B2C";
shapes = (
{
closed = 1;
nodes = (
(260,-104,l),
(317,-104,l),
(317,-11,l),
(417,0,o),
(486,62,o),
(503,146,c),
(450,146,l),
(434,74,o),
(369,34,o),
(289,34,cs),
(196,34,o),
(105,105,o),
(105,248,cs),
(105,392,o),
(196,461,o),
(289,461,cs),
(369,461,o),
(434,421,o),
(450,350,c),
(503,350,l),
(484,437,o),
(417,496,o),
(317,507,c),
(317,600,l),
(260,600,l),
(260,506,l),
(138,493,o),
(48,395,o),
(48,248,cs),
(48,102,o),
(138,3,o),
(260,-10,c)
);
}
);
width = 551;
}
);
unicode = 162;
},
{
glyphname = sterling;
layers = (
{
layerId = "E8646C30-3FF3-473D-8246-41AB9B20E065";
shapes = (
{
closed = 1;
nodes = (
(66,0,l),
(588,0,l),
(588,134,l),
(241,134,l),
(261,152,o),
(276,173,o),
(287,196,cs),
(300,224,o),
(307,254,o),
(307,287,c),
(463,287,l),
(463,402,l),
(281,402,l),
(270,435,o),
(260,464,o),
(260,487,cs),
(260,542,o),
(296,572,o),
(344,572,cs),
(399,572,o),
(424,536,o),
(427,485,c),
(584,485,l),
(579,612,o),
(501,712,o),
(340,712,cs),
(199,712,o),
(98,631,o),
(98,492,cs),
(98,461,o),
(106,431,o),
(115,402,c),
(36,402,l),
(36,287,l),
(145,287,l),
(145,258,o),
(142,232,o),
(136,208,cs),
(125,166,o),
(104,131,o),
(66,95,c)
);
}
);
width = 642;
},
{
layerId = "D9A7C259-C59A-4E8E-902E-93D91DDC07B0";
shapes = (
{
closed = 1;
nodes = (
(86,0,l),
(543,-1,l),
(543,72,l),
(179,72,l),
(221,116,o),
(243,160,o),
(246,219,c),
(250,249,o),
(248,279,o),
(240,309,c),
(414,309,l),
(414,371,l),
(222,371,l),
(207,414,o),
(192,456,o),
(192,503,cs),
(192,598,o),
(253,638,o),
(323,638,cs),
(410,638,o),
(456,582,o),
(461,506,c),
(541,506,l),
(534,618,o),
(466,712,o),
(323,712,cs),
(196,712,o),
(109,631,o),
(109,506,cs),
(109,452,o),
(123,410,o),
(137,371,c),
(45,371,l),
(45,309,l),
(156,309,l),
(164,280,o),
(168,252,o),
(166,220,cs),
(163,146,o),
(131,106,o),
(86,56,c)
);
}
);
width = 602;
},
{
layerId = "0D412B41-94F2-47FA-B804-36C251FF5B2C";
shapes = (
{
closed = 1;
nodes = (
(94,0,l),
(525,-1,l),
(525,47,l),
(154,47,l),
(205,102,o),
(230,155,o),
(230,228,cs),
(230,259,o),
(224,289,o),
(213,318,c),
(395,318,l),
(395,358,l),
(199,358,l),
(182,405,o),
(165,453,o),
(165,509,cs),
(165,620,o),
(236,665,o),
(315,665,cs),
(415,665,o),
(469,601,o),
(474,514,c),
(524,514,l),
(516,621,o),
(452,712,o),
(316,712,cs),
(195,712,o),
(113,631,o),
(113,512,cs),
(113,448,o),
(130,402,o),
(146,358,c),
(48,358,l),
(48,318,l),
(161,318,l),
(172,289,o),
(178,260,o),
(178,225,cs),
(178,138,o),
(142,96,o),
(94,40,c)
);
}
);
width = 586;
}
);
unicode = 163;
},
{
glyphname = currency;
layers = (
{
layerId = "E8646C30-3FF3-473D-8246-41AB9B20E065";
shapes = (
{
closed = 1;
nodes = (
(326,116,o),
(358,122,o),
(387,134,c),
(451,70,l),
(517,137,l),
(463,191,l),
(486,220,o),
(498,255,o),
(498,298,cs),
(498,341,o),
(486,378,o),
(463,407,c),
(517,461,l),
(451,528,l),
(385,462,l),
(357,473,o),
(325,478,o),
(290,478,cs),
(255,478,o),
(223,472,o),
(193,461,c),
(126,528,l),
(60,461,l),
(116,405,l),
(93,375,o),
(82,339,o),
(82,298,cs),
(82,257,o),
(94,221,o),
(115,192,c),
(60,137,l),
(126,70,l),
(190,134,l),
(219,122,o),
(252,116,o),
(289,116,cs)
);
},
{
closed = 1;
nodes = (
(250,216,o),
(216,241,o),
(216,297,cs),
(216,354,o),
(250,379,o),
(289,379,cs),
(328,379,o),
(363,354,o),
(363,297,cs),
(363,241,o),
(328,216,o),
(289,216,cs)
);
}
);
width = 577;
},
{
layerId = "D9A7C259-C59A-4E8E-902E-93D91DDC07B0";
shapes = (
{
closed = 1;
nodes = (
(307,121,o),
(340,131,o),
(369,153,c),
(430,91,l),
(469,131,l),
(410,190,l),
(432,219,o),
(444,254,o),
(444,297,cs),
(444,340,o),
(432,377,o),
(410,406,c),
(469,466,l),
(430,505,l),
(369,443,l),
(340,463,o),
(306,473,o),
(268,473,cs),
(229,473,o),
(195,463,o),
(167,442,c),
(104,505,l),
(65,466,l),
(125,406,l),
(104,377,o),
(92,340,o),
(92,297,cs),
(92,255,o),
(103,219,o),
(124,189,c),
(65,131,l),
(104,91,l),
(164,152,l),
(193,131,o),
(227,121,o),
(267,121,cs)
);
},
{
closed = 1;
nodes = (
(219,187,o),
(173,218,o),
(173,297,cs),
(173,374,o),
(219,408,o),
(267,408,cs),
(312,408,o),
(362,374,o),
(362,297,cs),
(362,218,o),
(312,187,o),
(267,187,cs)
);
}
);
width = 534;
},
{
layerId = "0D412B41-94F2-47FA-B804-36C251FF5B2C";
shapes = (
{
closed = 1;
nodes = (
(299,123,o),
(333,135,o),
(362,160,c),
(422,100,l),
(450,128,l),
(389,189,l),
(411,218,o),
(422,254,o),
(422,297,cs),
(422,340,o),
(410,377,o),
(389,406,c),
(450,468,l),
(422,496,l),
(362,435,l),
(333,459,o),
(298,471,o),
(259,471,cs),
(218,471,o),
(184,459,o),
(156,435,c),
(95,496,l),
(67,468,l),
(129,407,l),
(108,378,o),
(96,341,o),
(96,297,cs),
(96,254,o),
(106,218,o),
(127,188,c),
(67,128,l),
(95,100,l),
(154,159,l),
(182,135,o),
(217,123,o),
(258,123,cs)
);
},
{
closed = 1;
nodes = (
(206,176,o),
(156,209,o),
(156,297,cs),
(156,382,o),
(206,419,o),
(258,419,cs),
(306,419,o),
(362,382,o),
(362,297,cs),
(362,209,o),
(306,176,o),
(258,176,cs)
);
}
);
width = 517;
}
);
unicode = 164;
},
{
glyphname = yen;
layers = (
{
layerId = "E8646C30-3FF3-473D-8246-41AB9B20E065";
shapes = (
{
closed = 1;
nodes = (
(255,0,l),
(426,0,l),
(426,134,l),
(626,134,l),
(626,248,l),
(434,248,l),
(434,248,l),
(466,309,l),
(626,310,l),
(626,425,l),
(526,425,l),
(669,700,l),
(477,700,l),
(342,390,l),
(206,700,l),
(12,700,l),
(155,425,l),
(55,425,l),
(55,310,l),
(215,309,l),
(247,248,l),
(247,248,l),
(55,248,l),
(55,134,l),
(255,134,l)
);
}
);
width = 681;
},
{
layerId = "D9A7C259-C59A-4E8E-902E-93D91DDC07B0";
shapes = (
{
closed = 1;
nodes = (
(259,0,l),
(347,0,l),
(347,165,l),
(547,165,l),
(547,229,l),
(350,229,l),
(350,269,l),
(375,318,l),
(547,319,l),
(547,381,l),
(408,381,l),
(575,700,l),
(476,700,l),
(303,346,l),
(130,700,l),
(30,700,l),
(198,381,l),
(59,381,l),
(59,319,l),
(231,318,l),
(257,269,l),
(257,229,l),
(59,229,l),
(59,165,l),
(259,165,l)
);
}
);
width = 605;
},
{
layerId = "0D412B41-94F2-47FA-B804-36C251FF5B2C";
shapes = (
{
closed = 1;
nodes = (
(261,0,l),
(316,0,l),
(316,178,l),
(516,178,l),
(516,222,l),
(316,222,l),
(316,278,l),
(338,321,l),
(516,322,l),
(516,364,l),
(361,364,l),
(537,700,l),
(475,700,l),
(287,329,l),
(99,700,l),
(37,700,l),
(215,364,l),
(61,364,l),
(61,322,l),
(238,321,l),
(261,278,l),
(261,222,l),
(61,222,l),
(61,178,l),
(261,178,l)
);
}
);
width = 574;
}
);
unicode = 165;
},
{
glyphname = brokenbar;
layers = (
{
layerId = "E8646C30-3FF3-473D-8246-41AB9B20E065";
shapes = (
{
closed = 1;
nodes = (
(62,400,l),
(233,400,l),
(233,720,l),
(62,720,l)
);
},
{
closed = 1;
nodes = (
(62,-100,l),
(233,-100,l),
(233,220,l),
(62,220,l)
);
}
);
width = 295;
},
{
layerId = "D9A7C259-C59A-4E8E-902E-93D91DDC07B0";
shapes = (
{
closed = 1;
nodes = (
(73,388,l),
(162,388,l),
(162,720,l),
(73,720,l)
);
},
{
closed = 1;
nodes = (
(73,-100,l),
(162,-100,l),
(162,232,l),
(73,232,l)
);
}
);
width = 235;
},
{
layerId = "0D412B41-94F2-47FA-B804-36C251FF5B2C";
shapes = (
{
closed = 1;
nodes = (
(78,383,l),
(133,383,l),
(133,720,l),
(78,720,l)
);
},
{
closed = 1;
nodes = (
(78,-100,l),
(133,-100,l),
(133,237,l),
(78,237,l)
);
}
);
width = 211;
}
);
unicode = 166;
},
{
glyphname = section;
layers = (
{
layerId = "E8646C30-3FF3-473D-8246-41AB9B20E065";
shapes = (
{
closed = 1;
nodes = (
(453,-232,o),
(562,-158,o),
(562,-25,cs),
(562,14,o),
(553,47,o),
(535,73,c),
(572,112,o),
(590,159,o),
(590,214,cs),
(590,336,o),
(493,393,o),
(386,428,cs),
(311,452,o),
(251,463,o),
(251,515,cs),
(251,552,o),
(282,570,o),
(319,569,cs),
(358,568,o),
(389,542,o),
(392,502,c),
(577,502,l),
(569,635,o),
(468,712,o),
(320,712,cs),
(179,712,o),
(70,638,o),
(70,505,cs),
(70,466,o),
(79,433,o),
(97,407,c),
(60,368,o),
(42,321,o),
(42,266,cs),
(42,143,o),
(139,89,o),
(246,52,c),
(321,28,o),
(381,17,o),
(381,-35,cs),
(381,-72,o),
(350,-90,o),
(313,-89,cs),
(274,-88,o),
(243,-62,o),
(240,-22,c),
(55,-22,l),
(63,-155,o),
(164,-232,o),
(312,-232,cs)
);
},
{
closed = 1;
nodes = (
(379,168,o),
(365,173,o),
(352,178,cs),
(264,210,o),
(225,239,o),
(225,278,cs),
(225,293,o),
(229,306,o),
(238,317,c),
(249,313,o),
(260,309,o),
(279,302,cs),
(364,271,o),
(407,242,o),
(407,202,cs),
(407,187,o),
(403,174,o),
(394,163,c)
);
}
);
width = 634;
},
{
layerId = "D9A7C259-C59A-4E8E-902E-93D91DDC07B0";
shapes = (
{
closed = 1;
nodes = (
(426,-232,o),
(512,-153,o),
(512,-39,cs),
(512,-2,o),
(504,26,o),
(485,53,c),
(523,89,o),
(541,137,o),
(541,186,cs),
(541,303,o),
(466,352,o),
(365,387,cs),
(247,426,o),
(165,440,o),
(165,527,cs),
(165,597,o),
(218,637,o),
(292,637,cs),
(383,637,o),
(425,576,o),
(426,517,c),
(519,517,l),
(517,631,o),
(430,712,o),
(296,712,cs),
(159,712,o),
(71,633,o),
(74,519,c),
(74,482,o),
(83,452,o),
(101,427,c),
(62,390,o),
(43,343,o),
(43,294,cs),
(43,177,o),
(119,128,o),
(220,93,cs),
(338,54,o),
(420,40,o),
(420,-47,cs),
(420,-117,o),
(367,-157,o),
(293,-157,cs),
(204,-157,o),
(159,-96,o),
(159,-37,c),
(66,-37,l),
(69,-151,o),
(155,-232,o),
(290,-232,cs)
);
},
{
closed = 1;
nodes = (
(400,119,o),
(375,130,o),
(346,140,cs),
(230,180,o),
(136,195,o),
(136,299,cs),
(136,329,o),
(145,354,o),
(165,373,c),
(185,362,o),
(209,350,o),
(240,340,c),
(353,300,o),
(450,286,o),
(450,181,cs),
(450,151,o),
(440,127,o),
(420,107,c)
);
}
);
width = 586;
},
{
layerId = "0D412B41-94F2-47FA-B804-36C251FF5B2C";
shapes = (
{
closed = 1;
nodes = (
(415,-232,o),
(492,-151,o),
(492,-45,cs),
(492,-9,o),
(484,18,o),
(465,45,c),
(504,80,o),
(522,128,o),
(522,175,cs),
(522,290,o),
(455,336,o),
(356,371,c),
(221,416,o),
(130,431,o),
(130,532,cs),
(130,615,o),
(192,664,o),
(281,664,cs),
(393,664,o),
(440,589,o),
(440,523,c),
(496,523,l),
(496,630,o),
(415,712,o),
(286,712,cs),
(151,712,o),
(72,631,o),
(75,525,c),
(75,489,o),
(84,459,o),
(102,435,c),
(63,399,o),
(44,352,o),
(44,305,cs),
(44,190,o),
(111,144,o),
(210,109,c),
(345,64,o),
(436,49,o),
(436,-52,cs),
(436,-135,o),
(374,-184,o),
(285,-184,cs),
(176,-184,o),
(126,-109,o),
(126,-43,c),
(71,-43,l),
(71,-150,o),
(152,-232,o),
(281,-232,cs)
);
},
{
closed = 1;
nodes = (
(408,99,o),
(379,113,o),
(343,125,cs),
(217,168,o),
(100,178,o),
(100,308,cs),
(100,343,o),
(112,373,o),
(136,396,c),
(159,381,o),
(189,366,o),
(224,355,c),
(349,312,o),
(467,304,o),
(467,172,cs),
(467,137,o),
(455,108,o),
(431,84,c)
);
}
);
width = 567;
}
);
unicode = 167;
},
{
glyphname = dieresis;
layers = (
{
layerId = "E8646C30-3FF3-473D-8246-41AB9B20E065";
shapes = (
{
closed = 1;
nodes = (
(326,558,o),
(357,590,o),
(357,631,cs),
(357,674,o),
(326,705,o),
(283,705,cs),
(242,705,o),
(210,674,o),
(210,631,cs),
(210,590,o),
(242,558,o),
(283,558,cs)
);
},
{
closed = 1;
nodes = (
(126,558,o),
(157,590,o),
(157,631,cs),
(157,674,o),
(126,705,o),
(83,705,cs),
(42,705,o),
(10,674,o),
(10,631,cs),
(10,590,o),
(42,558,o),
(83,558,cs)
);
}
);
width = 367;
},
{
layerId = "D9A7C259-C59A-4E8E-902E-93D91DDC07B0";
shapes = (
{
closed = 1;
nodes = (
(272,570,o),
(294,593,o),
(294,621,cs),
(294,650,o),
(272,672,o),
(244,672,cs),
(215,672,o),
(193,650,o),
(193,621,cs),
(193,593,o),
(215,570,o),
(244,570,cs)
);
},
{
closed = 1;
nodes = (
(110,570,o),
(133,593,o),
(133,621,cs),
(133,650,o),
(110,672,o),
(82,672,cs),
(53,672,o),
(31,650,o),
(31,621,cs),
(31,593,o),
(53,570,o),
(82,570,cs)
);
}
);
width = 324;
},
{
layerId = "0D412B41-94F2-47FA-B804-36C251FF5B2C";
shapes = (
{
closed = 1;
nodes = (
(251,575,o),
(269,594,o),
(269,617,cs),
(269,640,o),
(251,659,o),
(228,659,cs),
(204,659,o),
(186,640,o),
(186,617,cs),
(186,594,o),
(204,575,o),
(228,575,cs)
);
},
{
closed = 1;
nodes = (
(104,575,o),
(123,594,o),
(123,617,cs),
(123,640,o),
(104,659,o),
(81,659,cs),
(57,659,o),
(39,640,o),
(39,617,cs),
(39,594,o),
(57,575,o),
(81,575,cs)
);
}
);
width = 307;
}
);
unicode = 168;
},
{
glyphname = copyright;
layers = (
{
layerId = "E8646C30-3FF3-473D-8246-41AB9B20E065";
shapes = (
{
closed = 1;
nodes = (
(599,-7,o),
(742,142,o),
(742,353,cs),
(742,564,o),
(599,712,o),
(390,712,cs),
(181,712,o),
(38,564,o),
(38,353,cs),
(38,142,o),
(181,-7,o),
(390,-7,cs)
);
},
{
closed = 1;
nodes = (
(210,49,o),
(98,170,o),
(98,353,cs),
(98,537,o),
(210,656,o),
(390,656,cs),
(570,656,o),
(682,537,o),
(682,353,cs),
(682,170,o),
(570,49,o),
(390,49,cs)
);
},
{
closed = 1;
nodes = (
(498,128,o),
(578,192,o),
(600,292,c),
(453,292,l),
(442,264,o),
(425,243,o),
(386,243,cs),
(338,243,o),
(307,280,o),
(307,353,cs),
(307,428,o),
(338,463,o),
(386,463,cs),
(421,463,o),
(444,443,o),
(453,414,c),
(600,414,l),
(579,517,o),
(498,578,o),
(391,578,cs),
(262,578,o),
(169,492,o),
(169,353,cs),
(169,215,o),
(262,128,o),
(391,128,cs)
);
}
);
width = 779;
},
{
layerId = "D9A7C259-C59A-4E8E-902E-93D91DDC07B0";
shapes = (
{
closed = 1;
nodes = (
(603,-5,o),
(743,142,o),
(743,351,cs),
(743,558,o),
(603,705,o),
(396,705,cs),
(191,705,o),
(50,558,o),
(50,351,cs),
(50,142,o),
(191,-5,o),
(396,-5,cs)
);
},
{
closed = 1;
nodes = (
(208,33,o),
(91,164,o),
(91,351,cs),
(91,538,o),
(208,667,o),
(396,667,cs),
(586,667,o),
(703,538,o),
(703,351,cs),
(703,164,o),
(586,33,o),
(396,33,cs)
);
},
{
closed = 1;
nodes = (
(497,119,o),
(576,177,o),
(601,271,c),
(522,271,l),
(502,214,o),
(459,182,o),
(396,182,cs),
(320,182,o),
(256,239,o),
(256,351,cs),
(256,462,o),
(320,519,o),
(396,519,cs),
(455,519,o),
(503,489,o),
(522,430,c),
(601,430,l),
(576,528,o),
(497,583,o),
(397,583,cs),
(277,583,o),
(180,498,o),
(180,352,cs),
(180,204,o),
(277,119,o),
(397,119,cs)
);
}
);
width = 793;
},
{
layerId = "0D412B41-94F2-47FA-B804-36C251FF5B2C";
shapes = (
{
closed = 1;
nodes = (
(604,-4,o),
(743,142,o),
(743,350,cs),
(743,556,o),
(604,702,o),
(399,702,cs),
(195,702,o),
(55,556,o),
(55,350,cs),
(55,142,o),
(195,-4,o),
(399,-4,cs)
);
},
{
closed = 1;
nodes = (
(207,27,o),
(88,161,o),
(88,350,cs),
(88,539,o),
(207,672,o),
(399,672,cs),
(592,672,o),
(711,539,o),
(711,350,cs),
(711,161,o),
(592,27,o),
(399,27,cs)
);
},
{
closed = 1;
nodes = (
(496,115,o),
(575,171,o),
(602,263,c),
(550,263,l),
(526,194,o),
(472,158,o),
(400,158,cs),
(313,158,o),
(236,222,o),
(236,350,cs),
(236,475,o),
(313,542,o),
(400,542,cs),
(468,542,o),
(527,507,o),
(550,436,c),
(602,436,l),
(575,532,o),
(496,585,o),
(399,585,cs),
(283,585,o),
(184,500,o),
(184,351,cs),
(184,199,o),
(283,115,o),
(399,115,cs)
);
}
);
width = 799;
}
);
unicode = 169;
},
{
glyphname = ordfeminine;
leftMetricsKey = ae;
layers = (
{
layerId = "0D412B41-94F2-47FA-B804-36C251FF5B2C";
shapes = (
{
closed = 1;
nodes = (
(202,360,o),
(237,387,o),
(258,422,c),
(268,379,o),
(296,368,o),
(340,368,cs),
(352,368,l),
(352,420,l),
(348,420,ls),
(312,420,o),
(314,444,o),
(314,473,cs),
(314,572,ls),
(314,663,o),
(259,708,o),
(172,708,cs),
(103,708,o),
(38,676,o),
(30,603,c),
(90,603,l),
(98,643,o),
(131,659,o),
(172,659,cs),
(222,659,o),
(254,629,o),
(254,572,cs),
(254,558,l),
(235,565,o),
(203,571,o),
(165,571,cs),
(94,571,o),
(23,542,o),
(23,460,cs),
(23,390,o),
(86,360,o),
(146,360,cs)
);
},
{
closed = 1;
nodes = (
(110,409,o),
(84,432,o),
(84,463,cs),
(84,512,o),
(130,525,o),
(171,525,cs),
(200,525,o),
(232,519,o),
(253,513,c),
(253,473,l),
(239,436,o),
(199,409,o),
(155,409,cs)
);
}
);
width = 372;
},
{
layerId = "D9A7C259-C59A-4E8E-902E-93D91DDC07B0";
shapes = (
{
closed = 1;
nodes = (
(198,360,o),
(234,385,o),
(256,420,c),
(269,378,o),
(298,368,o),
(344,368,cs),
(360,368,l),
(360,432,l),
(357,432,ls),
(323,432,o),
(325,460,o),
(325,487,cs),
(325,572,ls),
(325,666,o),
(262,708,o),
(174,708,cs),
(104,708,o),
(39,675,o),
(30,600,c),
(103,600,l),
(111,635,o),
(139,648,o),
(174,648,cs),
(219,648,o),
(249,623,o),
(249,572,cs),
(249,557,l),
(231,564,o),
(201,570,o),
(163,570,cs),
(93,570,o),
(24,540,o),
(24,460,cs),
(24,391,o),
(86,360,o),
(146,360,cs)
);
},
{
closed = 1;
nodes = (
(123,419,o),
(101,439,o),
(101,465,cs),
(101,504,o),
(138,517,o),
(171,517,cs),
(200,517,o),
(228,512,o),
(248,505,c),
(248,474,l),
(234,441,o),
(200,419,o),
(161,419,cs)
);
}
);
width = 375;
},
{
layerId = "E8646C30-3FF3-473D-8246-41AB9B20E065";
shapes = (
{
closed = 1;
nodes = (
(187,360,o),
(226,379,o),
(250,416,c),
(270,377,o),
(304,368,o),
(355,368,cs),
(381,368,l),
(381,463,l),
(380,463,ls),
(349,463,o),
(351,501,o),
(351,523,cs),
(351,572,ls),
(351,674,o),
(268,708,o),
(179,708,cs),
(105,708,o),
(40,671,o),
(31,594,c),
(137,594,l),
(142,615,o),
(160,619,o),
(179,619,cs),
(211,619,o),
(236,607,o),
(236,572,cs),
(236,556,l),
(221,560,o),
(197,566,o),
(158,566,cs),
(91,566,o),
(28,535,o),
(28,460,cs),
(28,395,o),
(87,360,o),
(146,360,cs)
);
},
{
closed = 1;
nodes = (
(157,445,o),
(144,455,o),
(144,471,cs),
(144,485,o),
(157,497,o),
(171,497,cs),
(199,497,o),
(217,494,o),
(236,486,c),
(236,477,l),
(223,455,o),
(204,445,o),
(175,445,cs)
);
}
);
width = 381;
}
);
unicode = 170;
},
{
glyphname = guillemotleft;
layers = (
{
layerId = "E8646C30-3FF3-473D-8246-41AB9B20E065";
shapes = (
{
closed = 1;
nodes = (
(349,120,l),
(507,120,l),
(420,295,l),
(507,470,l),
(349,470,l),
(265,295,l)
);
},
{
closed = 1;
nodes = (
(124,120,l),
(282,120,l),
(195,295,l),
(282,470,l),
(124,470,l),
(40,295,l)
);
}
);
width = 557;
},
{
layerId = "D9A7C259-C59A-4E8E-902E-93D91DDC07B0";
shapes = (
{
closed = 1;
nodes = (
(320,120,l),
(407,120,l),
(308,295,l),
(407,470,l),
(320,470,l),
(224,295,l)
);
},
{
closed = 1;
nodes = (
(140,120,l),
(227,120,l),
(128,295,l),
(227,470,l),
(140,470,l),
(44,295,l)
);
}
);
width = 457;
},
{
layerId = "0D412B41-94F2-47FA-B804-36C251FF5B2C";
shapes = (
{
closed = 1;
nodes = (
(309,120,l),
(367,120,l),
(263,295,l),
(367,470,l),
(309,470,l),
(208,295,l)
);
},
{
closed = 1;
nodes = (
(147,120,l),
(205,120,l),
(101,295,l),
(205,470,l),
(147,470,l),
(46,295,l)
);
}
);
width = 417;
}
);
leftKerningGroup = guillemotleft;
unicode = 171;
},
{
glyphname = logicalnot;
layers = (
{
layerId = "E8646C30-3FF3-473D-8246-41AB9B20E065";
shapes = (
{
closed = 1;
nodes = (
(491,180,l),
(662,180,l),
(662,442,l),
(47,442,l),
(47,312,l),
(491,312,l)
);
}
);
width = 717;
},
{
layerId = "D9A7C259-C59A-4E8E-902E-93D91DDC07B0";
shapes = (
{
closed = 1;
nodes = (
(530,221,l),
(617,221,l),
(617,432,l),
(46,432,l),
(46,362,l),
(530,362,l)
);
}
);
width = 663;
},
{
layerId = "0D412B41-94F2-47FA-B804-36C251FF5B2C";
shapes = (
{
closed = 1;
nodes = (
(545,237,l),
(599,237,l),
(599,428,l),
(45,428,l),
(45,382,l),
(545,382,l)
);
}
);
width = 641;
}
);
unicode = 172;
},
{
glyphname = registered;
layers = (
{
layerId = "E8646C30-3FF3-473D-8246-41AB9B20E065";
shapes = (
{
closed = 1;
nodes = (
(384,280,o),
(474,370,o),
(474,496,cs),
(474,623,o),
(384,712,o),
(257,712,cs),
(129,712,o),
(39,623,o),
(39,496,cs),
(39,370,o),
(129,280,o),
(257,280,cs)
);
},
{
closed = 1;
nodes = (
(160,336,o),
(99,400,o),
(99,496,cs),
(99,592,o),
(160,656,o),
(257,656,cs),
(353,656,o),
(415,592,o),
(415,496,cs),
(415,400,o),
(353,336,o),
(257,336,cs)
);
},
{
closed = 1;
nodes = (
(284,393,l),
(366,393,l),
(315,475,l),
(339,486,o),
(354,508,o),
(354,536,cs),
(354,579,o),
(324,605,o),
(277,605,cs),
(166,605,l),
(166,393,l),
(238,393,l),
(238,467,l),
(244,467,l)
);
},
{
closed = 1;
nodes = (
(237,516,l),
(237,545,l),
(265,545,ls),
(276,545,o),
(281,540,o),
(281,531,cs),
(281,521,o),
(276,516,o),
(265,516,cs)
);
}
);
width = 514;
},
{
layerId = "D9A7C259-C59A-4E8E-902E-93D91DDC07B0";
shapes = (
{
closed = 1;
nodes = (
(370,306,o),
(453,391,o),
(453,508,cs),
(453,625,o),
(370,712,o),
(253,712,cs),
(135,712,o),
(51,625,o),
(51,508,cs),
(51,391,o),
(135,306,o),
(253,306,cs)
);
},
{
closed = 1;
nodes = (
(154,342,o),
(92,411,o),
(92,508,cs),
(92,605,o),
(154,674,o),
(253,674,cs),
(349,674,o),
(414,605,o),
(414,508,cs),
(414,411,o),
(349,342,o),
(253,342,cs)
);
},
{
closed = 1;
nodes = (
(293,403,l),
(350,404,l),
(291,489,l),
(323,496,o),
(342,519,o),
(342,552,cs),
(342,593,o),
(313,617,o),
(269,617,cs),
(172,617,l),
(172,403,l),
(221,403,l),
(221,486,l),
(240,486,l)
);
},
{
closed = 1;
nodes = (
(221,525,l),
(221,574,l),
(264,574,ls),
(281,574,o),
(293,567,o),
(293,550,cs),
(293,532,o),
(281,525,o),
(264,525,cs)
);
}
);
width = 504;
},
{
layerId = "0D412B41-94F2-47FA-B804-36C251FF5B2C";
shapes = (
{
closed = 1;
nodes = (
(365,316,o),
(445,400,o),
(445,513,cs),
(445,626,o),
(365,712,o),
(251,712,cs),
(137,712,o),
(56,626,o),
(56,513,cs),
(56,400,o),
(137,316,o),
(251,316,cs)
);
},
{
closed = 1;
nodes = (
(152,345,o),
(89,416,o),
(89,513,cs),
(89,610,o),
(152,681,o),
(251,681,cs),
(348,681,o),
(413,610,o),
(413,513,cs),
(413,416,o),
(348,345,o),
(251,345,cs)
);
},
{
closed = 1;
nodes = (
(297,407,l),
(343,408,l),
(282,495,l),
(317,500,o),
(337,523,o),
(337,558,cs),
(337,598,o),
(309,622,o),
(266,622,cs),
(175,622,l),
(175,407,l),
(214,407,l),
(214,493,l),
(239,493,l)
);
},
{
closed = 1;
nodes = (
(214,528,l),
(214,586,l),
(264,586,ls),
(283,586,o),
(298,578,o),
(298,557,cs),
(298,536,o),
(283,528,o),
(264,528,cs)
);
}
);
width = 500;
}
);
unicode = 174;
},
{
glyphname = macron;
layers = (
{
layerId = "E8646C30-3FF3-473D-8246-41AB9B20E065";
shapes = (
{
closed = 1;
nodes = (
(10,566,l),
(410,566,l),
(410,684,l),
(10,684,l)
);
}
);
width = 420;
},
{
layerId = "D9A7C259-C59A-4E8E-902E-93D91DDC07B0";
shapes = (
{
closed = 1;
nodes = (
(21,591,l),
(371,591,l),
(371,656,l),
(21,656,l)
);
}
);
width = 393;
},
{
layerId = "0D412B41-94F2-47FA-B804-36C251FF5B2C";
shapes = (
{
closed = 1;
nodes = (
(26,601,l),
(356,601,l),
(356,645,l),
(26,645,l)
);
}
);
width = 382;
}
);
unicode = 175;
},
{
glyphname = degree;
layers = (
{
layerId = "E8646C30-3FF3-473D-8246-41AB9B20E065";
shapes = (
{
closed = 1;
nodes = (
(228,408,o),
(267,422,o),
(295,449,cs),
(323,476,o),
(341,514,o),
(341,559,cs),
(341,606,o),
(323,644,o),
(295,671,cs),
(267,698,o),
(229,712,o),
(189,712,cs),
(149,712,o),
(110,698,o),
(82,671,cs),
(54,644,o),
(36,606,o),
(36,559,cs),
(36,514,o),
(54,476,o),
(82,449,cs),
(110,422,o),
(148,408,o),
(188,408,cs)
);
},
{
closed = 1;
nodes = (
(165,509,o),
(141,525,o),
(141,560,cs),
(141,595,o),
(166,611,o),
(189,611,cs),
(212,611,o),
(236,595,o),
(236,560,cs),
(236,525,o),
(211,509,o),
(188,509,cs)
);
}
);
width = 377;
},
{
layerId = "D9A7C259-C59A-4E8E-902E-93D91DDC07B0";
shapes = (
{
closed = 1;
nodes = (
(208,442,o),
(241,456,o),
(266,479,cs),
(290,502,o),
(305,535,o),
(305,576,cs),
(305,618,o),
(290,651,o),
(266,675,cs),
(241,699,o),
(209,712,o),
(173,712,cs),
(138,712,o),
(104,699,o),
(79,675,cs),
(55,651,o),
(40,618,o),
(40,576,cs),
(40,535,o),
(55,502,o),
(79,479,cs),
(103,456,o),
(137,442,o),
(172,442,cs)
);
},
{
closed = 1;
nodes = (
(139,507,o),
(107,530,o),
(107,577,cs),
(107,625,o),
(140,648,o),
(173,648,cs),
(205,648,o),
(237,625,o),
(237,577,cs),
(237,530,o),
(204,507,o),
(172,507,cs)
);
}
);
width = 344;
},
{
layerId = "0D412B41-94F2-47FA-B804-36C251FF5B2C";
shapes = (
{
closed = 1;
nodes = (
(200,456,o),
(230,469,o),
(254,491,cs),
(277,513,o),
(291,544,o),
(291,583,cs),
(291,623,o),
(277,654,o),
(254,677,cs),
(231,700,o),
(201,712,o),
(166,712,cs),
(133,712,o),
(101,700,o),
(78,677,cs),
(55,654,o),
(41,623,o),
(41,583,cs),
(41,544,o),
(56,513,o),
(78,491,cs),
(100,469,o),
(132,456,o),
(165,456,cs)
);
},
{
closed = 1;
nodes = (
(129,506,o),
(93,532,o),
(93,584,cs),
(93,637,o),
(130,663,o),
(166,663,cs),
(202,663,o),
(238,637,o),
(238,584,cs),
(238,532,o),
(201,506,o),
(165,506,cs)
);
}
);
width = 331;
}
);
unicode = 176;
},
{
glyphname = plusminus;
layers = (
{
layerId = "E8646C30-3FF3-473D-8246-41AB9B20E065";
shapes = (
{
closed = 1;
nodes = (
(244,183,l),
(386,183,l),
(386,297,l),
(570,297,l),
(570,439,l),
(386,439,l),
(386,553,l),
(244,553,l),
(244,439,l),
(60,439,l),
(60,297,l),
(244,297,l)
);
},
{
closed = 1;
nodes = (
(60,0,l),
(570,0,l),
(570,151,l),
(60,151,l)
);
}
);
width = 630;
},
{
layerId = "D9A7C259-C59A-4E8E-902E-93D91DDC07B0";
shapes = (
{
closed = 1;
nodes = (
(263,128,l),
(342,128,l),
(342,268,l),
(541,268,l),
(541,343,l),
(342,343,l),
(342,482,l),
(263,482,l),
(263,343,l),
(64,343,l),
(64,268,l),
(263,268,l)
);
},
{
closed = 1;
nodes = (
(64,0,l),
(541,0,l),
(541,77,l),
(64,77,l)
);
}
);
width = 604;
},
{
layerId = "0D412B41-94F2-47FA-B804-36C251FF5B2C";
shapes = (
{
closed = 1;
nodes = (
(270,106,l),
(324,106,l),
(324,256,l),
(529,256,l),
(529,304,l),
(324,304,l),
(324,453,l),
(270,453,l),
(270,304,l),
(66,304,l),
(66,256,l),
(270,256,l)
);
},
{
closed = 1;
nodes = (
(66,0,l),
(529,0,l),
(529,47,l),
(66,47,l)
);
}
);
width = 594;
}
);
unicode = 177;
},
{
glyphname = acute;
layers = (
{
layerId = "E8646C30-3FF3-473D-8246-41AB9B20E065";
shapes = (
{
closed = 1;
nodes = (
(276,701,l),
(206,802,l),
(206,802,l),
(0,654,l),
(58,569,l)
);
}
);
width = 276;
},
{
layerId = "D9A7C259-C59A-4E8E-902E-93D91DDC07B0";
shapes = (
{
closed = 1;
nodes = (
(226,684,l),
(177,754,l),
(177,754,l),
(0,625,l),
(37,569,l)
);
}
);
width = 226;
},
{
layerId = "0D412B41-94F2-47FA-B804-36C251FF5B2C";
shapes = (
{
closed = 1;
nodes = (
(199,678,l),
(167,723,l),
(167,723,l),
(0,602,l),
(22,569,l)
);
}
);
width = 199;
}
);
unicode = 180;
},
{
glyphname = micro;
layers = (
{
layerId = "E8646C30-3FF3-473D-8246-41AB9B20E065";
shapes = (
{
closed = 1;
nodes = (
(63,-222,l),
(235,-222,l),
(235,-11,l),
(243,-12,o),
(251,-12,o),
(260,-12,cs),
(343,-12,o),
(397,25,o),
(428,80,c),
(443,0,l),
(593,0,l),
(593,500,l),
(420,500,l),
(420,243,ls),
(420,175,o),
(381,132,o),
(324,132,cs),
(257,132,o),
(235,175,o),
(235,243,cs),
(235,500,l),
(63,500,l)
);
}
);
width = 655;
},
{
layerId = "D9A7C259-C59A-4E8E-902E-93D91DDC07B0";
shapes = (
{
closed = 1;
nodes = (
(69,-222,l),
(158,-222,l),
(158,18,l),
(186,-2,o),
(221,-12,o),
(264,-12,cs),
(342,-12,o),
(403,25,o),
(436,89,c),
(442,0,l),
(522,0,l),
(522,500,l),
(433,500,l),
(433,242,ls),
(433,128,o),
(370,64,o),
(285,64,cs),
(202,64,o),
(158,116,o),
(158,219,cs),
(158,500,l),
(69,500,l)
);
}
);
width = 591;
},
{
layerId = "0D412B41-94F2-47FA-B804-36C251FF5B2C";
shapes = (
{
closed = 1;
nodes = (
(72,-222,l),
(127,-222,l),
(127,30,l),
(163,2,o),
(209,-12,o),
(265,-12,cs),
(341,-12,o),
(406,25,o),
(439,93,c),
(442,0,l),
(493,0,l),
(493,500,l),
(438,500,l),
(438,241,ls),
(438,109,o),
(365,37,o),
(269,37,cs),
(180,37,o),
(127,92,o),
(127,209,cs),
(127,500,l),
(72,500,l)
);
}
);
width = 565;
}
);
unicode = 181;
},
{
glyphname = paragraph;
layers = (
{
layerId = "E8646C30-3FF3-473D-8246-41AB9B20E065";
shapes = (
{
closed = 1;
nodes = (
(288,-100,l),
(429,-100,l),
(429,570,l),
(491,570,l),
(491,-100,l),
(632,-100,l),
(632,700,l),
(265,700,ls),
(181,700,o),
(121,674,o),
(83,634,cs),
(45,594,o),
(27,541,o),
(27,485,cs),
(27,429,o),
(45,376,o),
(83,337,cs),
(121,297,o),
(181,271,o),
(265,271,cs),
(288,271,l)
);
}
);
width = 694;
},
{
layerId = "D9A7C259-C59A-4E8E-902E-93D91DDC07B0";
shapes = (
{
closed = 1;
nodes = (
(282,-100,l),
(359,-100,l),
(359,631,l),
(441,631,l),
(441,-100,l),
(518,-100,l),
(518,700,l),
(271,700,ls),
(191,700,o),
(132,678,o),
(94,641,c),
(54,605,o),
(36,555,o),
(36,496,cs),
(36,440,o),
(54,390,o),
(92,353,cs),
(131,316,o),
(190,294,o),
(271,294,cs),
(282,294,l)
);
}
);
width = 591;
},
{
layerId = "0D412B41-94F2-47FA-B804-36C251FF5B2C";
shapes = (
{
closed = 1;
nodes = (
(280,-100,l),
(331,-100,l),
(331,655,l),
(421,655,l),
(421,-100,l),
(472,-100,l),
(472,700,l),
(274,700,ls),
(195,700,o),
(137,679,o),
(98,644,cs),
(58,609,o),
(39,560,o),
(39,501,cs),
(39,444,o),
(57,395,o),
(96,360,cs),
(135,324,o),
(194,303,o),
(274,303,cs),
(280,303,l)
);
}
);
width = 550;
}
);
unicode = 182;
},
{
glyphname = periodcentered;
layers = (
{
layerId = "E8646C30-3FF3-473D-8246-41AB9B20E065";
shapes = (
{
closed = 1;
nodes = (
(202,222,o),
(243,263,o),
(243,314,cs),
(243,367,o),
(202,408,o),
(142,408,cs),
(81,408,o),
(40,367,o),
(40,314,cs),
(40,263,o),
(81,222,o),
(142,222,cs)
);
}
);
width = 283;
},
{
layerId = "D9A7C259-C59A-4E8E-902E-93D91DDC07B0";
shapes = (
{
closed = 1;
nodes = (
(134,282,o),
(159,307,o),
(159,341,cs),
(159,374,o),
(134,400,o),
(100,400,cs),
(65,400,o),
(40,374,o),
(40,341,cs),
(40,307,o),
(65,282,o),
(100,282,cs)
);
}
);
width = 199;
},
{
layerId = "0D412B41-94F2-47FA-B804-36C251FF5B2C";
shapes = (
{
closed = 1;
nodes = (
(107,306,o),
(126,325,o),
(126,352,cs),
(126,377,o),
(107,397,o),
(83,397,cs),
(59,397,o),
(40,377,o),
(40,352,cs),
(40,325,o),
(59,306,o),
(83,306,cs)
);
}
);
width = 166;
}
);
unicode = 183;
},
{
glyphname = cedilla;
layers = (
{
layerId = "E8646C30-3FF3-473D-8246-41AB9B20E065";
shapes = (
{
closed = 1;
nodes = (
(330,-97,l),
(225,-12,l),
(225,-12,l),
(50,-164,l),
(137,-233,l)
);
}
);
width = 293;
},
{
layerId = "D9A7C259-C59A-4E8E-902E-93D91DDC07B0";
shapes = (
{
closed = 1;
nodes = (
(335,-111,l),
(267,-50,l),
(267,-50,l),
(112,-177,l),
(162,-222,l)
);
}
);
width = 231;
},
{
layerId = "0D412B41-94F2-47FA-B804-36C251FF5B2C";
shapes = (
{
closed = 1;
nodes = (
(319,-102,l),
(271,-60,l),
(271,-60,l),
(120,-177,l),
(153,-204,l)
);
}
);
width = 206;
}
);
unicode = 184;
},
{
glyphname = ordmasculine;
layers = (
{
layerId = "0D412B41-94F2-47FA-B804-36C251FF5B2C";
shapes = (
{
closed = 1;
nodes = (
(295,357,o),
(369,427,o),
(369,533,cs),
(369,638,o),
(296,708,o),
(201,708,cs),
(106,708,o),
(33,638,o),
(33,533,cs),
(33,427,o),
(105,357,o),
(200,357,cs)
);
},
{
closed = 1;
nodes = (
(144,408,o),
(94,450,o),
(94,533,cs),
(94,615,o),
(145,657,o),
(201,657,cs),
(257,657,o),
(308,615,o),
(308,533,cs),
(308,450,o),
(257,408,o),
(200,408,cs)
);
}
);
width = 401;
},
{
layerId = "E8646C30-3FF3-473D-8246-41AB9B20E065";
shapes = (
{
closed = 1;
nodes = (
(309,360,o),
(385,434,o),
(385,536,cs),
(385,637,o),
(309,711,o),
(210,711,cs),
(110,711,o),
(34,637,o),
(34,536,cs),
(34,434,o),
(110,360,o),
(210,360,cs)
);
},
{
closed = 1;
nodes = (
(176,460,o),
(151,485,o),
(151,536,cs),
(151,586,o),
(176,611,o),
(210,611,cs),
(243,611,o),
(267,586,o),
(267,536,cs),
(267,485,o),
(243,460,o),
(210,460,cs)
);
}
);
width = 419;
},
{
layerId = "D9A7C259-C59A-4E8E-902E-93D91DDC07B0";
shapes = (
{
closed = 1;
nodes = (
(299,358,o),
(374,429,o),
(374,534,cs),
(374,638,o),
(300,709,o),
(204,709,cs),
(107,709,o),
(33,638,o),
(33,534,cs),
(33,429,o),
(106,358,o),
(203,358,cs)
);
},
{
closed = 1;
nodes = (
(153,423,o),
(110,460,o),
(110,534,cs),
(110,607,o),
(154,644,o),
(204,644,cs),
(253,644,o),
(296,607,o),
(296,534,cs),
(296,460,o),
(253,423,o),
(203,423,cs)
);
}
);
width = 406;
}
);
unicode = 186;
},
{
glyphname = guillemotright;
layers = (
{
layerId = "E8646C30-3FF3-473D-8246-41AB9B20E065";
shapes = (
{
closed = 1;
nodes = (
(275,120,l),
(433,120,l),
(517,295,l),
(433,470,l),
(275,470,l),
(362,295,l)
);
},
{
closed = 1;
nodes = (
(50,120,l),
(208,120,l),
(292,295,l),
(208,470,l),
(50,470,l),
(137,295,l)
);
}
);
width = 557;
},
{
layerId = "D9A7C259-C59A-4E8E-902E-93D91DDC07B0";
shapes = (
{
closed = 1;
nodes = (
(230,120,l),
(317,120,l),
(413,295,l),
(317,470,l),
(230,470,l),
(329,295,l)
);
},
{
closed = 1;
nodes = (
(50,120,l),
(137,120,l),
(233,295,l),
(137,470,l),
(50,470,l),
(149,295,l)
);
}
);
width = 457;
},
{
layerId = "0D412B41-94F2-47FA-B804-36C251FF5B2C";
shapes = (
{
closed = 1;
nodes = (
(212,120,l),
(270,120,l),
(371,295,l),
(270,470,l),
(212,470,l),
(316,295,l)
);
},
{
closed = 1;
nodes = (
(50,120,l),
(108,120,l),
(209,295,l),
(108,470,l),
(50,470,l),
(154,295,l)
);
}
);
width = 417;
}
);
unicode = 187;
},
{
glyphname = onequarter;
layers = (
{
layerId = "E8646C30-3FF3-473D-8246-41AB9B20E065";
shapes = (
{
closed = 1;
nodes = (
(221,352,l),
(221,704,l),
(152,704,l),
(20,650,l),
(20,571,l),
(92,585,l),
(92,352,l)
);
},
{
closed = 1;
nodes = (
(336,0,l),
(719,700,l),
(554,700,l),
(171,0,l)
);
},
{
closed = 1;
nodes = (
(929,0,l),
(929,100,l),
(755,100,l),
(816,130,ls),
(899,170,o),
(934,202,o),
(934,251,cs),
(934,305,o),
(889,362,o),
(786,362,cs),
(681,362,o),
(620,309,o),
(615,234,c),
(743,234,l),
(745,257,o),
(755,270,o),
(773,270,cs),
(788,270,o),
(798,259,o),
(798,242,cs),
(798,216,o),
(779,194,o),
(742,170,c),
(620,96,l),
(620,0,l)
);
}
);
width = 964;
},
{
layerId = "0D412B41-94F2-47FA-B804-36C251FF5B2C";
shapes = (
{
closed = 1;
nodes = (
(144,352,l),
(144,704,l),
(109,704,l),
(32,666,l),
(32,636,l),
(97,656,l),
(97,352,l)
);
},
{
closed = 1;
nodes = (
(102,0,l),
(520,700,l),
(461,700,l),
(46,0,l)
);
},
{
closed = 1;
nodes = (
(618,0,l),
(618,38,l),
(438,38,l),
(521,108,ls),
(581,157,o),
(610,196,o),
(610,252,cs),
(610,314,o),
(564,356,o),
(497,356,cs),
(421,356,o),
(383,309,o),
(379,252,c),
(426,252,l),
(432,296,o),
(455,319,o),
(495,319,cs),
(532,319,o),
(562,297,o),
(562,250,cs),
(562,199,o),
(529,164,o),
(490,130,cs),
(380,32,l),
(380,0,l)
);
}
);
width = 658;
},
{
layerId = "D9A7C259-C59A-4E8E-902E-93D91DDC07B0";
shapes = (
{
closed = 1;
nodes = (
(165,352,l),
(165,704,l),
(120,704,l),
(28,661,l),
(28,617,l),
(95,635,l),
(95,352,l)
);
},
{
closed = 1;
nodes = (
(174,0,l),
(580,700,l),
(491,700,l),
(85,0,l)
);
},
{
closed = 1;
nodes = (
(718,0,l),
(718,57,l),
(538,57,l),
(618,115,ls),
(682,161,o),
(715,196,o),
(715,251,cs),
(715,310,o),
(669,358,o),
(591,358,cs),
(507,358,o),
(462,309,o),
(458,247,c),
(529,247,l),
(533,283,o),
(553,305,o),
(587,305,cs),
(617,305,o),
(640,285,o),
(640,248,cs),
(640,204,o),
(611,173,o),
(573,142,cs),
(460,51,l),
(460,0,l)
);
}
);
width = 758;
}
);
unicode = 188;
},
{
glyphname = onehalf;
layers = (
{
layerId = "E8646C30-3FF3-473D-8246-41AB9B20E065";
shapes = (
{
closed = 1;
nodes = (
(221,352,l),
(221,704,l),
(152,704,l),
(20,650,l),
(20,571,l),
(92,585,l),
(92,352,l)
);
},
{
closed = 1;
nodes = (
(336,0,l),
(719,700,l),
(554,700,l),
(171,0,l)
);
},
{
closed = 1;
nodes = (
(875,0,l),
(875,57,l),
(906,57,l),
(906,138,l),
(875,138,l),
(875,348,l),
(738,348,l),
(591,138,l),
(591,57,l),
(751,57,l),
(751,0,l)
);
},
{
closed = 1;
nodes = (
(760,212,l),
(760,212,l),
(760,138,l),
(715,138,l)
);
}
);
width = 931;
},
{
layerId = "0D412B41-94F2-47FA-B804-36C251FF5B2C";
shapes = (
{
closed = 1;
nodes = (
(144,352,l),
(144,704,l),
(109,704,l),
(32,666,l),
(32,636,l),
(97,656,l),
(97,352,l)
);
},
{
closed = 1;
nodes = (
(102,0,l),
(520,700,l),
(461,700,l),
(46,0,l)
);
},
{
closed = 1;
nodes = (
(555,0,l),
(555,71,l),
(608,71,l),
(608,111,l),
(555,111,l),
(555,348,l),
(502,348,l),
(332,108,l),
(332,71,l),
(509,71,l),
(509,0,l)
);
},
{
closed = 1;
nodes = (
(513,298,l),
(513,298,l),
(513,111,l),
(383,111,l)
);
}
);
width = 618;
},
{
layerId = "D9A7C259-C59A-4E8E-902E-93D91DDC07B0";
shapes = (
{
closed = 1;
nodes = (
(165,352,l),
(165,704,l),
(120,704,l),
(28,661,l),
(28,617,l),
(95,635,l),
(95,352,l)
);
},
{
closed = 1;
nodes = (
(174,0,l),
(580,700,l),
(491,700,l),
(85,0,l)
);
},
{
closed = 1;
nodes = (
(657,0,l),
(657,65,l),
(702,65,l),
(702,121,l),
(657,121,l),
(657,348,l),
(580,348,l),
(417,117,l),
(417,65,l),
(588,65,l),
(588,0,l)
);
},
{
closed = 1;
nodes = (
(593,272,l),
(593,272,l),
(593,121,l),
(490,121,l)
);
}
);
width = 719;
}
);
unicode = 189;
},
{
glyphname = threequarters;
layers = (
{
layerId = "E8646C30-3FF3-473D-8246-41AB9B20E065";
shapes = (
{
closed = 1;
nodes = (
(285,348,o),
(349,387,o),
(349,449,cs),
(349,491,o),
(323,517,o),
(275,530,c),
(275,533,l),
(317,542,o),
(343,567,o),
(343,609,cs),
(343,669,o),
(282,714,o),
(189,714,cs),
(73,714,o),
(23,656,o),
(21,592,c),
(143,592,l),
(146,613,o),
(156,623,o),
(175,623,cs),
(195,623,o),
(206,612,o),
(206,594,cs),
(206,571,o),
(192,561,o),
(167,561,cs),
(139,561,l),
(139,505,l),
(173,505,ls),
(197,505,o),
(212,494,o),
(212,471,cs),
(212,449,o),
(199,439,o),
(181,439,cs),
(162,439,o),
(150,448,o),
(148,470,c),
(15,470,l),
(20,396,o),
(71,348,o),
(189,348,cs)
);
},
{
closed = 1;
nodes = (
(409,0,l),
(792,700,l),
(627,700,l),
(244,0,l)
);
},
{
closed = 1;
nodes = (
(948,0,l),
(948,57,l),
(979,57,l),
(979,138,l),
(948,138,l),
(948,348,l),
(811,348,l),
(664,138,l),
(664,57,l),
(824,57,l),
(824,0,l)
);
},
{
closed = 1;
nodes = (
(833,212,l),
(833,212,l),
(833,138,l),
(788,138,l)
);
}
);
width = 1004;
},
{
layerId = "0D412B41-94F2-47FA-B804-36C251FF5B2C";
shapes = (
{
closed = 1;
nodes = (
(235,347,o),
(280,391,o),
(280,444,cs),
(280,490,o),
(250,519,o),
(209,529,c),
(209,530,l),
(250,540,o),
(277,568,o),
(277,611,cs),
(277,669,o),
(223,708,o),
(159,708,cs),
(88,708,o),
(42,671,o),
(36,617,c),
(78,617,l),
(87,649,o),
(111,671,o),
(154,671,cs),
(199,671,o),
(229,646,o),
(229,610,cs),
(229,569,o),
(197,546,o),
(152,546,cs),
(103,546,l),
(103,512,l),
(152,512,ls),
(202,512,o),
(232,487,o),
(232,448,cs),
(232,406,o),
(202,384,o),
(157,384,cs),
(118,384,o),
(83,398,o),
(77,448,c),
(32,448,l),
(38,381,o),
(85,347,o),
(156,347,cs)
);
},
{
closed = 1;
nodes = (
(214,0,l),
(632,700,l),
(573,700,l),
(158,0,l)
);
},
{
closed = 1;
nodes = (
(666,0,l),
(666,71,l),
(719,71,l),
(719,111,l),
(666,111,l),
(666,348,l),
(613,348,l),
(443,108,l),
(443,71,l),
(620,71,l),
(620,0,l)
);
},
{
closed = 1;
nodes = (
(624,298,l),
(624,298,l),
(624,111,l),
(494,111,l)
);
}
);
width = 729;
},
{
layerId = "D9A7C259-C59A-4E8E-902E-93D91DDC07B0";
shapes = (
{
closed = 1;
nodes = (
(247,347,o),
(299,391,o),
(299,444,cs),
(299,488,o),
(270,515,o),
(231,527,c),
(231,529,l),
(271,539,o),
(296,567,o),
(296,608,cs),
(296,666,o),
(240,710,o),
(166,710,cs),
(82,710,o),
(35,666,o),
(29,610,c),
(96,610,l),
(103,638,o),
(123,656,o),
(160,656,cs),
(198,656,o),
(221,636,o),
(221,603,cs),
(221,568,o),
(195,550,o),
(157,550,cs),
(113,550,l),
(113,508,l),
(158,508,ls),
(196,508,o),
(224,488,o),
(224,453,cs),
(224,420,o),
(200,400,o),
(161,400,cs),
(127,400,o),
(101,414,o),
(96,455,c),
(25,455,l),
(31,386,o),
(79,347,o),
(163,347,cs)
);
},
{
closed = 1;
nodes = (
(278,0,l),
(684,700,l),
(595,700,l),
(189,0,l)
);
},
{
closed = 1;
nodes = (
(761,0,l),
(761,65,l),
(806,65,l),
(806,121,l),
(761,121,l),
(761,348,l),
(684,348,l),
(521,117,l),
(521,65,l),
(692,65,l),
(692,0,l)
);
},
{
closed = 1;
nodes = (
(697,272,l),
(697,272,l),
(697,121,l),
(594,121,l)
);
}
);
width = 823;
}
);
unicode = 190;
},
{
glyphname = questiondown;
layers = (
{
layerId = "E8646C30-3FF3-473D-8246-41AB9B20E065";
shapes = (
{
closed = 1;
nodes = (
(285,325,l),
(285,311,l),
(285,295,o),
(275,287,o),
(259,279,cs),
(170,234,ls),
(102,199,o),
(53,147,o),
(53,63,cs),
(53,-72,o),
(150,-148,o),
(290,-148,cs),
(448,-148,o),
(531,-52,o),
(528,67,c),
(366,67,l),
(366,23,o),
(340,-8,o),
(291,-8,cs),
(248,-8,o),
(220,21,o),
(220,62,cs),
(220,90,o),
(259,124,o),
(295,142,cs),
(356,173,ls),
(408,199,o),
(420,224,o),
(420,279,cs),
(420,325,l)
);
},
{
closed = 1;
nodes = (
(294,572,o),
(253,531,o),
(253,480,cs),
(253,427,o),
(294,386,o),
(354,386,cs),
(415,386,o),
(456,427,o),
(456,480,cs),
(456,531,o),
(415,572,o),
(354,572,cs)
);
}
);
width = 538;
},
{
layerId = "D9A7C259-C59A-4E8E-902E-93D91DDC07B0";
shapes = (
{
closed = 1;
nodes = (
(263,362,l),
(263,311,ls),
(263,281,o),
(259,274,o),
(233,262,cs),
(187,240,ls),
(105,202,o),
(48,137,o),
(48,42,cs),
(48,-84,o),
(140,-163,o),
(270,-163,cs),
(402,-163,o),
(490,-82,o),
(489,38,c),
(404,38,l),
(404,-39,o),
(353,-88,o),
(270,-88,cs),
(189,-88,o),
(134,-38,o),
(134,42,cs),
(134,115,o),
(180,153,o),
(248,182,cs),
(283,198,l),
(341,222,o),
(345,243,o),
(345,305,cs),
(345,362,l)
);
},
{
closed = 1;
nodes = (
(267,555,o),
(242,529,o),
(242,495,cs),
(242,462,o),
(267,437,o),
(301,437,cs),
(336,437,o),
(361,462,o),
(361,495,cs),
(361,529,o),
(336,555,o),
(301,555,cs)
);
}
);
width = 517;
},
{
layerId = "0D412B41-94F2-47FA-B804-36C251FF5B2C";
shapes = (
{
closed = 1;
nodes = (
(254,377,l),
(254,303,ls),
(254,268,o),
(252,257,o),
(222,244,cs),
(194,232,ls),
(105,194,o),
(46,133,o),
(46,34,cs),
(46,-88,o),
(135,-169,o),
(261,-169,cs),
(382,-169,o),
(472,-95,o),
(473,26,c),
(420,26,l),
(420,-65,o),
(358,-121,o),
(261,-121,cs),
(164,-121,o),
(98,-62,o),
(98,34,cs),
(98,107,o),
(132,149,o),
(228,188,cs),
(253,198,ls),
(313,221,o),
(314,243,o),
(314,308,cs),
(314,377,l)
);
},
{
closed = 1;
nodes = (
(260,548,o),
(241,528,o),
(241,501,cs),
(241,476,o),
(260,457,o),
(284,457,cs),
(308,457,o),
(327,476,o),
(327,501,cs),
(327,528,o),
(308,548,o),
(284,548,cs)
);
}
);
width = 508;
}
);
unicode = 191;
},
{
glyphname = Agrave;
layers = (
{
layerId = "E8646C30-3FF3-473D-8246-41AB9B20E065";
shapes = (
{
closed = 1;
nodes = (
(16,0,l),
(195,0,l),
(244,144,l),
(492,144,l),
(541,0,l),
(722,0,l),
(468,700,l),
(270,700,l)
);
},
{
closed = 1;
nodes = (
(448,276,l),
(289,276,l),
(368,511,l)
);
},
{
closed = 1;
nodes = (
(509,824,l),
(303,972,l),
(303,972,l),
(233,871,l),
(451,739,l)
);
}
);
width = 738;
},
{
layerId = "D9A7C259-C59A-4E8E-902E-93D91DDC07B0";
shapes = (
{
closed = 1;
nodes = (
(29,0,l),
(122,0,l),
(186,178,l),
(481,178,l),
(545,0,l),
(638,0,l),
(381,700,l),
(287,700,l)
);
},
{
closed = 1;
nodes = (
(456,250,l),
(211,250,l),
(334,590,l)
);
},
{
closed = 1;
nodes = (
(444,795,l),
(267,924,l),
(267,924,l),
(218,854,l),
(407,739,l)
);
}
);
width = 667;
},
{
layerId = "0D412B41-94F2-47FA-B804-36C251FF5B2C";
shapes = (
{
closed = 1;
nodes = (
(34,0,l),
(93,0,l),
(163,192,l),
(476,192,l),
(547,0,l),
(605,0,l),
(346,700,l),
(294,700,l)
);
},
{
closed = 1;
nodes = (
(459,239,l),
(180,239,l),
(320,621,l)
);
},
{
closed = 1;
nodes = (
(411,772,l),
(244,893,l),
(244,893,l),
(212,848,l),
(389,739,l)
);
}
);
width = 639;
}
);
leftKerningGroup = A2;
rightKerningGroup = A;
unicode = 192;
},
{
glyphname = Aacute;
layers = (
{
layerId = "E8646C30-3FF3-473D-8246-41AB9B20E065";
shapes = (
{
closed = 1;
nodes = (
(16,0,l),
(195,0,l),
(244,144,l),
(492,144,l),
(541,0,l),
(722,0,l),
(468,700,l),
(270,700,l)
);
},
{
closed = 1;
nodes = (
(448,276,l),
(289,276,l),
(368,511,l)
);
},
{
closed = 1;
nodes = (
(540,871,l),
(470,972,l),
(470,972,l),
(264,824,l),
(322,739,l)
);
}
);
width = 738;
},
{
layerId = "D9A7C259-C59A-4E8E-902E-93D91DDC07B0";
shapes = (
{
closed = 1;
nodes = (
(29,0,l),
(122,0,l),
(186,178,l),
(481,178,l),
(545,0,l),
(638,0,l),
(381,700,l),
(287,700,l)
);
},
{
closed = 1;
nodes = (
(456,250,l),
(211,250,l),
(334,590,l)
);
},
{
closed = 1;
nodes = (
(466,854,l),
(417,924,l),
(417,924,l),
(240,795,l),
(277,739,l)
);
}
);
width = 667;
},
{
layerId = "0D412B41-94F2-47FA-B804-36C251FF5B2C";
shapes = (
{
closed = 1;
nodes = (
(34,0,l),
(93,0,l),
(163,192,l),
(476,192,l),
(547,0,l),
(605,0,l),
(346,700,l),
(294,700,l)
);
},
{
closed = 1;
nodes = (
(459,239,l),
(180,239,l),
(320,621,l)
);
},
{
closed = 1;
nodes = (
(429,848,l),
(397,893,l),
(397,893,l),
(230,772,l),
(252,739,l)
);
}
);
width = 639;
}
);
leftKerningGroup = A2;
rightKerningGroup = A;
unicode = 193;
},
{
glyphname = Acircumflex;
layers = (
{
layerId = "E8646C30-3FF3-473D-8246-41AB9B20E065";
shapes = (
{
closed = 1;
nodes = (
(16,0,l),
(195,0,l),
(244,144,l),
(492,144,l),
(541,0,l),
(722,0,l),
(468,700,l),
(270,700,l)
);
},
{
closed = 1;
nodes = (
(448,276,l),
(289,276,l),
(368,511,l)
);
},
{
closed = 1;
nodes = (
(214,738,l),
(369,820,l),
(524,738,l),
(524,856,l),
(369,935,l),
(214,856,l)
);
}
);
width = 738;
},
{
layerId = "D9A7C259-C59A-4E8E-902E-93D91DDC07B0";
shapes = (
{
closed = 1;
nodes = (
(29,0,l),
(122,0,l),
(186,178,l),
(481,178,l),
(545,0,l),
(638,0,l),
(381,700,l),
(287,700,l)
);
},
{
closed = 1;
nodes = (
(456,250,l),
(211,250,l),
(334,590,l)
);
},
{
closed = 1;
nodes = (
(197,754,l),
(335,838,l),
(473,754,l),
(473,822,l),
(335,904,l),
(197,822,l)
);
}
);
width = 667;
},
{
layerId = "0D412B41-94F2-47FA-B804-36C251FF5B2C";
shapes = (
{
closed = 1;
nodes = (
(34,0,l),
(93,0,l),
(163,192,l),
(476,192,l),
(547,0,l),
(605,0,l),
(346,700,l),
(294,700,l)
);
},
{
closed = 1;
nodes = (
(459,239,l),
(180,239,l),
(320,621,l)
);
},
{
closed = 1;
nodes = (
(190,761,l),
(321,845,l),
(452,761,l),
(452,809,l),
(321,891,l),
(190,809,l)
);
}
);
width = 639;
}
);
leftKerningGroup = A2;
rightKerningGroup = A;
unicode = 194;
},
{
glyphname = Adieresis;
layers = (
{
layerId = "E8646C30-3FF3-473D-8246-41AB9B20E065";
shapes = (
{
closed = 1;
nodes = (
(16,0,l),
(195,0,l),
(244,144,l),
(492,144,l),
(541,0,l),
(722,0,l),
(468,700,l),
(270,700,l)
);
},
{
closed = 1;
nodes = (
(448,276,l),
(289,276,l),
(368,511,l)
);
},
{
closed = 1;
nodes = (
(522,762,o),
(553,794,o),
(553,835,cs),
(553,878,o),
(522,909,o),
(479,909,cs),
(438,909,o),
(406,878,o),
(406,835,cs),
(406,794,o),
(438,762,o),
(479,762,cs)
);
},
{
closed = 1;
nodes = (
(322,762,o),
(353,794,o),
(353,835,cs),
(353,878,o),
(322,909,o),
(279,909,cs),
(238,909,o),
(206,878,o),
(206,835,cs),
(206,794,o),
(238,762,o),
(279,762,cs)
);
}
);
width = 639;
},
{
layerId = "D9A7C259-C59A-4E8E-902E-93D91DDC07B0";
shapes = (
{
closed = 1;
nodes = (
(29,0,l),
(122,0,l),
(186,178,l),
(481,178,l),
(545,0,l),
(638,0,l),
(381,700,l),
(287,700,l)
);
},
{
closed = 1;
nodes = (
(456,250,l),
(211,250,l),
(334,590,l)
);
},
{
closed = 1;
nodes = (
(448,774,o),
(469,797,o),
(469,825,cs),
(469,854,o),
(448,876,o),
(419,876,cs),
(390,876,o),
(368,854,o),
(368,825,cs),
(368,797,o),
(390,774,o),
(419,774,cs)
);
},
{
closed = 1;
nodes = (
(286,774,o),
(308,797,o),
(308,825,cs),
(308,854,o),
(286,876,o),
(257,876,cs),
(228,876,o),
(206,854,o),
(206,825,cs),
(206,797,o),
(228,774,o),
(257,774,cs)
);
}
);
width = 639;
},
{
layerId = "0D412B41-94F2-47FA-B804-36C251FF5B2C";
shapes = (
{
closed = 1;
nodes = (
(34,0,l),
(93,0,l),
(163,192,l),
(476,192,l),
(547,0,l),
(605,0,l),
(346,700,l),
(294,700,l)
);
},
{
closed = 1;
nodes = (
(459,239,l),
(180,239,l),
(320,621,l)
);
},
{
closed = 1;
nodes = (
(418,779,o),
(436,798,o),
(436,821,cs),
(436,844,o),
(418,863,o),
(395,863,cs),
(371,863,o),
(353,844,o),
(353,821,cs),
(353,798,o),
(371,779,o),
(395,779,cs)
);
},
{
closed = 1;
nodes = (
(271,779,o),
(290,798,o),
(290,821,cs),
(290,844,o),
(271,863,o),
(248,863,cs),
(224,863,o),
(206,844,o),
(206,821,cs),
(206,798,o),
(224,779,o),
(248,779,cs)
);
}
);
width = 639;
}
);
leftKerningGroup = A2;
rightKerningGroup = A;
unicode = 196;
},
{
glyphname = Aring;
layers = (
{
layerId = "E8646C30-3FF3-473D-8246-41AB9B20E065";
shapes = (
{
closed = 1;
nodes = (
(16,0,l),
(195,0,l),
(244,144,l),
(492,144,l),
(541,0,l),
(722,0,l),
(468,700,l),
(270,700,l)
);
},
{
closed = 1;
nodes = (
(448,276,l),
(289,276,l),
(368,511,l)
);
},
{
closed = 1;
nodes = (
(437,741,o),
(492,787,o),
(492,862,cs),
(492,937,o),
(437,983,o),
(369,983,cs),
(301,983,o),
(247,937,o),
(247,862,cs),
(247,787,o),
(301,741,o),
(369,741,cs)
);
},
{
closed = 1;
nodes = (
(342,813,o),
(322,833,o),
(322,862,cs),
(322,893,o),
(342,911,o),
(369,911,cs),
(396,911,o),
(417,893,o),
(417,862,cs),
(417,833,o),
(396,813,o),
(369,813,cs)
);
}
);
width = 738;
},
{
layerId = "D9A7C259-C59A-4E8E-902E-93D91DDC07B0";
shapes = (
{
closed = 1;
nodes = (
(29,0,l),
(122,0,l),
(186,178,l),
(481,178,l),
(545,0,l),
(638,0,l),
(381,700,l),
(287,700,l)
);
},
{
closed = 1;
nodes = (
(456,250,l),
(211,250,l),
(334,590,l)
);
},
{
closed = 1;
nodes = (
(394,760,o),
(440,799,o),
(440,863,cs),
(440,928,o),
(394,967,o),
(335,967,cs),
(277,967,o),
(229,928,o),
(229,863,cs),
(229,799,o),
(277,760,o),
(335,760,cs)
);
},
{
closed = 1;
nodes = (
(303,805,o),
(278,827,o),
(278,863,cs),
(278,901,o),
(303,922,o),
(335,922,cs),
(367,922,o),
(392,901,o),
(392,863,cs),
(392,827,o),
(367,805,o),
(335,805,cs)
);
}
);
width = 667;
},
{
layerId = "0D412B41-94F2-47FA-B804-36C251FF5B2C";
shapes = (
{
closed = 1;
nodes = (
(34,0,l),
(93,0,l),
(163,192,l),
(476,192,l),
(547,0,l),
(605,0,l),
(346,700,l),
(294,700,l)
);
},
{
closed = 1;
nodes = (
(459,239,l),
(180,239,l),
(320,621,l)
);
},
{
closed = 1;
nodes = (
(377,767,o),
(420,804,o),
(420,864,cs),
(420,924,o),
(377,961,o),
(321,961,cs),
(268,961,o),
(222,924,o),
(222,864,cs),
(222,804,o),
(268,767,o),
(321,767,cs)
);
},
{
closed = 1;
nodes = (
(288,802,o),
(261,825,o),
(261,864,cs),
(261,904,o),
(288,927,o),
(321,927,cs),
(356,927,o),
(382,904,o),
(382,864,cs),
(382,825,o),
(356,802,o),
(321,802,cs)
);
}
);
width = 639;
}
);
leftKerningGroup = A2;
rightKerningGroup = A;
unicode = 197;
},
{
glyphname = AE;
layers = (
{
layerId = "E8646C30-3FF3-473D-8246-41AB9B20E065";
shapes = (
{
closed = 1;
nodes = (
(16,0,l),
(201,0,l),
(261,118,l),
(492,118,l),
(492,0,l),
(916,0,l),
(916,135,l),
(663,135,l),
(663,293,l),
(886,293,l),
(886,423,l),
(663,423,l),
(663,565,l),
(916,565,l),
(916,700,l),
(375,700,l)
);
},
{
closed = 1;
nodes = (
(492,248,l),
(327,248,l),
(492,573,l)
);
}
);
width = 966;
},
{
layerId = "D9A7C259-C59A-4E8E-902E-93D91DDC07B0";
shapes = (
{
closed = 1;
nodes = (
(29,0,l),
(125,0,l),
(215,157,l),
(481,157,l),
(481,0,l),
(857,0,l),
(857,70,l),
(569,70,l),
(569,319,l),
(827,319,l),
(827,388,l),
(569,388,l),
(569,630,l),
(857,630,l),
(857,700,l),
(426,700,l)
);
},
{
closed = 1;
nodes = (
(481,227,l),
(253,227,l),
(481,628,l)
);
}
);
width = 913;
},
{
layerId = "0D412B41-94F2-47FA-B804-36C251FF5B2C";
shapes = (
{
closed = 1;
nodes = (
(34,0,l),
(95,0,l),
(197,173,l),
(477,173,l),
(477,0,l),
(833,0,l),
(833,44,l),
(532,44,l),
(532,329,l),
(803,329,l),
(803,374,l),
(532,374,l),
(532,656,l),
(833,656,l),
(833,700,l),
(447,700,l)
);
},
{
closed = 1;
nodes = (
(477,218,l),
(223,218,l),
(477,650,l)
);
}
);
width = 892;
}
);
leftKerningGroup = AE;
unicode = 198;
},
{
glyphname = Ccedilla;
layers = (
{
layerId = "E8646C30-3FF3-473D-8246-41AB9B20E065";
shapes = (
{
closed = 1;
nodes = (
(564,-12,o),
(684,81,o),
(711,233,c),
(523,233,l),
(508,173,o),
(461,143,o),
(386,143,cs),
(275,143,o),
(217,220,o),
(217,348,cs),
(217,477,o),
(275,556,o),
(386,556,cs),
(461,556,o),
(508,521,o),
(523,454,c),
(711,454,l),
(684,619,o),
(565,712,o),
(388,712,cs),
(172,712,o),
(43,561,o),
(43,348,cs),
(43,136,o),
(172,-12,o),
(388,-12,cs)
);
},
{
closed = 1;
nodes = (
(467,-95,l),
(362,-10,l),
(362,-10,l),
(187,-162,l),
(274,-231,l)
);
}
);
width = 754;
},
{
layerId = "D9A7C259-C59A-4E8E-902E-93D91DDC07B0";
shapes = (
{
closed = 1;
nodes = (
(543,-12,o),
(645,69,o),
(675,204,c),
(577,204,l),
(557,121,o),
(493,66,o),
(381,66,cs),
(232,66,o),
(138,172,o),
(138,349,cs),
(138,527,o),
(232,634,o),
(381,634,cs),
(493,634,o),
(557,580,o),
(577,492,c),
(675,492,l),
(645,631,o),
(544,712,o),
(382,712,cs),
(175,712,o),
(47,564,o),
(47,349,cs),
(47,135,o),
(175,-12,o),
(382,-12,cs)
);
},
{
closed = 1;
nodes = (
(448,-109,l),
(380,-48,l),
(380,-48,l),
(225,-175,l),
(275,-220,l)
);
}
);
width = 722;
},
{
layerId = "0D412B41-94F2-47FA-B804-36C251FF5B2C";
shapes = (
{
closed = 1;
nodes = (
(535,-12,o),
(630,64,o),
(661,193,c),
(599,193,l),
(576,100,o),
(506,35,o),
(379,35,cs),
(215,35,o),
(106,153,o),
(106,350,cs),
(106,547,o),
(215,665,o),
(379,665,cs),
(506,665,o),
(576,603,o),
(599,507,c),
(661,507,l),
(630,636,o),
(535,712,o),
(379,712,cs),
(176,712,o),
(49,565,o),
(49,350,cs),
(49,134,o),
(176,-12,o),
(379,-12,cs)
);
},
{
closed = 1;
nodes = (
(444,-100,l),
(396,-58,l),
(396,-58,l),
(245,-175,l),
(278,-202,l)
);
}
);
width = 709;
}
);
leftKerningGroup = C2;
rightKerningGroup = C;
unicode = 199;
},
{
glyphname = Egrave;
layers = (
{
layerId = "E8646C30-3FF3-473D-8246-41AB9B20E065";
shapes = (
{
closed = 1;
nodes = (
(62,0,l),
(542,0,l),
(542,137,l),
(233,137,l),
(233,291,l),
(512,291,l),
(512,423,l),
(233,423,l),
(233,563,l),
(542,563,l),
(542,700,l),
(62,700,l)
);
},
{
closed = 1;
nodes = (
(443,824,l),
(237,972,l),
(237,972,l),
(167,871,l),
(385,739,l)
);
}
);
width = 592;
},
{
layerId = "D9A7C259-C59A-4E8E-902E-93D91DDC07B0";
shapes = (
{
closed = 1;
nodes = (
(73,0,l),
(508,0,l),
(508,72,l),
(162,72,l),
(162,317,l),
(478,317,l),
(478,389,l),
(162,389,l),
(162,628,l),
(508,628,l),
(508,700,l),
(73,700,l)
);
},
{
closed = 1;
nodes = (
(405,795,l),
(228,924,l),
(228,924,l),
(179,854,l),
(368,739,l)
);
}
);
width = 565;
},
{
layerId = "0D412B41-94F2-47FA-B804-36C251FF5B2C";
shapes = (
{
closed = 1;
nodes = (
(78,0,l),
(495,0,l),
(495,46,l),
(133,46,l),
(133,328,l),
(465,328,l),
(465,375,l),
(133,375,l),
(133,654,l),
(495,654,l),
(495,700,l),
(78,700,l)
);
},
{
closed = 1;
nodes = (
(383,772,l),
(216,893,l),
(216,893,l),
(184,848,l),
(361,739,l)
);
}
);
width = 554;
}
);
unicode = 200;
},
{
glyphname = Eacute;
layers = (
{
layerId = "E8646C30-3FF3-473D-8246-41AB9B20E065";
shapes = (
{
closed = 1;
nodes = (
(62,0,l),
(542,0,l),
(542,137,l),
(233,137,l),
(233,291,l),
(512,291,l),
(512,423,l),
(233,423,l),
(233,563,l),
(542,563,l),
(542,700,l),
(62,700,l)
);
},
{
closed = 1;
nodes = (
(474,871,l),
(404,972,l),
(404,972,l),
(198,824,l),
(256,739,l)
);
}
);
width = 592;
},
{
layerId = "D9A7C259-C59A-4E8E-902E-93D91DDC07B0";
shapes = (
{
closed = 1;
nodes = (
(73,0,l),
(508,0,l),
(508,72,l),
(162,72,l),
(162,317,l),
(478,317,l),
(478,389,l),
(162,389,l),
(162,628,l),
(508,628,l),
(508,700,l),
(73,700,l)
);
},
{
closed = 1;
nodes = (
(426,854,l),
(377,924,l),
(377,924,l),
(200,795,l),
(237,739,l)
);
}
);
width = 565;
},
{
layerId = "0D412B41-94F2-47FA-B804-36C251FF5B2C";
shapes = (
{
closed = 1;
nodes = (
(78,0,l),
(495,0,l),
(495,46,l),
(133,46,l),
(133,328,l),
(465,328,l),
(465,375,l),
(133,375,l),
(133,654,l),
(495,654,l),
(495,700,l),
(78,700,l)
);
},
{
closed = 1;
nodes = (
(400,848,l),
(368,893,l),
(368,893,l),
(201,772,l),
(223,739,l)
);
}
);
width = 554;
}
);
unicode = 201;
},
{
glyphname = Ecircumflex;
layers = (
{
layerId = "E8646C30-3FF3-473D-8246-41AB9B20E065";
shapes = (
{
closed = 1;
nodes = (
(62,0,l),
(542,0,l),
(542,137,l),
(233,137,l),
(233,291,l),
(512,291,l),
(512,423,l),
(233,423,l),
(233,563,l),
(542,563,l),
(542,700,l),
(62,700,l)
);
},
{
closed = 1;
nodes = (
(503,827,l),
(295,973,l),
(89,825,l),
(147,740,l),
(298,831,l),
(445,742,l)
);
}
);
width = 592;
},
{
layerId = "D9A7C259-C59A-4E8E-902E-93D91DDC07B0";
shapes = (
{
closed = 1;
nodes = (
(73,0,l),
(508,0,l),
(508,72,l),
(162,72,l),
(162,317,l),
(478,317,l),
(478,389,l),
(162,389,l),
(162,628,l),
(508,628,l),
(508,700,l),
(73,700,l)
);
},
{
closed = 1;
nodes = (
(460,856,l),
(283,985,l),
(106,856,l),
(143,800,l),
(283,885,l),
(423,800,l)
);
}
);
width = 565;
},
{
layerId = "0D412B41-94F2-47FA-B804-36C251FF5B2C";
shapes = (
{
closed = 1;
nodes = (
(78,0,l),
(495,0,l),
(495,46,l),
(133,46,l),
(133,328,l),
(465,328,l),
(465,375,l),
(133,375,l),
(133,654,l),
(495,654,l),
(495,700,l),
(78,700,l)
);
},
{
closed = 1;
nodes = (
(445,833,l),
(276,954,l),
(109,833,l),
(131,800,l),
(277,890,l),
(423,800,l)
);
}
);
width = 554;
}
);
unicode = 202;
},
{
glyphname = Edieresis;
layers = (
{
layerId = "E8646C30-3FF3-473D-8246-41AB9B20E065";
shapes = (
{
closed = 1;
nodes = (
(62,0,l),
(542,0,l),
(542,137,l),
(233,137,l),
(233,291,l),
(512,291,l),
(512,423,l),
(233,423,l),
(233,563,l),
(542,563,l),
(542,700,l),
(62,700,l)
);
},
{
closed = 1;
nodes = (
(494,762,o),
(525,794,o),
(525,835,cs),
(525,878,o),
(494,909,o),
(451,909,cs),
(410,909,o),
(378,878,o),
(378,835,cs),
(378,794,o),
(410,762,o),
(451,762,cs)
);
},
{
closed = 1;
nodes = (
(294,762,o),
(325,794,o),
(325,835,cs),
(325,878,o),
(294,909,o),
(251,909,cs),
(210,909,o),
(178,878,o),
(178,835,cs),
(178,794,o),
(210,762,o),
(251,762,cs)
);
}
);
width = 554;
},
{
layerId = "D9A7C259-C59A-4E8E-902E-93D91DDC07B0";
shapes = (
{
closed = 1;
nodes = (
(73,0,l),
(508,0,l),
(508,72,l),
(162,72,l),
(162,317,l),
(478,317,l),
(478,389,l),
(162,389,l),
(162,628,l),
(508,628,l),
(508,700,l),
(73,700,l)
);
},
{
closed = 1;
nodes = (
(420,774,o),
(441,797,o),
(441,825,cs),
(441,854,o),
(420,876,o),
(391,876,cs),
(362,876,o),
(340,854,o),
(340,825,cs),
(340,797,o),
(362,774,o),
(391,774,cs)
);
},
{
closed = 1;
nodes = (
(258,774,o),
(280,797,o),
(280,825,cs),
(280,854,o),
(258,876,o),
(229,876,cs),
(200,876,o),
(178,854,o),
(178,825,cs),
(178,797,o),
(200,774,o),
(229,774,cs)
);
}
);
width = 554;
},
{
layerId = "0D412B41-94F2-47FA-B804-36C251FF5B2C";
shapes = (
{
closed = 1;
nodes = (
(78,0,l),
(495,0,l),
(495,46,l),
(133,46,l),
(133,328,l),
(465,328,l),
(465,375,l),
(133,375,l),
(133,654,l),
(495,654,l),
(495,700,l),
(78,700,l)
);
},
{
closed = 1;
nodes = (
(390,779,o),
(408,798,o),
(408,821,cs),
(408,844,o),
(390,863,o),
(367,863,cs),
(343,863,o),
(325,844,o),
(325,821,cs),
(325,798,o),
(343,779,o),
(367,779,cs)
);
},
{
closed = 1;
nodes = (
(243,779,o),
(262,798,o),
(262,821,cs),
(262,844,o),
(243,863,o),
(220,863,cs),
(196,863,o),
(178,844,o),
(178,821,cs),
(178,798,o),
(196,779,o),
(220,779,cs)
);
}
);
width = 554;
}
);
unicode = 203;
},
{
glyphname = Igrave;
layers = (
{
layerId = "E8646C30-3FF3-473D-8246-41AB9B20E065";
shapes = (
{
closed = 1;
nodes = (
(62,0,l),
(233,0,l),
(233,700,l),
(62,700,l)
);
},
{
closed = 1;
nodes = (
(288,824,l),
(82,972,l),
(82,972,l),
(12,871,l),
(230,739,l)
);
}
);
width = 295;
},
{
layerId = "D9A7C259-C59A-4E8E-902E-93D91DDC07B0";
shapes = (
{
closed = 1;
nodes = (
(73,0,l),
(162,0,l),
(162,700,l),
(73,700,l)
);
},
{
closed = 1;
nodes = (
(227,795,l),
(50,924,l),
(50,924,l),
(1,854,l),
(190,739,l)
);
}
);
width = 235;
},
{
layerId = "0D412B41-94F2-47FA-B804-36C251FF5B2C";
shapes = (
{
closed = 1;
nodes = (
(78,0,l),
(133,0,l),
(133,700,l),
(78,700,l)
);
},
{
closed = 1;
nodes = (
(196,772,l),
(29,893,l),
(29,893,l),
(-3,848,l),
(174,739,l)
);
}
);
width = 211;
}
);
unicode = 204;
},
{
glyphname = Iacute;
layers = (
{
layerId = "E8646C30-3FF3-473D-8246-41AB9B20E065";
shapes = (
{
closed = 1;
nodes = (
(62,0,l),
(233,0,l),
(233,700,l),
(62,700,l)
);
},
{
closed = 1;
nodes = (
(319,871,l),
(249,972,l),
(249,972,l),
(43,824,l),
(101,739,l)
);
}
);
width = 295;
},
{
layerId = "D9A7C259-C59A-4E8E-902E-93D91DDC07B0";
shapes = (
{
closed = 1;
nodes = (
(73,0,l),
(162,0,l),
(162,700,l),
(73,700,l)
);
},
{
closed = 1;
nodes = (
(248,854,l),
(199,924,l),
(199,924,l),
(22,795,l),
(59,739,l)
);
}
);
width = 235;
},
{
layerId = "0D412B41-94F2-47FA-B804-36C251FF5B2C";
shapes = (
{
closed = 1;
nodes = (
(78,0,l),
(133,0,l),
(133,700,l),
(78,700,l)
);
},
{
closed = 1;
nodes = (
(213,848,l),
(181,893,l),
(181,893,l),
(14,772,l),
(36,739,l)
);
}
);
width = 211;
}
);
unicode = 205;
},
{
glyphname = Icircumflex;
layers = (
{
layerId = "E8646C30-3FF3-473D-8246-41AB9B20E065";
shapes = (
{
closed = 1;
nodes = (
(62,0,l),
(233,0,l),
(233,700,l),
(62,700,l)
);
},
{
closed = 1;
nodes = (
(357,827,l),
(149,973,l),
(-57,825,l),
(1,740,l),
(152,831,l),
(299,742,l)
);
}
);
width = 295;
},
{
layerId = "D9A7C259-C59A-4E8E-902E-93D91DDC07B0";
shapes = (
{
closed = 1;
nodes = (
(73,0,l),
(162,0,l),
(162,700,l),
(73,700,l)
);
},
{
closed = 1;
nodes = (
(297,856,l),
(120,985,l),
(-57,856,l),
(-20,800,l),
(120,885,l),
(260,800,l)
);
}
);
width = 235;
},
{
layerId = "0D412B41-94F2-47FA-B804-36C251FF5B2C";
shapes = (
{
closed = 1;
nodes = (
(78,0,l),
(133,0,l),
(133,700,l),
(78,700,l)
);
},
{
closed = 1;
nodes = (
(276,833,l),
(107,954,l),
(-60,833,l),
(-38,800,l),
(108,890,l),
(254,800,l)
);
}
);
width = 211;
}
);
unicode = 206;
},
{
glyphname = Idieresis;
layers = (
{
layerId = "E8646C30-3FF3-473D-8246-41AB9B20E065";
shapes = (
{
closed = 1;
nodes = (
(62,0,l),
(233,0,l),
(233,700,l),
(62,700,l)
);
},
{
closed = 1;
nodes = (
(307,762,o),
(338,794,o),
(338,835,cs),
(338,878,o),
(307,909,o),
(264,909,cs),
(223,909,o),
(191,878,o),
(191,835,cs),
(191,794,o),
(223,762,o),
(264,762,cs)
);
},
{
closed = 1;
nodes = (
(107,762,o),
(138,794,o),
(138,835,cs),
(138,878,o),
(107,909,o),
(64,909,cs),
(23,909,o),
(-9,878,o),
(-9,835,cs),
(-9,794,o),
(23,762,o),
(64,762,cs)
);
}
);
width = 211;
},
{
layerId = "D9A7C259-C59A-4E8E-902E-93D91DDC07B0";
shapes = (
{
closed = 1;
nodes = (
(73,0,l),
(162,0,l),
(162,700,l),
(73,700,l)
);
},
{
closed = 1;
nodes = (
(233,774,o),
(254,797,o),
(254,825,cs),
(254,854,o),
(233,876,o),
(204,876,cs),
(175,876,o),
(153,854,o),
(153,825,cs),
(153,797,o),
(175,774,o),
(204,774,cs)
);
},
{
closed = 1;
nodes = (
(71,774,o),
(93,797,o),
(93,825,cs),
(93,854,o),
(71,876,o),
(42,876,cs),
(13,876,o),
(-9,854,o),
(-9,825,cs),
(-9,797,o),
(13,774,o),
(42,774,cs)
);
}
);
width = 211;
},
{
layerId = "0D412B41-94F2-47FA-B804-36C251FF5B2C";
shapes = (
{
closed = 1;
nodes = (
(78,0,l),
(133,0,l),
(133,700,l),
(78,700,l)
);
},
{
closed = 1;
nodes = (
(203,779,o),
(221,798,o),
(221,821,cs),
(221,844,o),
(203,863,o),
(180,863,cs),
(156,863,o),
(138,844,o),
(138,821,cs),
(138,798,o),
(156,779,o),
(180,779,cs)
);
},
{
closed = 1;
nodes = (
(56,779,o),
(75,798,o),
(75,821,cs),
(75,844,o),
(56,863,o),
(33,863,cs),
(9,863,o),
(-9,844,o),
(-9,821,cs),
(-9,798,o),
(9,779,o),
(33,779,cs)
);
}
);
width = 211;
}
);
unicode = 207;
},
{
glyphname = Eth;
layers = (
{
layerId = "E8646C30-3FF3-473D-8246-41AB9B20E065";
shapes = (
{
closed = 1;
nodes = (
(62,0,l),
(325,0,ls),
(569,0,o),
(683,143,o),
(683,351,cs),
(683,558,o),
(569,700,o),
(325,700,cs),
(62,700,l),
(62,422,l),
(4,422,l),
(4,280,l),
(62,280,l)
);
},
{
closed = 1;
nodes = (
(233,422,l),
(233,554,l),
(314,554,ls),
(463,554,o),
(509,478,o),
(509,351,cs),
(509,222,o),
(463,148,o),
(314,148,cs),
(233,148,l),
(233,280,l),
(391,280,l),
(391,422,l)
);
}
);
width = 731;
},
{
layerId = "D9A7C259-C59A-4E8E-902E-93D91DDC07B0";
shapes = (
{
closed = 1;
nodes = (
(73,0,l),
(291,0,ls),
(537,0,o),
(650,133,o),
(650,349,cs),
(650,567,o),
(537,700,o),
(291,700,cs),
(73,700,l),
(73,388,l),
(8,388,l),
(8,309,l),
(73,309,l)
);
},
{
closed = 1;
nodes = (
(162,388,l),
(162,626,l),
(288,626,ls),
(489,626,o),
(560,521,o),
(560,349,cs),
(560,178,o),
(489,74,o),
(288,74,cs),
(162,74,l),
(162,309,l),
(381,309,l),
(381,388,l)
);
}
);
width = 718;
},
{
layerId = "0D412B41-94F2-47FA-B804-36C251FF5B2C";
shapes = (
{
closed = 1;
nodes = (
(78,0,l),
(277,0,ls),
(524,0,o),
(637,129,o),
(637,348,cs),
(637,571,o),
(524,700,o),
(277,700,cs),
(78,700,l),
(78,375,l),
(10,375,l),
(10,321,l),
(78,321,l)
);
},
{
closed = 1;
nodes = (
(133,375,l),
(133,655,l),
(278,655,ls),
(499,655,o),
(580,538,o),
(580,348,cs),
(580,160,o),
(499,45,o),
(278,45,cs),
(133,45,l),
(133,321,l),
(377,321,l),
(377,375,l)
);
}
);
width = 713;
}
);
rightKerningGroup = D;
unicode = 208;
},
{
glyphname = Ograve;
layers = (
{
layerId = "E8646C30-3FF3-473D-8246-41AB9B20E065";
shapes = (
{
closed = 1;
nodes = (
(616,-12,o),
(765,137,o),
(765,350,cs),
(765,563,o),
(616,712,o),
(399,712,cs),
(182,712,o),
(33,563,o),
(33,350,cs),
(33,137,o),
(182,-12,o),
(399,-12,cs)
);
},
{
closed = 1;
nodes = (
(292,143,o),
(227,222,o),
(227,350,cs),
(227,478,o),
(292,557,o),
(399,557,cs),
(506,557,o),
(571,478,o),
(571,350,cs),
(571,222,o),
(506,143,o),
(399,143,cs)
);
},
{
closed = 1;
nodes = (
(540,824,l),
(334,972,l),
(334,972,l),
(264,871,l),
(482,739,l)
);
}
);
width = 798;
},
{
layerId = "D9A7C259-C59A-4E8E-902E-93D91DDC07B0";
shapes = (
{
closed = 1;
nodes = (
(601,-12,o),
(742,136,o),
(742,350,cs),
(742,563,o),
(601,712,o),
(393,712,cs),
(184,712,o),
(43,563,o),
(43,350,cs),
(43,136,o),
(184,-12,o),
(393,-12,cs)
);
},
{
closed = 1;
nodes = (
(243,66,o),
(142,173,o),
(142,350,cs),
(142,527,o),
(243,633,o),
(393,633,cs),
(544,633,o),
(643,527,o),
(643,350,cs),
(643,173,o),
(544,66,o),
(393,66,cs)
);
},
{
closed = 1;
nodes = (
(502,795,l),
(325,924,l),
(325,924,l),
(276,854,l),
(465,739,l)
);
}
);
width = 785;
},
{
layerId = "0D412B41-94F2-47FA-B804-36C251FF5B2C";
shapes = (
{
closed = 1;
nodes = (
(595,-12,o),
(731,135,o),
(731,350,cs),
(731,563,o),
(595,712,o),
(390,712,cs),
(185,712,o),
(49,563,o),
(49,350,cs),
(49,135,o),
(185,-12,o),
(390,-12,cs)
);
},
{
closed = 1;
nodes = (
(223,35,o),
(106,153,o),
(106,350,cs),
(106,546,o),
(223,664,o),
(390,664,cs),
(559,664,o),
(674,546,o),
(674,350,cs),
(674,153,o),
(559,35,o),
(390,35,cs)
);
},
{
closed = 1;
nodes = (
(480,772,l),
(313,893,l),
(313,893,l),
(281,848,l),
(458,739,l)
);
}
);
width = 780;
}
);
leftKerningGroup = C2;
rightKerningGroup = D;
unicode = 210;
},
{
glyphname = Oacute;
layers = (
{
layerId = "E8646C30-3FF3-473D-8246-41AB9B20E065";
shapes = (
{
closed = 1;
nodes = (
(616,-12,o),
(765,137,o),
(765,350,cs),
(765,563,o),
(616,712,o),
(399,712,cs),
(182,712,o),
(33,563,o),
(33,350,cs),
(33,137,o),
(182,-12,o),
(399,-12,cs)
);
},
{
closed = 1;
nodes = (
(292,143,o),
(227,222,o),
(227,350,cs),
(227,478,o),
(292,557,o),
(399,557,cs),
(506,557,o),
(571,478,o),
(571,350,cs),
(571,222,o),
(506,143,o),
(399,143,cs)
);
},
{
closed = 1;
nodes = (
(571,871,l),
(501,972,l),
(501,972,l),
(295,824,l),
(353,739,l)
);
}
);
width = 798;
},
{
layerId = "D9A7C259-C59A-4E8E-902E-93D91DDC07B0";
shapes = (
{
closed = 1;
nodes = (
(601,-12,o),
(742,136,o),
(742,350,cs),
(742,563,o),
(601,712,o),
(393,712,cs),
(184,712,o),
(43,563,o),
(43,350,cs),
(43,136,o),
(184,-12,o),
(393,-12,cs)
);
},
{
closed = 1;
nodes = (
(243,66,o),
(142,173,o),
(142,350,cs),
(142,527,o),
(243,633,o),
(393,633,cs),
(544,633,o),
(643,527,o),
(643,350,cs),
(643,173,o),
(544,66,o),
(393,66,cs)
);
},
{
closed = 1;
nodes = (
(523,854,l),
(474,924,l),
(474,924,l),
(297,795,l),
(334,739,l)
);
}
);
width = 785;
},
{
layerId = "0D412B41-94F2-47FA-B804-36C251FF5B2C";
shapes = (
{
closed = 1;
nodes = (
(595,-12,o),
(731,135,o),
(731,350,cs),
(731,563,o),
(595,712,o),
(390,712,cs),
(185,712,o),
(49,563,o),
(49,350,cs),
(49,135,o),
(185,-12,o),
(390,-12,cs)
);
},
{
closed = 1;
nodes = (
(223,35,o),
(106,153,o),
(106,350,cs),
(106,546,o),
(223,664,o),
(390,664,cs),
(559,664,o),
(674,546,o),
(674,350,cs),
(674,153,o),
(559,35,o),
(390,35,cs)
);
},
{
closed = 1;
nodes = (
(497,848,l),
(465,893,l),
(465,893,l),
(298,772,l),
(320,739,l)
);
}
);
width = 780;
}
);
leftKerningGroup = C2;
rightKerningGroup = D;
unicode = 211;
},
{
glyphname = Ocircumflex;
layers = (
{
layerId = "E8646C30-3FF3-473D-8246-41AB9B20E065";
shapes = (
{
closed = 1;
nodes = (
(616,-12,o),
(765,137,o),
(765,350,cs),
(765,563,o),
(616,712,o),
(399,712,cs),
(182,712,o),
(33,563,o),
(33,350,cs),
(33,137,o),
(182,-12,o),
(399,-12,cs)
);
},
{
closed = 1;
nodes = (
(292,143,o),
(227,222,o),
(227,350,cs),
(227,478,o),
(292,557,o),
(399,557,cs),
(506,557,o),
(571,478,o),
(571,350,cs),
(571,222,o),
(506,143,o),
(399,143,cs)
);
},
{
closed = 1;
nodes = (
(606,827,l),
(398,973,l),
(192,825,l),
(250,740,l),
(401,831,l),
(548,742,l)
);
}
);
width = 798;
},
{
layerId = "D9A7C259-C59A-4E8E-902E-93D91DDC07B0";
shapes = (
{
closed = 1;
nodes = (
(601,-12,o),
(742,136,o),
(742,350,cs),
(742,563,o),
(601,712,o),
(393,712,cs),
(184,712,o),
(43,563,o),
(43,350,cs),
(43,136,o),
(184,-12,o),
(393,-12,cs)
);
},
{
closed = 1;
nodes = (
(243,66,o),
(142,173,o),
(142,350,cs),
(142,527,o),
(243,633,o),
(393,633,cs),
(544,633,o),
(643,527,o),
(643,350,cs),
(643,173,o),
(544,66,o),
(393,66,cs)
);
},
{
closed = 1;
nodes = (
(570,856,l),
(393,985,l),
(216,856,l),
(253,800,l),
(393,885,l),
(533,800,l)
);
}
);
width = 785;
},
{
layerId = "0D412B41-94F2-47FA-B804-36C251FF5B2C";
shapes = (
{
closed = 1;
nodes = (
(595,-12,o),
(731,135,o),
(731,350,cs),
(731,563,o),
(595,712,o),
(390,712,cs),
(185,712,o),
(49,563,o),
(49,350,cs),
(49,135,o),
(185,-12,o),
(390,-12,cs)
);
},
{
closed = 1;
nodes = (
(223,35,o),
(106,153,o),
(106,350,cs),
(106,546,o),
(223,664,o),
(390,664,cs),
(559,664,o),
(674,546,o),
(674,350,cs),
(674,153,o),
(559,35,o),
(390,35,cs)
);
},
{
closed = 1;
nodes = (
(558,833,l),
(389,954,l),
(222,833,l),
(244,800,l),
(390,890,l),
(536,800,l)
);
}
);
width = 780;
}
);
leftKerningGroup = C2;
rightKerningGroup = D;
unicode = 212;
},
{
glyphname = Odieresis;
layers = (
{
layerId = "E8646C30-3FF3-473D-8246-41AB9B20E065";
shapes = (
{
closed = 1;
nodes = (
(616,-12,o),
(765,137,o),
(765,350,cs),
(765,563,o),
(616,712,o),
(399,712,cs),
(182,712,o),
(33,563,o),
(33,350,cs),
(33,137,o),
(182,-12,o),
(399,-12,cs)
);
},
{
closed = 1;
nodes = (
(292,143,o),
(227,222,o),
(227,350,cs),
(227,478,o),
(292,557,o),
(399,557,cs),
(506,557,o),
(571,478,o),
(571,350,cs),
(571,222,o),
(506,143,o),
(399,143,cs)
);
},
{
closed = 1;
nodes = (
(591,762,o),
(622,794,o),
(622,835,cs),
(622,878,o),
(591,909,o),
(548,909,cs),
(507,909,o),
(475,878,o),
(475,835,cs),
(475,794,o),
(507,762,o),
(548,762,cs)
);
},
{
closed = 1;
nodes = (
(391,762,o),
(422,794,o),
(422,835,cs),
(422,878,o),
(391,909,o),
(348,909,cs),
(307,909,o),
(275,878,o),
(275,835,cs),
(275,794,o),
(307,762,o),
(348,762,cs)
);
}
);
width = 780;
},
{
layerId = "D9A7C259-C59A-4E8E-902E-93D91DDC07B0";
shapes = (
{
closed = 1;
nodes = (
(601,-12,o),
(742,136,o),
(742,350,cs),
(742,563,o),
(601,712,o),
(393,712,cs),
(184,712,o),
(43,563,o),
(43,350,cs),
(43,136,o),
(184,-12,o),
(393,-12,cs)
);
},
{
closed = 1;
nodes = (
(243,66,o),
(142,173,o),
(142,350,cs),
(142,527,o),
(243,633,o),
(393,633,cs),
(544,633,o),
(643,527,o),
(643,350,cs),
(643,173,o),
(544,66,o),
(393,66,cs)
);
},
{
closed = 1;
nodes = (
(517,774,o),
(538,797,o),
(538,825,cs),
(538,854,o),
(517,876,o),
(488,876,cs),
(459,876,o),
(437,854,o),
(437,825,cs),
(437,797,o),
(459,774,o),
(488,774,cs)
);
},
{
closed = 1;
nodes = (
(355,774,o),
(377,797,o),
(377,825,cs),
(377,854,o),
(355,876,o),
(326,876,cs),
(297,876,o),
(275,854,o),
(275,825,cs),
(275,797,o),
(297,774,o),
(326,774,cs)
);
}
);
width = 780;
},
{
layerId = "0D412B41-94F2-47FA-B804-36C251FF5B2C";
shapes = (
{
closed = 1;
nodes = (
(595,-12,o),
(731,135,o),
(731,350,cs),
(731,563,o),
(595,712,o),
(390,712,cs),
(185,712,o),
(49,563,o),
(49,350,cs),
(49,135,o),
(185,-12,o),
(390,-12,cs)
);
},
{
closed = 1;
nodes = (
(223,35,o),
(106,153,o),
(106,350,cs),
(106,546,o),
(223,664,o),
(390,664,cs),
(559,664,o),
(674,546,o),
(674,350,cs),
(674,153,o),
(559,35,o),
(390,35,cs)
);
},
{
closed = 1;
nodes = (
(487,779,o),
(505,798,o),
(505,821,cs),
(505,844,o),
(487,863,o),
(464,863,cs),
(440,863,o),
(422,844,o),
(422,821,cs),
(422,798,o),
(440,779,o),
(464,779,cs)
);
},
{
closed = 1;
nodes = (
(340,779,o),
(359,798,o),
(359,821,cs),
(359,844,o),
(340,863,o),
(317,863,cs),
(293,863,o),
(275,844,o),
(275,821,cs),
(275,798,o),
(293,779,o),
(317,779,cs)
);
}
);
width = 780;
}
);
leftKerningGroup = C2;
rightKerningGroup = D;
unicode = 214;
},
{
glyphname = multiply;
layers = (
{
layerId = "E8646C30-3FF3-473D-8246-41AB9B20E065";
shapes = (
{
closed = 1;
nodes = (
(150,73,l),
(266,189,l),
(382,73,l),
(482,173,l),
(366,289,l),
(482,405,l),
(382,505,l),
(266,389,l),
(150,505,l),
(50,405,l),
(166,289,l),
(50,173,l)
);
}
);
width = 532;
},
{
layerId = "D9A7C259-C59A-4E8E-902E-93D91DDC07B0";
shapes = (
{
closed = 1;
nodes = (
(115,104,l),
(248,238,l),
(376,110,l),
(430,162,l),
(301,290,l),
(434,425,l),
(382,477,l),
(249,343,l),
(121,471,l),
(67,419,l),
(195,290,l),
(62,157,l)
);
}
);
width = 497;
},
{
layerId = "0D412B41-94F2-47FA-B804-36C251FF5B2C";
shapes = (
{
closed = 1;
nodes = (
(101,117,l),
(241,258,l),
(374,125,l),
(409,158,l),
(275,291,l),
(415,433,l),
(382,466,l),
(242,325,l),
(109,458,l),
(74,425,l),
(207,291,l),
(67,150,l)
);
}
);
width = 483;
}
);
unicode = 215;
},
{
glyphname = Oslash;
layers = (
{
layerId = "E8646C30-3FF3-473D-8246-41AB9B20E065";
shapes = (
{
closed = 1;
nodes = (
(609,-12,o),
(754,137,o),
(754,350,cs),
(754,447,o),
(724,530,o),
(671,593,c),
(760,700,l),
(606,700,l),
(579,668,l),
(527,696,o),
(466,712,o),
(398,712,cs),
(187,712,o),
(42,563,o),
(42,350,cs),
(42,257,o),
(70,176,o),
(118,115,c),
(22,0,l),
(176,0,l),
(207,37,l),
(262,6,o),
(326,-12,o),
(398,-12,cs)
);
},
{
closed = 1;
nodes = (
(233,253,l),
(222,282,o),
(216,314,o),
(216,350,cs),
(216,478,o),
(285,557,o),
(398,557,cs),
(427,557,o),
(452,552,o),
(474,542,c)
);
},
{
closed = 1;
nodes = (
(367,143,o),
(338,149,o),
(311,162,c),
(559,459,l),
(573,428,o),
(580,392,o),
(580,350,cs),
(580,222,o),
(511,143,o),
(398,143,cs)
);
}
);
width = 782;
},
{
layerId = "D9A7C259-C59A-4E8E-902E-93D91DDC07B0";
shapes = (
{
closed = 1;
nodes = (
(599,-12,o),
(738,136,o),
(738,350,cs),
(738,449,o),
(708,532,o),
(656,596,c),
(748,700,l),
(655,700,l),
(605,643,l),
(548,687,o),
(477,712,o),
(392,712,cs),
(186,712,o),
(47,563,o),
(47,350,cs),
(47,250,o),
(76,166,o),
(129,103,c),
(38,0,l),
(132,0,l),
(181,55,l),
(237,12,o),
(309,-12,o),
(392,-12,cs)
);
},
{
closed = 1;
nodes = (
(187,171,l),
(156,216,o),
(137,277,o),
(137,350,cs),
(137,527,o),
(241,633,o),
(392,633,cs),
(456,633,o),
(508,616,o),
(550,580,c)
);
},
{
closed = 1;
nodes = (
(330,66,o),
(277,83,o),
(235,118,c),
(598,529,l),
(630,483,o),
(647,423,o),
(647,350,cs),
(647,173,o),
(545,66,o),
(392,66,cs)
);
}
);
width = 786;
},
{
layerId = "0D412B41-94F2-47FA-B804-36C251FF5B2C";
shapes = (
{
closed = 1;
nodes = (
(595,-12,o),
(731,135,o),
(731,350,cs),
(731,450,o),
(702,533,o),
(650,597,c),
(743,700,l),
(675,700,l),
(615,633,l),
(556,684,o),
(482,712,o),
(390,712,cs),
(185,712,o),
(49,563,o),
(49,350,cs),
(49,247,o),
(78,162,o),
(133,98,c),
(45,0,l),
(114,0,l),
(170,62,l),
(227,15,o),
(302,-12,o),
(390,-12,cs)
);
},
{
closed = 1;
nodes = (
(169,138,l),
(129,190,o),
(106,262,o),
(106,350,cs),
(106,546,o),
(223,664,o),
(390,664,cs),
(467,664,o),
(531,641,o),
(581,595,c)
);
},
{
closed = 1;
nodes = (
(315,35,o),
(253,57,o),
(204,100,c),
(614,557,l),
(653,505,o),
(674,435,o),
(674,350,cs),
(674,153,o),
(559,35,o),
(390,35,cs)
);
}
);
width = 788;
}
);
unicode = 216;
},
{
glyphname = Ugrave;
layers = (
{
layerId = "E8646C30-3FF3-473D-8246-41AB9B20E065";
shapes = (
{
closed = 1;
nodes = (
(511,-12,o),
(647,83,o),
(647,278,cs),
(647,700,l),
(476,700,l),
(476,277,ls),
(476,193,o),
(433,146,o),
(352,146,cs),
(271,146,o),
(230,193,o),
(230,277,cs),
(230,700,l),
(59,700,l),
(59,278,ls),
(59,83,o),
(186,-12,o),
(349,-12,cs)
);
},
{
closed = 1;
nodes = (
(493,824,l),
(287,972,l),
(287,972,l),
(217,871,l),
(435,739,l)
);
}
);
width = 705;
},
{
layerId = "D9A7C259-C59A-4E8E-902E-93D91DDC07B0";
shapes = (
{
closed = 1;
nodes = (
(475,-12,o),
(591,72,o),
(591,259,cs),
(591,700,l),
(502,700,l),
(502,258,ls),
(502,124,o),
(434,67,o),
(330,67,cs),
(226,67,o),
(156,124,o),
(156,258,cs),
(156,700,l),
(68,700,l),
(68,259,ls),
(68,72,o),
(182,-12,o),
(328,-12,cs)
);
},
{
closed = 1;
nodes = (
(438,795,l),
(261,924,l),
(261,924,l),
(212,854,l),
(401,739,l)
);
}
);
width = 659;
},
{
layerId = "0D412B41-94F2-47FA-B804-36C251FF5B2C";
shapes = (
{
closed = 1;
nodes = (
(460,-12,o),
(568,68,o),
(568,252,cs),
(568,700,l),
(513,700,l),
(513,251,ls),
(513,96,o),
(434,36,o),
(321,36,cs),
(208,36,o),
(127,96,o),
(127,251,cs),
(127,700,l),
(72,700,l),
(72,252,ls),
(72,68,o),
(180,-12,o),
(320,-12,cs)
);
},
{
closed = 1;
nodes = (
(409,772,l),
(242,893,l),
(242,893,l),
(210,848,l),
(387,739,l)
);
}
);
width = 640;
}
);
leftKerningGroup = U2;
rightKerningGroup = U;
unicode = 217;
},
{
glyphname = Uacute;
layers = (
{
layerId = "E8646C30-3FF3-473D-8246-41AB9B20E065";
shapes = (
{
closed = 1;
nodes = (
(511,-12,o),
(647,83,o),
(647,278,cs),
(647,700,l),
(476,700,l),
(476,277,ls),
(476,193,o),
(433,146,o),
(352,146,cs),
(271,146,o),
(230,193,o),
(230,277,cs),
(230,700,l),
(59,700,l),
(59,278,ls),
(59,83,o),
(186,-12,o),
(349,-12,cs)
);
},
{
closed = 1;
nodes = (
(524,871,l),
(454,972,l),
(454,972,l),
(248,824,l),
(306,739,l)
);
}
);
width = 705;
},
{
layerId = "D9A7C259-C59A-4E8E-902E-93D91DDC07B0";
shapes = (
{
closed = 1;
nodes = (
(475,-12,o),
(591,72,o),
(591,259,cs),
(591,700,l),
(502,700,l),
(502,258,ls),
(502,124,o),
(434,67,o),
(330,67,cs),
(226,67,o),
(156,124,o),
(156,258,cs),
(156,700,l),
(68,700,l),
(68,259,ls),
(68,72,o),
(182,-12,o),
(328,-12,cs)
);
},
{
closed = 1;
nodes = (
(459,854,l),
(410,924,l),
(410,924,l),
(233,795,l),
(270,739,l)
);
}
);
width = 659;
},
{
layerId = "0D412B41-94F2-47FA-B804-36C251FF5B2C";
shapes = (
{
closed = 1;
nodes = (
(460,-12,o),
(568,68,o),
(568,252,cs),
(568,700,l),
(513,700,l),
(513,251,ls),
(513,96,o),
(434,36,o),
(321,36,cs),
(208,36,o),
(127,96,o),
(127,251,cs),
(127,700,l),
(72,700,l),
(72,252,ls),
(72,68,o),
(180,-12,o),
(320,-12,cs)
);
},
{
closed = 1;
nodes = (
(426,848,l),
(394,893,l),
(394,893,l),
(227,772,l),
(249,739,l)
);
}
);
width = 640;
}
);
leftKerningGroup = U2;
rightKerningGroup = U;
unicode = 218;
},
{
glyphname = Ucircumflex;
layers = (
{
layerId = "E8646C30-3FF3-473D-8246-41AB9B20E065";
shapes = (
{
closed = 1;
nodes = (
(511,-12,o),
(647,83,o),
(647,278,cs),
(647,700,l),
(476,700,l),
(476,277,ls),
(476,193,o),
(433,146,o),
(352,146,cs),
(271,146,o),
(230,193,o),
(230,277,cs),
(230,700,l),
(59,700,l),
(59,278,ls),
(59,83,o),
(186,-12,o),
(349,-12,cs)
);
},
{
closed = 1;
nodes = (
(562,827,l),
(354,973,l),
(148,825,l),
(206,740,l),
(357,831,l),
(504,742,l)
);
}
);
width = 705;
},
{
layerId = "D9A7C259-C59A-4E8E-902E-93D91DDC07B0";
shapes = (
{
closed = 1;
nodes = (
(475,-12,o),
(591,72,o),
(591,259,cs),
(591,700,l),
(502,700,l),
(502,258,ls),
(502,124,o),
(434,67,o),
(330,67,cs),
(226,67,o),
(156,124,o),
(156,258,cs),
(156,700,l),
(68,700,l),
(68,259,ls),
(68,72,o),
(182,-12,o),
(328,-12,cs)
);
},
{
closed = 1;
nodes = (
(508,856,l),
(331,985,l),
(154,856,l),
(191,800,l),
(331,885,l),
(471,800,l)
);
}
);
width = 659;
},
{
layerId = "0D412B41-94F2-47FA-B804-36C251FF5B2C";
shapes = (
{
closed = 1;
nodes = (
(460,-12,o),
(568,68,o),
(568,252,cs),
(568,700,l),
(513,700,l),
(513,251,ls),
(513,96,o),
(434,36,o),
(321,36,cs),
(208,36,o),
(127,96,o),
(127,251,cs),
(127,700,l),
(72,700,l),
(72,252,ls),
(72,68,o),
(180,-12,o),
(320,-12,cs)
);
},
{
closed = 1;
nodes = (
(489,833,l),
(320,954,l),
(153,833,l),
(175,800,l),
(321,890,l),
(467,800,l)
);
}
);
width = 640;
}
);
leftKerningGroup = U2;
rightKerningGroup = U;
unicode = 219;
},
{
glyphname = Udieresis;
layers = (
{
layerId = "E8646C30-3FF3-473D-8246-41AB9B20E065";
shapes = (
{
closed = 1;
nodes = (
(511,-12,o),
(647,83,o),
(647,278,cs),
(647,700,l),
(476,700,l),
(476,277,ls),
(476,193,o),
(433,146,o),
(352,146,cs),
(271,146,o),
(230,193,o),
(230,277,cs),
(230,700,l),
(59,700,l),
(59,278,ls),
(59,83,o),
(186,-12,o),
(349,-12,cs)
);
},
{
closed = 1;
nodes = (
(520,762,o),
(551,794,o),
(551,835,cs),
(551,878,o),
(520,909,o),
(477,909,cs),
(436,909,o),
(404,878,o),
(404,835,cs),
(404,794,o),
(436,762,o),
(477,762,cs)
);
},
{
closed = 1;
nodes = (
(320,762,o),
(351,794,o),
(351,835,cs),
(351,878,o),
(320,909,o),
(277,909,cs),
(236,909,o),
(204,878,o),
(204,835,cs),
(204,794,o),
(236,762,o),
(277,762,cs)
);
}
);
width = 640;
},
{
layerId = "D9A7C259-C59A-4E8E-902E-93D91DDC07B0";
shapes = (
{
closed = 1;
nodes = (
(475,-12,o),
(591,72,o),
(591,259,cs),
(591,700,l),
(502,700,l),
(502,258,ls),
(502,124,o),
(434,67,o),
(330,67,cs),
(226,67,o),
(156,124,o),
(156,258,cs),
(156,700,l),
(68,700,l),
(68,259,ls),
(68,72,o),
(182,-12,o),
(328,-12,cs)
);
},
{
closed = 1;
nodes = (
(446,774,o),
(467,797,o),
(467,825,cs),
(467,854,o),
(446,876,o),
(417,876,cs),
(388,876,o),
(366,854,o),
(366,825,cs),
(366,797,o),
(388,774,o),
(417,774,cs)
);
},
{
closed = 1;
nodes = (
(284,774,o),
(306,797,o),
(306,825,cs),
(306,854,o),
(284,876,o),
(255,876,cs),
(226,876,o),
(204,854,o),
(204,825,cs),
(204,797,o),
(226,774,o),
(255,774,cs)
);
}
);
width = 640;
},
{
layerId = "0D412B41-94F2-47FA-B804-36C251FF5B2C";
shapes = (
{
closed = 1;
nodes = (
(460,-12,o),
(568,68,o),
(568,252,cs),
(568,700,l),
(513,700,l),
(513,251,ls),
(513,96,o),
(434,36,o),
(321,36,cs),
(208,36,o),
(127,96,o),
(127,251,cs),
(127,700,l),
(72,700,l),
(72,252,ls),
(72,68,o),
(180,-12,o),
(320,-12,cs)
);
},
{
closed = 1;
nodes = (
(416,779,o),
(434,798,o),
(434,821,cs),
(434,844,o),
(416,863,o),
(393,863,cs),
(369,863,o),
(351,844,o),
(351,821,cs),
(351,798,o),
(369,779,o),
(393,779,cs)
);
},
{
closed = 1;
nodes = (
(269,779,o),
(288,798,o),
(288,821,cs),
(288,844,o),
(269,863,o),
(246,863,cs),
(222,863,o),
(204,844,o),
(204,821,cs),
(204,798,o),
(222,779,o),
(246,779,cs)
);
}
);
width = 640;
}
);
leftKerningGroup = U2;
rightKerningGroup = U;
unicode = 220;
},
{
glyphname = Yacute;
layers = (
{
layerId = "E8646C30-3FF3-473D-8246-41AB9B20E065";
shapes = (
{
closed = 1;
nodes = (
(250,0,l),
(421,0,l),
(421,232,l),
(663,700,l),
(471,700,l),
(337,408,l),
(202,700,l),
(8,700,l),
(250,232,l)
);
},
{
closed = 1;
nodes = (
(507,871,l),
(437,972,l),
(437,972,l),
(231,824,l),
(289,739,l)
);
}
);
width = 671;
},
{
layerId = "D9A7C259-C59A-4E8E-902E-93D91DDC07B0";
shapes = (
{
closed = 1;
nodes = (
(249,0,l),
(337,0,l),
(337,265,l),
(564,700,l),
(465,700,l),
(293,349,l),
(119,700,l),
(19,700,l),
(249,265,l)
);
},
{
closed = 1;
nodes = (
(423,854,l),
(374,924,l),
(374,924,l),
(197,795,l),
(234,739,l)
);
}
);
width = 583;
},
{
layerId = "0D412B41-94F2-47FA-B804-36C251FF5B2C";
shapes = (
{
closed = 1;
nodes = (
(248,0,l),
(303,0,l),
(303,278,l),
(524,700,l),
(463,700,l),
(275,325,l),
(86,700,l),
(24,700,l),
(248,278,l)
);
},
{
closed = 1;
nodes = (
(383,848,l),
(351,893,l),
(351,893,l),
(184,772,l),
(206,739,l)
);
}
);
width = 548;
}
);
leftKerningGroup = Y2;
rightKerningGroup = Y;
unicode = 221;
},
{
glyphname = Thorn;
layers = (
{
layerId = "E8646C30-3FF3-473D-8246-41AB9B20E065";
shapes = (
{
closed = 1;
nodes = (
(62,0,l),
(233,0,l),
(233,125,l),
(349,125,ls),
(529,125,o),
(607,233,o),
(607,349,cs),
(607,478,o),
(521,575,o),
(349,575,cs),
(233,575,l),
(233,700,l),
(62,700,l)
);
},
{
closed = 1;
nodes = (
(233,261,l),
(233,437,l),
(336,437,ls),
(404,437,o),
(433,404,o),
(433,349,cs),
(433,294,o),
(404,261,o),
(336,261,cs)
);
}
);
width = 634;
},
{
layerId = "D9A7C259-C59A-4E8E-902E-93D91DDC07B0";
shapes = (
{
closed = 1;
nodes = (
(73,0,l),
(162,0,l),
(162,146,l),
(306,146,ls),
(474,146,o),
(546,237,o),
(546,350,cs),
(546,467,o),
(470,555,o),
(306,555,cs),
(162,555,l),
(162,700,l),
(73,700,l)
);
},
{
closed = 1;
nodes = (
(162,219,l),
(162,482,l),
(304,482,ls),
(414,482,o),
(456,434,o),
(456,350,cs),
(456,269,o),
(413,219,o),
(304,219,cs)
);
}
);
width = 581;
},
{
layerId = "0D412B41-94F2-47FA-B804-36C251FF5B2C";
shapes = (
{
closed = 1;
nodes = (
(78,0,l),
(133,0,l),
(133,154,l),
(289,154,ls),
(452,154,o),
(522,238,o),
(522,350,cs),
(522,463,o),
(449,547,o),
(289,547,cs),
(133,547,l),
(133,700,l),
(78,700,l)
);
},
{
closed = 1;
nodes = (
(133,202,l),
(133,500,l),
(291,500,ls),
(418,500,o),
(465,446,o),
(465,350,cs),
(465,259,o),
(416,202,o),
(291,202,cs)
);
}
);
width = 560;
}
);
unicode = 222;
},
